<svg width="70" height="64" viewBox="0 0 70 64" fill="none" xmlns="http://www.w3.org/2000/svg">
<path d="M6.56595 14.0671C5.38444 15.2487 3.49118 18.0814 2.18155 21.174C-0.0873449 26.5318 1.34168 35.4055 2.88263 38.8468C4.3365 42.0937 6.79371 45.3701 8.6941 48.1032C10.4675 50.6537 13.6693 53.1993 17.1106 55.815C20.7404 58.574 26.9506 60.0891 30.0431 61.0393C33.0707 61.9695 36.9151 62.2244 46.506 62.3489C50.8204 62.405 53.5274 59.3916 56.4954 57.8471C60.3736 55.8289 61.5987 52.5161 63.3817 50.2562C65.1979 47.9542 65.8692 44.6868 67.0614 41.2454C68.0827 38.2975 68.4885 27.4481 67.7803 20.4836C67.468 17.4123 65.1717 14.7931 63.0436 11.5902C59.5561 6.34158 55.6912 5.7681 52.7232 4.10972C49.3828 2.24331 46.4384 1.49758 38.8618 1.13815C31.7381 0.800199 22.2388 1.01359 19.3882 2.55454C16.7093 4.00265 14.1675 5.04211 12.1497 6.82505C9.65496 8.13112 7.7617 10.4941 6.56951 13.3447C6.33108 14.06 6.0962 14.7647 5.8542 15.4907" stroke="black" stroke-width="2" stroke-linecap="round"/>
<path d="M49.0443 15.5107C48.0517 16.0618 46.9462 16.9449 45.3991 18.1069C43.7507 19.345 42.0793 20.4839 40.4742 21.8135C39.0521 22.9914 36.668 25.2312 34.1167 27.507C29.174 31.9158 27.5849 33.2121 25.3158 35.2007C23.5978 36.6415 22.2665 38.0823 21.825 38.6899C21.6025 38.9687 21.3834 39.1878 20.8257 39.4136" stroke="black" stroke-width="2" stroke-linecap="round"/>
<path d="M25.1416 13.1869C25.032 13.1869 24.9224 13.1869 24.866 13.3512C24.4887 14.4497 26.018 16.4935 27.6265 19.5394C28.5655 21.3176 29.3445 23.1398 30.1728 24.7997C31.1196 26.6971 32.2195 27.9004 33.6022 29.9438C34.7542 31.6463 35.8713 33.9824 37.4183 36.0291C39.482 38.7592 39.636 40.6221 40.3547 42.3401C40.5224 42.7302 40.6319 43.0588 40.7431 43.3925C40.8544 43.7261 40.9639 44.0548 41.4088 44.7254" stroke="black" stroke-width="2" stroke-linecap="round"/>
</svg>
