<svg width="70" height="64" viewBox="0 0 70 64" fill="none" xmlns="http://www.w3.org/2000/svg">
<path d="M6.56595 14.0671C5.38444 15.2487 3.49118 18.0814 2.18155 21.174C-0.0873449 26.5318 1.34168 35.4055 2.88263 38.8468C4.3365 42.0937 6.79371 45.3701 8.6941 48.1032C10.4675 50.6537 13.6693 53.1993 17.1106 55.815C20.7404 58.574 26.9506 60.0891 30.0431 61.0393C33.0707 61.9695 36.9151 62.2244 46.506 62.3489C50.8204 62.405 53.5274 59.3916 56.4954 57.8471C60.3736 55.8289 61.5987 52.5161 63.3817 50.2562C65.1979 47.9542 65.8692 44.6868 67.0614 41.2454C68.0827 38.2975 68.4885 27.4481 67.7803 20.4836C67.468 17.4123 65.1717 14.7931 63.0436 11.5902C59.5561 6.34158 55.6912 5.7681 52.7232 4.10972C49.3828 2.24331 46.4384 1.49758 38.8618 1.13815C31.7381 0.800199 22.2388 1.01359 19.3882 2.55454C16.7093 4.00265 14.1675 5.04211 12.1497 6.82505C9.65496 8.13112 7.7617 10.4941 6.56951 13.3447C6.33108 14.06 6.0962 14.7647 5.8542 15.4907" stroke="black" stroke-width="2" stroke-linecap="round"/>
<path d="M30.5107 17.699C32.1548 20.0549 36.9022 24.8023 39.8667 28.3575C41.0991 29.8355 43.2795 31.8913 44.0162 33.3326C44.7529 34.7739 44.0482 35.4786 43.2155 35.959C39.9025 37.8704 36.9307 39.5213 33.3719 41.1797C31.4787 42.1263 29.806 42.8452 28.3861 43.3185C27.6708 43.557 26.9661 43.7918 24.8167 44.7456" stroke="black" stroke-width="2" stroke-linecap="round"/>
</svg>
