<svg width="70" height="64" viewBox="0 0 70 64" fill="none" xmlns="http://www.w3.org/2000/svg">
<path d="M62.57 49.2826C63.7515 48.1011 65.6448 45.2683 66.9544 42.1757C69.2233 36.8179 67.7943 27.9442 66.2534 24.5029C64.7995 21.256 62.3423 17.9797 60.4419 15.2465C58.6685 12.696 55.4667 10.1504 52.0254 7.5347C48.3956 4.77577 42.1854 3.26062 39.0929 2.31043C36.0653 1.3802 32.2209 1.12536 22.63 1.0008C18.3156 0.944773 15.6086 3.95814 12.6405 5.50264C8.76236 7.52079 7.53727 10.8337 5.75433 13.0935C3.93809 15.3955 3.26675 18.663 2.07456 22.1043C1.05331 25.0522 0.647503 35.9016 1.3557 42.8661C1.668 45.9374 3.96427 48.5566 6.09241 51.7595C9.57986 57.0082 13.4448 57.5816 16.4128 59.24C19.7531 61.1064 22.6976 61.8521 30.2742 62.2116C37.3979 62.5495 46.8972 62.3361 49.7478 60.7952C52.4266 59.3471 54.9685 58.3076 56.9863 56.5247C59.481 55.2186 61.3743 52.8556 62.5665 50.005C62.8049 49.2897 63.0398 48.5851 63.2818 47.8591" stroke="black" stroke-width="2" stroke-linecap="round"/>
<path d="M38.6253 45.6508C36.9812 43.2949 32.2338 38.5475 29.2693 34.9923C28.0369 33.5142 25.8565 31.4584 25.1198 30.0171C24.3831 28.5758 25.0878 27.8712 25.9205 27.3907C29.2335 25.4794 32.2053 23.8284 35.7641 22.17C37.6573 21.2234 39.3299 20.5045 40.7499 20.0312C41.4652 19.7928 42.1698 19.5579 44.3193 18.6041" stroke="black" stroke-width="2" stroke-linecap="round"/>
</svg>
