<svg width="594" height="76" viewBox="0 0 594 76" fill="none" xmlns="http://www.w3.org/2000/svg">
<path d="M41.376 59.448C40.608 59.448 39.9467 59.1067 39.392 58.424C38.88 57.7413 38.624 56.5467 38.624 54.84C38.624 53.8587 38.816 52.7067 39.2 51.384C40.0533 48.696 40.928 45.816 41.824 42.744C42.7627 39.672 43.6373 36.536 44.448 33.336C45.3013 30.136 45.984 27.0427 46.496 24.056C47.008 21.0267 47.264 18.2533 47.264 15.736C47.264 14.8827 47.2213 14.0507 47.136 13.24C47.0933 12.4293 46.9867 11.6613 46.816 10.936C42.5067 15.032 38.5173 20.6 34.848 27.64C31.2213 34.6373 27.9147 42.7867 24.928 52.088C24.416 53.496 23.776 54.4773 23.008 55.032C22.24 55.5867 21.5147 55.864 20.832 55.864C20.2347 55.864 19.6587 55.6293 19.104 55.16C18.5493 54.648 18.272 53.88 18.272 52.856C18.272 52.1733 18.4427 51.2133 18.784 49.976C19.1253 48.696 19.7227 47.5227 20.576 46.456C21.0453 43.64 21.4293 40.6533 21.728 37.496C22.0693 34.3387 22.24 31.416 22.24 28.728C22.24 27.4907 22.176 26.3387 22.048 25.272C21.9627 24.1627 21.8133 23.2027 21.6 22.392C19.3813 24.7387 17.312 27.6827 15.392 31.224C13.5147 34.7227 11.8507 38.4987 10.4 42.552C8.94933 46.5627 7.73333 50.488 6.752 54.328C5.984 57.1013 4.74667 58.488 3.04 58.488C2.35733 58.488 1.78133 58.1253 1.312 57.4C0.885334 56.6747 0.672 55.5867 0.672 54.136C0.672 52.728 1.01333 50.8293 1.696 48.44C2.37867 46.0507 3.296 43.4267 4.448 40.568C5.64267 37.7093 6.96533 34.872 8.416 32.056C9.90933 29.1973 11.4453 26.5947 13.024 24.248C14.6453 21.8587 16.224 19.9387 17.76 18.488C19.296 17.0373 20.6827 16.312 21.92 16.312C22.7307 16.312 23.456 16.4613 24.096 16.76C24.736 17.0587 25.2907 17.6773 25.76 18.616C26.2293 19.512 26.5707 20.8987 26.784 22.776C27.04 24.6107 27.168 27.064 27.168 30.136C27.168 30.6907 27.168 31.3307 27.168 32.056C28.4053 28.6427 29.8347 25.336 31.456 22.136C33.12 18.8933 34.8693 15.992 36.704 13.432C38.5387 10.872 40.3733 8.84533 42.208 7.352C44.0427 5.85866 45.7707 5.112 47.392 5.112C49.2267 5.112 50.72 6.11466 51.872 8.12C53.024 10.0827 53.6 13.176 53.6 17.4C53.6 21.4107 53.28 25.3147 52.64 29.112C52 32.9093 51.1893 36.4933 50.208 39.864C49.2693 43.2347 48.288 46.3067 47.264 49.08C46.2827 51.8107 45.4293 54.1573 44.704 56.12C44.2347 57.3147 43.744 58.168 43.232 58.68C42.72 59.192 42.1013 59.448 41.376 59.448ZM67.585 60.664C65.9637 60.664 64.6197 59.9173 63.553 58.424C62.529 56.888 62.017 54.904 62.017 52.472C62.017 50.2107 62.5717 47.9707 63.681 45.752C64.833 43.5333 66.3477 41.4 68.225 39.352C70.1023 37.304 72.1503 35.4267 74.369 33.72C76.5877 31.9707 78.8063 30.456 81.025 29.176C83.2863 27.896 85.3557 26.8933 87.233 26.168C89.1103 25.4427 90.6037 25.08 91.713 25.08C92.3103 25.08 92.801 25.208 93.185 25.464C93.569 25.6773 93.761 26.0827 93.761 26.68C93.761 27.064 93.6117 27.4267 93.313 27.768C93.3557 27.768 93.3983 27.768 93.441 27.768C94.3797 27.768 94.849 28.3227 94.849 29.432C94.849 29.816 94.6997 30.6053 94.401 31.8C94.1023 32.952 93.761 34.4027 93.377 36.152C92.993 37.9013 92.6517 39.8427 92.353 41.976C92.0543 44.0667 91.905 46.2 91.905 48.376C91.905 50.2107 92.609 51.128 94.017 51.128C95.5957 51.128 97.1957 50.7653 98.817 50.04C100.438 49.3147 102.017 48.44 103.553 47.416C105.089 46.3493 106.497 45.304 107.777 44.28C109.057 43.2133 110.145 42.3173 111.041 41.592C111.937 40.8667 112.577 40.504 112.961 40.504C113.302 40.504 113.601 40.6107 113.857 40.824C114.113 41.0373 114.241 41.3787 114.241 41.848C114.241 42.2747 113.814 43.0427 112.961 44.152C112.108 45.2613 110.977 46.52 109.569 47.928C108.161 49.336 106.582 50.7013 104.833 52.024C103.084 53.3467 101.292 54.4347 99.457 55.288C97.6223 56.1413 95.873 56.568 94.209 56.568C92.929 56.568 91.7557 56.184 90.689 55.416C89.665 54.6053 88.833 53.24 88.193 51.32C87.5957 49.4 87.297 46.7547 87.297 43.384V41.784C85.2063 45.24 83.009 48.3973 80.705 51.256C78.4437 54.1147 76.1823 56.3973 73.921 58.104C71.7023 59.8107 69.5903 60.664 67.585 60.664ZM90.497 29.688C90.2837 29.7733 89.985 29.9013 89.601 30.072C87.6383 30.968 85.5903 32.0773 83.457 33.4C81.3663 34.7227 79.3183 36.1947 77.313 37.816C75.3503 39.4373 73.5797 41.1227 72.001 42.872C70.4223 44.6213 69.1637 46.392 68.225 48.184C67.2863 49.976 66.817 51.7253 66.817 53.432C66.817 53.9867 66.9237 54.4133 67.137 54.712C67.393 55.0107 67.8197 55.16 68.417 55.16C69.2703 55.16 70.3797 54.6267 71.745 53.56C73.1103 52.4507 74.6037 51 76.225 49.208C77.889 47.416 79.553 45.432 81.217 43.256C82.881 41.08 84.4597 38.8827 85.953 36.664C87.489 34.4453 88.8117 32.3973 89.921 30.52C90.0917 30.2213 90.2837 29.944 90.497 29.688ZM112.774 59.32C111.963 59.32 111.238 59.0213 110.598 58.424C109.958 57.784 109.638 56.8027 109.638 55.48C109.638 54.5413 109.766 53.24 110.022 51.576C110.278 49.8693 110.619 48.0133 111.046 46.008C111.472 44.0027 111.92 42.0187 112.39 40.056C112.902 38.0507 113.414 36.2587 113.926 34.68C114.438 33.1013 114.886 31.928 115.27 31.16C115.611 30.5627 115.931 30.1787 116.23 30.008C116.571 29.8373 116.891 29.752 117.19 29.752C117.787 29.752 118.299 29.944 118.726 30.328C119.195 30.712 119.43 31.4587 119.43 32.568C119.43 33.208 119.302 34.2747 119.046 35.768C118.832 37.2187 118.534 38.9253 118.15 40.888C117.808 42.808 117.424 44.792 116.998 46.84C116.614 48.8453 116.23 50.7653 115.845 52.6C115.462 54.4347 115.163 55.9707 114.95 57.208C114.779 57.8907 114.48 58.424 114.054 58.808C113.67 59.1493 113.243 59.32 112.774 59.32ZM119.046 23.928C118.064 23.928 117.126 23.6293 116.23 23.032C115.376 22.4347 114.95 21.4747 114.95 20.152C114.95 19.0427 115.206 18.1467 115.718 17.464C116.272 16.7813 116.912 16.2907 117.638 15.992C118.406 15.6507 119.067 15.48 119.622 15.48C120.176 15.48 120.795 15.608 121.478 15.864C122.203 16.0773 122.822 16.504 123.333 17.144C123.846 17.7413 124.102 18.6373 124.102 19.832C124.102 20.6427 123.824 21.368 123.27 22.008C122.715 22.6053 122.032 23.0747 121.222 23.416C120.454 23.7573 119.728 23.928 119.046 23.928ZM159.529 62.392C156.756 62.392 154.196 61.7307 151.849 60.408C149.545 59.0853 147.454 57.3787 145.577 55.288C143.742 53.1973 142.1 50.9573 140.649 48.568C139.241 46.136 138.025 43.8533 137.001 41.72C136.276 45.176 135.7 47.9707 135.273 50.104C134.889 52.2373 134.569 53.8587 134.313 54.968C134.1 56.0773 133.886 56.824 133.673 57.208C133.46 57.592 133.182 57.784 132.841 57.784C131.902 57.784 131.006 57.272 130.153 56.248C129.3 55.224 128.873 53.9013 128.873 52.28C128.873 50.5733 129.172 48.312 129.769 45.496C130.366 42.6373 131.156 39.48 132.137 36.024C133.161 32.5253 134.334 28.92 135.657 25.208C136.98 21.4533 138.345 17.8053 139.753 14.264C141.204 10.68 142.654 7.416 144.105 4.472C144.83 3.02133 145.449 2.08266 145.961 1.656C146.516 1.22933 147.177 1.016 147.945 1.016C149.182 1.016 149.801 1.592 149.801 2.744C149.801 3.17066 149.673 3.64 149.417 4.152C149.204 4.664 148.969 5.24 148.713 5.88C147.945 7.75733 147.092 9.86933 146.153 12.216C145.257 14.5627 144.34 17.016 143.401 19.576C142.505 22.136 141.652 24.6747 140.841 27.192C140.03 29.7093 139.326 32.0347 138.729 34.168C140.564 32.888 142.718 31.608 145.193 30.328C147.668 29.048 150.228 27.896 152.873 26.872C155.518 25.8053 158.014 24.952 160.361 24.312C162.708 23.672 164.649 23.352 166.185 23.352C166.996 23.352 167.614 23.608 168.041 24.12C168.51 24.5893 168.745 25.1227 168.745 25.72C168.745 26.1893 168.596 26.6587 168.297 27.128C168.041 27.5547 167.486 27.9387 166.633 28.28C163.817 29.2613 161.022 30.264 158.249 31.288C155.476 32.2693 152.574 33.336 149.545 34.488C146.558 35.5973 143.294 36.92 139.753 38.456C140.862 40.3333 142.164 42.36 143.657 44.536C145.15 46.6693 146.75 48.696 148.457 50.616C150.164 52.4933 151.913 54.0507 153.705 55.288C155.497 56.4827 157.289 57.08 159.081 57.08C161.428 57.08 163.689 56.5893 165.865 55.608C168.041 54.6267 170.046 53.432 171.881 52.024C173.758 50.616 175.401 49.2507 176.809 47.928C178.217 46.5627 179.326 45.496 180.137 44.728C180.564 44.344 180.948 44.088 181.289 43.96C181.673 43.7893 182.014 43.704 182.313 43.704C182.91 43.704 183.316 44.024 183.529 44.664C183.785 45.2613 183.572 45.9227 182.889 46.648C182.377 47.2453 181.588 48.1627 180.521 49.4C179.454 50.6373 178.153 52.0027 176.617 53.496C175.124 54.9467 173.46 56.3547 171.625 57.72C169.833 59.0853 167.892 60.1947 165.801 61.048C163.753 61.944 161.662 62.392 159.529 62.392ZM205.121 31.416C205.121 32.7813 204.694 34.1253 203.841 35.448C202.987 36.728 201.857 37.9653 200.449 39.16C199.041 40.312 197.483 41.4 195.777 42.424C194.07 43.448 192.363 44.344 190.657 45.112C188.95 45.88 187.393 46.4987 185.985 46.968C185.643 48.632 185.473 50.104 185.473 51.384C185.473 52.1947 185.665 52.7707 186.049 53.112C186.433 53.4533 187.03 53.624 187.841 53.624C189.633 53.624 191.531 53.304 193.537 52.664C195.542 52.024 197.59 51.192 199.681 50.168C201.771 49.144 203.777 48.056 205.697 46.904C207.617 45.752 209.366 44.664 210.944 43.64C212.566 42.616 213.91 41.784 214.977 41.144C216.043 40.504 216.747 40.184 217.089 40.184C217.601 40.184 217.985 40.3547 218.241 40.696C218.539 40.9947 218.689 41.3573 218.689 41.784C218.689 42.1253 218.155 42.7867 217.089 43.768C216.065 44.7493 214.678 45.9013 212.929 47.224C211.179 48.504 209.217 49.8267 207.041 51.192C204.865 52.5573 202.603 53.8373 200.257 55.032C197.953 56.2267 195.713 57.1867 193.537 57.912C191.403 58.6373 189.483 59 187.777 59C185.558 59 183.83 58.168 182.593 56.504C181.355 54.84 180.737 52.2587 180.737 48.76C180.737 46.4133 181.035 44.0453 181.633 41.656C182.273 39.2667 183.126 36.984 184.193 34.808C185.302 32.5893 186.518 30.6267 187.841 28.92C189.206 27.1707 190.635 25.8053 192.128 24.824C193.622 23.8 195.073 23.288 196.481 23.288C199.169 23.288 201.281 24.0347 202.817 25.528C204.353 27.0213 205.121 28.984 205.121 31.416ZM187.329 42.04C188.651 41.2293 190.017 40.376 191.425 39.48C192.833 38.584 194.134 37.6667 195.329 36.728C196.523 35.7893 197.483 34.808 198.209 33.784C198.977 32.7173 199.361 31.6293 199.361 30.52C199.361 28.9413 198.507 28.152 196.801 28.152C195.734 28.152 194.603 28.8347 193.409 30.2C192.257 31.5227 191.147 33.2507 190.081 35.384C189.014 37.5173 188.097 39.736 187.329 42.04ZM226.198 61.56C222.913 61.56 220.331 60.4933 218.454 58.36C216.619 56.184 215.702 53.1547 215.702 49.272C215.702 46.8827 216.022 44.088 216.662 40.888C217.345 37.6453 218.198 34.232 219.222 30.648C220.289 27.0213 221.441 23.4373 222.678 19.896C223.915 16.3547 225.11 13.0693 226.262 10.04C227.457 6.968 228.502 4.408 229.398 2.36C229.91 1.208 230.635 0.631996 231.574 0.631996C232.854 0.631996 233.494 1.42133 233.494 3C233.494 3.512 233.259 4.55733 232.79 6.136C232.321 7.71466 231.702 9.67733 230.934 12.024C230.166 14.328 229.334 16.888 228.438 19.704C227.542 22.52 226.625 25.4213 225.686 28.408C224.79 31.352 223.958 34.2747 223.19 37.176C222.422 40.0347 221.803 42.7227 221.334 45.24C220.865 47.7573 220.63 49.912 220.63 51.704C220.63 52.856 220.929 53.7733 221.526 54.456C222.166 55.096 223.019 55.416 224.086 55.416C226.049 55.416 228.011 55.032 229.974 54.264C231.979 53.4533 233.899 52.472 235.734 51.32C237.569 50.1253 239.233 48.952 240.726 47.8C242.262 46.6053 243.563 45.624 244.63 44.856C245.697 44.0453 246.443 43.64 246.87 43.64C247.809 43.64 248.278 44.152 248.278 45.176C248.278 45.5173 247.937 46.1573 247.254 47.096C246.571 47.992 245.654 49.0587 244.502 50.296C243.35 51.5333 242.006 52.8133 240.47 54.136C238.977 55.416 237.398 56.632 235.734 57.784C234.113 58.8933 232.47 59.7893 230.806 60.472C229.185 61.1973 227.649 61.56 226.198 61.56ZM255.823 61.56C252.538 61.56 249.956 60.4933 248.079 58.36C246.244 56.184 245.327 53.1547 245.327 49.272C245.327 46.8827 245.647 44.088 246.287 40.888C246.97 37.6453 247.823 34.232 248.847 30.648C249.914 27.0213 251.066 23.4373 252.303 19.896C253.54 16.3547 254.735 13.0693 255.887 10.04C257.082 6.968 258.127 4.408 259.023 2.36C259.535 1.208 260.26 0.631996 261.199 0.631996C262.479 0.631996 263.119 1.42133 263.119 3C263.119 3.512 262.884 4.55733 262.415 6.136C261.946 7.71466 261.327 9.67733 260.559 12.024C259.791 14.328 258.959 16.888 258.063 19.704C257.167 22.52 256.25 25.4213 255.311 28.408C254.415 31.352 253.583 34.2747 252.815 37.176C252.047 40.0347 251.428 42.7227 250.959 45.24C250.49 47.7573 250.255 49.912 250.255 51.704C250.255 52.856 250.554 53.7733 251.151 54.456C251.791 55.096 252.644 55.416 253.711 55.416C255.674 55.416 257.636 55.032 259.599 54.264C261.604 53.4533 263.524 52.472 265.359 51.32C267.194 50.1253 268.858 48.952 270.351 47.8C271.887 46.6053 273.188 45.624 274.255 44.856C275.322 44.0453 276.068 43.64 276.495 43.64C277.434 43.64 277.903 44.152 277.903 45.176C277.903 45.5173 277.562 46.1573 276.879 47.096C276.196 47.992 275.279 49.0587 274.127 50.296C272.975 51.5333 271.631 52.8133 270.095 54.136C268.602 55.416 267.023 56.632 265.359 57.784C263.738 58.8933 262.095 59.7893 260.431 60.472C258.81 61.1973 257.274 61.56 255.823 61.56ZM282.704 75.448C280.57 75.448 278.608 75.2987 276.816 75C275.066 74.744 273.338 74.3173 271.632 73.72C269.925 73.1653 268.069 72.44 266.063 71.544C265.466 71.2453 264.933 70.8827 264.464 70.456C263.994 70.072 263.759 69.624 263.759 69.112C263.759 68.472 264.165 67.7893 264.975 67.064C265.743 66.3813 266.469 66.04 267.151 66.04C267.877 66.04 268.773 66.296 269.84 66.808C270.949 67.32 272.229 67.9173 273.68 68.6C275.13 69.3253 276.73 69.944 278.48 70.456C280.272 70.968 282.192 71.224 284.24 71.224C286.458 71.224 288.549 70.3067 290.512 68.472C292.474 66.6373 294.074 63.992 295.312 60.536C296.549 57.1227 297.168 53.0053 297.168 48.184C297.168 46.7333 297.125 45.1333 297.04 43.384C296.997 41.592 296.912 39.7147 296.784 37.752C295.76 39.9707 294.608 42.168 293.328 44.344C292.09 46.52 290.789 48.4827 289.424 50.232C288.101 51.9813 286.714 53.3893 285.264 54.456C283.856 55.48 282.426 55.992 280.976 55.992C279.141 55.992 277.818 55.5227 277.008 54.584C276.197 53.6453 275.792 52.1947 275.792 50.232C275.792 48.184 275.941 45.9653 276.24 43.576C276.538 41.1867 276.922 38.776 277.392 36.344C277.904 33.8693 278.501 31.5227 279.184 29.304C279.866 27.0853 280.592 25.1653 281.36 23.544C281.786 22.6907 282.426 22.264 283.28 22.264C283.877 22.264 284.453 22.584 285.008 23.224C285.605 23.8213 285.904 24.6107 285.904 25.592C285.904 26.36 285.733 27.448 285.392 28.856C285.05 30.264 284.624 31.864 284.112 33.656C283.6 35.448 283.088 37.3253 282.576 39.288C282.064 41.208 281.637 43.1067 281.296 44.984C280.954 46.8187 280.784 48.504 280.784 50.04C280.784 50.68 281.21 51 282.064 51C282.533 51 283.194 50.5733 284.048 49.72C284.944 48.824 285.925 47.672 286.992 46.264C288.101 44.8133 289.21 43.2347 290.32 41.528C291.472 39.7787 292.581 38.0507 293.648 36.344C294.714 34.5947 295.632 32.9947 296.4 31.544C296.357 31.2027 296.336 30.8827 296.336 30.584C296.336 30.2853 296.336 30.008 296.336 29.752C296.336 27.6613 296.549 26.36 296.976 25.848C297.445 25.2933 298.042 25.016 298.768 25.016C300.005 25.016 300.88 25.2933 301.392 25.848C301.904 26.4027 302.16 27.3627 302.16 28.728C302.16 29.24 302.096 29.7947 301.968 30.392C301.84 30.9467 301.626 31.7573 301.328 32.824C301.669 36.1947 301.946 39.224 302.16 41.912C302.416 44.6 302.544 47.3093 302.544 50.04C302.544 55.2027 301.712 59.6827 300.048 63.48C298.426 67.2773 296.122 70.2213 293.136 72.312C290.192 74.4027 286.714 75.448 282.704 75.448ZM375.252 49.528C375.721 49.528 376.169 49.72 376.596 50.104C377.023 50.488 377.236 51.1067 377.236 51.96C377.236 52.6427 376.724 53.4533 375.7 54.392C374.676 55.288 373.353 56.1627 371.732 57.016C370.153 57.8693 368.447 58.5733 366.612 59.128C364.777 59.7253 363.049 60.024 361.428 60.024C359.124 60.024 356.948 59.4267 354.9 58.232C352.895 57.0373 351.252 55.3093 349.972 53.048C348.692 50.744 348.052 47.9493 348.052 44.664C348.052 41.7627 348.585 38.8613 349.652 35.96C350.719 33.0587 352.127 30.264 353.876 27.576C355.668 24.888 357.631 22.392 359.764 20.088C361.94 17.784 364.116 15.7787 366.292 14.072C368.468 12.3653 370.495 11.0427 372.372 10.104C374.292 9.12266 375.871 8.632 377.108 8.632C377.961 8.632 378.644 8.952 379.156 9.592C379.711 10.1893 379.988 10.8507 379.988 11.576C379.988 12.0027 379.86 12.4293 379.604 12.856C379.391 13.2827 379.007 13.624 378.452 13.88C375.679 15.2453 372.863 16.9947 370.004 19.128C367.145 21.2613 364.5 23.6933 362.068 26.424C359.636 29.112 357.673 32.0347 356.18 35.192C354.687 38.3067 353.94 41.592 353.94 45.048C353.94 48.0347 354.644 50.3173 356.052 51.896C357.46 53.432 359.38 54.2 361.812 54.2C363.092 54.2 364.415 53.9653 365.78 53.496C367.188 53.0267 368.511 52.4933 369.748 51.896C371.028 51.256 372.137 50.7013 373.076 50.232C374.057 49.7627 374.783 49.528 375.252 49.528ZM393.148 60.664C391.526 60.664 390.182 59.9173 389.116 58.424C388.092 56.888 387.58 54.904 387.58 52.472C387.58 50.2107 388.134 47.9707 389.244 45.752C390.396 43.5333 391.91 41.4 393.788 39.352C395.665 37.304 397.713 35.4267 399.932 33.72C402.15 31.9707 404.369 30.456 406.588 29.176C408.849 27.896 410.918 26.8933 412.796 26.168C414.673 25.4427 416.166 25.08 417.276 25.08C417.873 25.08 418.364 25.208 418.748 25.464C419.132 25.6773 419.324 26.0827 419.324 26.68C419.324 27.064 419.174 27.4267 418.876 27.768C418.918 27.768 418.961 27.768 419.004 27.768C419.942 27.768 420.412 28.3227 420.412 29.432C420.412 29.816 420.262 30.6053 419.964 31.8C419.665 32.952 419.324 34.4027 418.94 36.152C418.556 37.9013 418.214 39.8427 417.916 41.976C417.617 44.0667 417.468 46.2 417.468 48.376C417.468 50.2107 418.172 51.128 419.58 51.128C421.158 51.128 422.758 50.7653 424.38 50.04C426.001 49.3147 427.58 48.44 429.116 47.416C430.652 46.3493 432.06 45.304 433.34 44.28C434.62 43.2133 435.708 42.3173 436.604 41.592C437.5 40.8667 438.14 40.504 438.524 40.504C438.865 40.504 439.164 40.6107 439.42 40.824C439.676 41.0373 439.804 41.3787 439.804 41.848C439.804 42.2747 439.377 43.0427 438.524 44.152C437.67 45.2613 436.54 46.52 435.132 47.928C433.724 49.336 432.145 50.7013 430.396 52.024C428.646 53.3467 426.854 54.4347 425.02 55.288C423.185 56.1413 421.436 56.568 419.772 56.568C418.492 56.568 417.318 56.184 416.252 55.416C415.228 54.6053 414.396 53.24 413.756 51.32C413.158 49.4 412.86 46.7547 412.86 43.384V41.784C410.769 45.24 408.572 48.3973 406.268 51.256C404.006 54.1147 401.745 56.3973 399.484 58.104C397.265 59.8107 395.153 60.664 393.148 60.664ZM416.06 29.688C415.846 29.7733 415.548 29.9013 415.164 30.072C413.201 30.968 411.153 32.0773 409.02 33.4C406.929 34.7227 404.881 36.1947 402.876 37.816C400.913 39.4373 399.142 41.1227 397.564 42.872C395.985 44.6213 394.726 46.392 393.788 48.184C392.849 49.976 392.38 51.7253 392.38 53.432C392.38 53.9867 392.486 54.4133 392.7 54.712C392.956 55.0107 393.382 55.16 393.98 55.16C394.833 55.16 395.942 54.6267 397.308 53.56C398.673 52.4507 400.166 51 401.788 49.208C403.452 47.416 405.116 45.432 406.78 43.256C408.444 41.08 410.022 38.8827 411.516 36.664C413.052 34.4453 414.374 32.3973 415.484 30.52C415.654 30.2213 415.846 29.944 416.06 29.688ZM438.487 60.216C437.804 60.216 437.228 59.9387 436.759 59.384C436.289 58.8293 436.055 58.0613 436.055 57.08C436.055 56.3547 436.204 55.16 436.503 53.496C436.844 51.7893 437.207 49.8053 437.591 47.544C438.017 45.2827 438.38 42.936 438.679 40.504C438.977 38.0293 439.127 35.6613 439.127 33.4C439.127 32.2907 439.404 31.48 439.959 30.968C440.556 30.4133 441.217 30.136 441.943 30.136C442.625 30.136 443.137 30.5627 443.479 31.416C443.82 32.2693 443.884 33.976 443.671 36.536C445.633 32.184 447.788 28.6853 450.135 26.04C452.524 23.352 454.892 21.432 457.239 20.28C459.585 19.0853 461.697 18.488 463.575 18.488C464.812 18.488 465.708 18.744 466.263 19.256C466.86 19.7253 467.159 20.2587 467.159 20.856C467.159 21.6667 466.817 22.3067 466.135 22.776C465.495 23.2027 464.364 23.7147 462.743 24.312C460.865 25.0373 459.137 25.8907 457.559 26.872C456.023 27.8107 454.551 29.048 453.143 30.584C451.777 32.12 450.433 34.0827 449.111 36.472C447.788 38.8187 446.465 41.72 445.143 45.176C443.82 48.632 442.412 52.792 440.919 57.656C440.663 58.5947 440.321 59.256 439.895 59.64C439.511 60.024 439.041 60.216 438.487 60.216ZM487.076 26.808C488.228 24.0347 489.316 21.176 490.34 18.232C491.406 15.288 492.366 12.28 493.22 9.208C493.476 8.35466 493.86 7.672 494.372 7.16C494.926 6.60533 495.566 6.328 496.292 6.328C496.804 6.328 497.23 6.52 497.572 6.904C497.956 7.288 498.148 7.8 498.148 8.44C498.148 9.25067 497.828 10.6587 497.188 12.664C496.59 14.6693 495.822 17.208 494.884 20.28C493.988 23.352 493.07 26.8933 492.132 30.904C491.236 34.872 490.468 39.2667 489.828 44.088C489.23 48.9093 488.932 54.0507 488.932 59.512C488.932 60.7067 488.676 61.688 488.164 62.456C487.652 63.2667 487.033 63.672 486.308 63.672C485.881 63.672 485.476 63.5653 485.092 63.352C484.708 63.1387 484.366 62.6267 484.068 61.816C483.812 61.048 483.598 59.832 483.428 58.168C483.257 56.4613 483.172 54.1573 483.172 51.256C483.172 49.0373 483.3 46.6267 483.556 44.024C481.593 47.5653 479.46 50.6587 477.156 53.304C474.894 55.9067 472.697 57.912 470.564 59.32C468.473 60.728 466.681 61.432 465.188 61.432C463.353 61.432 461.86 60.8133 460.708 59.576C459.598 58.3813 459.044 56.5893 459.044 54.2C459.044 52.1093 459.534 49.9547 460.516 47.736C461.497 45.5173 462.798 43.3413 464.42 41.208C466.041 39.032 467.833 36.984 469.796 35.064C471.758 33.144 473.721 31.4587 475.684 30.008C477.689 28.5147 479.545 27.3627 481.252 26.552C482.958 25.6987 484.345 25.272 485.412 25.272C485.838 25.272 486.222 25.4213 486.564 25.72C486.905 26.0187 487.076 26.3813 487.076 26.808ZM486.244 28.792C485.945 29.0907 485.582 29.3893 485.156 29.688C484.729 29.9867 484.26 30.3067 483.748 30.648C481.87 31.9707 479.801 33.5067 477.54 35.256C475.321 36.9627 473.188 38.84 471.14 40.888C469.134 42.8933 467.492 45.0053 466.212 47.224C464.932 49.4427 464.292 51.7253 464.292 54.072C464.292 55.096 464.804 55.608 465.828 55.608C467.236 55.608 468.772 54.9467 470.436 53.624C472.142 52.2587 473.892 50.3813 475.684 47.992C477.476 45.56 479.268 42.7227 481.06 39.48C482.852 36.1947 484.58 32.632 486.244 28.792ZM511.302 59.64C508.784 59.64 506.8 58.68 505.35 56.76C503.899 54.84 503.174 52.344 503.174 49.272C503.174 48.1627 503.323 46.9893 503.622 45.752C503.963 44.472 504.39 43.32 504.902 42.296C504.603 41.9973 504.368 41.592 504.198 41.08C504.027 40.5253 503.942 39.8427 503.942 39.032C503.942 36.5147 504.368 34.2107 505.222 32.12C506.075 30.0293 507.206 28.216 508.614 26.68C510.022 25.1013 511.579 23.8853 513.286 23.032C515.035 22.1787 516.806 21.752 518.598 21.752C521.542 21.752 523.931 22.8187 525.766 24.952C527.6 27.0427 528.518 30.2427 528.518 34.552C528.518 36.8133 528.176 39.1173 527.494 41.464C526.854 43.8107 525.958 46.072 524.806 48.248C523.696 50.424 522.395 52.3653 520.902 54.072C519.451 55.7787 517.894 57.144 516.23 58.168C514.608 59.1493 512.966 59.64 511.302 59.64ZM509.126 40.12C509.382 40.4613 509.51 40.9093 509.51 41.464C509.51 42.104 509.382 42.744 509.126 43.384C508.912 44.024 508.678 44.8987 508.422 46.008C508.166 47.1173 508.038 48.696 508.038 50.744C508.038 52.792 508.848 53.816 510.47 53.816C512.262 53.816 513.926 53.112 515.462 51.704C516.998 50.2533 518.363 48.3973 519.558 46.136C520.752 43.8747 521.67 41.464 522.31 38.904C522.992 36.3013 523.334 33.848 523.334 31.544C523.334 30.0507 523.056 29.0053 522.502 28.408C521.947 27.768 520.944 27.448 519.494 27.448C518 27.448 516.443 27.96 514.822 28.984C513.243 29.9653 511.92 31.3093 510.854 33.016C509.787 34.7227 509.254 36.6427 509.254 38.776C509.254 39.2453 509.211 39.6933 509.126 40.12ZM545.793 60.408C544.854 60.408 544.129 60.1307 543.617 59.576C543.148 59.064 542.913 58.4667 542.913 57.784C542.913 57.1867 543.169 56.632 543.681 56.12C544.236 55.5653 544.982 55.0747 545.921 54.648C547.628 53.752 549.228 52.856 550.721 51.96C552.257 51.064 553.494 50.104 554.433 49.08C555.372 48.056 555.841 46.968 555.841 45.816C555.841 44.8347 555.521 44.088 554.881 43.576C554.241 43.0213 553.366 42.744 552.257 42.744C551.617 42.744 550.721 42.872 549.569 43.128C548.417 43.3413 547.158 43.5973 545.793 43.896C544.47 44.152 543.169 44.408 541.889 44.664C540.609 44.8773 539.521 44.984 538.625 44.984C537.004 44.984 535.788 44.6 534.977 43.832C534.166 43.0213 533.761 41.9333 533.761 40.568C533.761 39.8853 534.166 38.8613 534.977 37.496C535.788 36.1307 536.854 34.616 538.177 32.952C539.542 31.2453 541.036 29.5387 542.657 27.832C544.278 26.1253 545.921 24.5467 547.585 23.096C549.292 21.6453 550.87 20.472 552.321 19.576C553.814 18.68 555.052 18.232 556.033 18.232C557.014 18.232 557.761 18.552 558.273 19.192C558.785 19.832 559.041 20.6427 559.041 21.624C559.041 22.392 558.913 23.0533 558.657 23.608C558.401 24.12 557.868 24.5253 557.057 24.824C556.289 25.1227 555.094 25.2933 553.473 25.336C551.809 26.6587 550.038 28.1733 548.161 29.88C546.326 31.544 544.641 33.272 543.105 35.064C541.612 36.8133 540.524 38.4987 539.841 40.12C541.249 39.6507 542.956 39.2453 544.961 38.904C547.009 38.52 549.078 38.328 551.169 38.328C554.454 38.328 556.886 39.0747 558.465 40.568C560.086 42.0187 560.897 43.9387 560.897 46.328C560.897 47.864 560.406 49.464 559.425 51.128C558.486 52.7493 557.249 54.264 555.713 55.672C554.177 57.08 552.534 58.2107 550.785 59.064C549.036 59.96 547.372 60.408 545.793 60.408ZM576.739 59.64C574.222 59.64 572.238 58.68 570.787 56.76C569.336 54.84 568.611 52.344 568.611 49.272C568.611 48.1627 568.76 46.9893 569.059 45.752C569.4 44.472 569.827 43.32 570.339 42.296C570.04 41.9973 569.806 41.592 569.635 41.08C569.464 40.5253 569.379 39.8427 569.379 39.032C569.379 36.5147 569.806 34.2107 570.659 32.12C571.512 30.0293 572.643 28.216 574.051 26.68C575.459 25.1013 577.016 23.8853 578.723 23.032C580.472 22.1787 582.243 21.752 584.035 21.752C586.979 21.752 589.368 22.8187 591.203 24.952C593.038 27.0427 593.955 30.2427 593.955 34.552C593.955 36.8133 593.614 39.1173 592.931 41.464C592.291 43.8107 591.395 46.072 590.243 48.248C589.134 50.424 587.832 52.3653 586.339 54.072C584.888 55.7787 583.331 57.144 581.667 58.168C580.046 59.1493 578.403 59.64 576.739 59.64ZM574.563 40.12C574.819 40.4613 574.947 40.9093 574.947 41.464C574.947 42.104 574.819 42.744 574.563 43.384C574.35 44.024 574.115 44.8987 573.859 46.008C573.603 47.1173 573.475 48.696 573.475 50.744C573.475 52.792 574.286 53.816 575.907 53.816C577.699 53.816 579.363 53.112 580.899 51.704C582.435 50.2533 583.8 48.3973 584.995 46.136C586.19 43.8747 587.107 41.464 587.747 38.904C588.43 36.3013 588.771 33.848 588.771 31.544C588.771 30.0507 588.494 29.0053 587.939 28.408C587.384 27.768 586.382 27.448 584.931 27.448C583.438 27.448 581.88 27.96 580.259 28.984C578.68 29.9653 577.358 31.3093 576.291 33.016C575.224 34.7227 574.691 36.6427 574.691 38.776C574.691 39.2453 574.648 39.6933 574.563 40.12Z" fill="black"/>
</svg>
