<svg width="776" height="64" viewBox="0 0 776 64" fill="none" xmlns="http://www.w3.org/2000/svg">
<path d="M30.9466 8.5C11.1357 13.044 5.94663 24.5 2.94663 30C1.52041 32.6147 -0.0533478 37 1.94745 43.4057C2.92395 46.532 7.6833 51.4652 27.9466 57.3884C43.283 61.8713 82.2541 55.8712 104.909 57.3884C127.563 58.9056 136.961 55.8407 187.592 57.3884C238.223 58.9361 330.276 59.4393 379.932 60.4533C429.588 61.4673 434.057 62.9769 472.778 62.9997C511.5 63.0226 584.338 61.513 623.425 60.987C662.512 60.4609 665.64 60.9641 671.72 60.4685C677.8 59.973 686.737 58.4634 698.268 57.6857C723.615 55.9762 742.392 55.9017 750.28 53.8736C759.855 51.4118 764.979 47.2711 770.179 43.1998C772.408 41.4547 773.578 37.6189 774.255 32.2973C774.989 26.5256 773.591 21.8522 770.45 18.0553C761.47 7.20268 753.306 7.62548 735.06 2.54017C731.178 1.45831 729.826 1.00771 715.729 1.00008C701.633 0.992461 674.821 1.49566 649.391 3.51606C623.96 5.53646 599.545 8.50002 585.447 8.50002C565.447 8.50002 560.947 8.50002 534.447 8.50002C509.164 8.50002 462.819 8.74399 435.947 8.50002C409.074 8.25604 403.535 10.6751 358.788 9.9051C314.041 9.13506 228.947 5.5 184.447 5.5C140.078 5.5 139.648 3.54654 136.947 3.28732C123.875 2.03306 115.051 4.05737 104.909 3.28733C100.574 2.95823 84.7893 0.237733 62.8156 2.76889C43.4466 5 38.3287 6.24718 33.9466 8C31.4466 9 19.9466 12.5 12.9466 17.5" stroke="black" stroke-width="2" stroke-linecap="round"/>
</svg>
