<svg width="368" height="395" viewBox="0 0 368 395" fill="none" xmlns="http://www.w3.org/2000/svg">
<path d="M2.65049 97.0001C2.39961 88.3711 1.00101 80.8152 1.00075 75.2787C1.00067 73.5001 0.963552 72.3923 1.47292 71.5001C1.98228 70.6078 2.83417 69.5072 3.47278 69.0001C6.39213 67.7303 9.04269 65.6671 18.0949 65.4905C24.5456 65.3647 36.3442 65.5644 42.7498 65.2351C50.166 64.8538 52.7059 63.5967 65.447 63.4582C76.6683 63.3362 96.9897 63.5878 107.667 63.584C118.345 63.5802 119.349 63.3285 148.284 63.3323C177.219 63.3362 231.117 63.4658 258.973 63.3323C286.828 63.1989 283.473 63.3323 285.973 63.3323C288.952 63.3323 296.578 63.108 306.473 62.5001C314.851 61.9853 328.771 62.5002 336.973 62.5001C346.706 62.5001 363.89 62.36 365.791 68.5001C367.798 74.9823 365.72 74.3154 365.791 82.0001C365.916 95.7157 365.646 103.686 365.791 107.5C365.916 110.795 365.102 118.371 365.791 123C366.167 125.528 365.621 132.791 365.791 152.5C365.909 166.151 365.654 183.524 365.791 196.176C365.928 208.827 365.791 214.365 365.791 221.5C365.791 229 365.164 239.121 365.791 250C366.418 260.879 366.178 270.589 365.791 280C365.403 289.411 366.167 297.858 365.791 304.5C365.414 311.142 364.973 317.5 365.791 324C367.424 336.976 365.791 342.926 365.791 345.5V357.5C365.791 369.5 366.334 375.6 364.973 381.5C363.473 388 364.899 386.54 359.473 388.5C353.272 390.74 346.687 390.647 337.872 391.439C333.546 391.828 326.505 391.062 298.908 391.439C271.311 391.817 222.624 393.162 195.331 392.903C168.038 392.644 165.002 393.284 155.381 392.903C145.76 392.522 131.404 393.418 122.828 392.903C114.252 392.388 110.869 393.087 107.538 392.903C100.711 392.526 94.2213 392.903 79.9179 393.913C73.506 394.366 66.1077 392.903 60.1891 392.903C54.8967 392.903 52.9257 393.037 43.6469 392.903C34.3681 392.77 18.0607 392.266 9.90706 382.291C1.7534 372.316 1.7534 353.442 2.01188 342.578C2.27037 331.715 2.77213 328.947 3.02301 313.691C3.27389 298.434 3.27389 271.507 3.53238 256.876C3.79086 242.245 4.29263 239.98 4.54351 231.847C4.79439 223.714 4.79439 210.124 4.53591 201.384C4.27742 192.645 3.77566 188.87 3.39553 186.464C3.01541 184.058 2.76453 183.051 2.63909 170.102C2.51364 157.153 2.74269 132.989 2.3844 120.525C2.00428 107.301 2.844 103.656 2.65049 97.0001Z" stroke="black" stroke-width="2" stroke-linecap="round"/>
<path d="M124.775 60.3438C124.775 59.3265 124.775 54.9875 125.284 48.8257C125.481 46.4326 126.81 45.716 130.64 45.3229C134.47 44.9298 141.083 44.9298 144.871 45.057C148.659 45.1842 149.422 45.4385 162.532 45.5695C175.641 45.7005 201.371 43.7024 214.473 46.5001C227.575 49.2977 227.278 56.8911 227.278 62.6559" stroke="black" stroke-width="2" stroke-linecap="round"/>
<path d="M171.017 43.3884C169.737 42.109 166.161 36.4984 163.318 31.327C161.73 28.4393 158.701 26.1864 156.254 24.1286C153.533 21.8402 150.485 18.7415 145.861 13.7396C142.285 10.0326 139.68 7.17327 138.655 5.63573C138.139 4.86118 137.63 4.09819 137.106 3.31207" stroke="black" stroke-width="2" stroke-linecap="round"/>
<path d="M171.787 42.6178C174.847 36.7528 182.038 23.9052 184.882 20.1481C187.447 16.7594 188.989 12.3139 191.687 9.48931C192.843 7.95176 193.876 6.65699 194.646 5.25047C194.908 4.3526 194.908 3.08095 196.45 1.00006" stroke="black" stroke-width="2" stroke-linecap="round"/>
<path d="M152.473 54.0001H199.485" stroke="black" stroke-width="2" stroke-linecap="round"/>
<path d="M22.5431 286.469C22.5431 287.412 22.5431 288.355 22.5431 299.682C22.5431 311.009 22.5431 332.692 22.6609 344.215C22.8056 358.365 23.7287 362.631 24.325 369.648C24.597 372.848 29.4279 373.358 32.7668 374.194C33.6992 374.427 34.8987 374.315 35.9771 374.433C37.0556 374.551 37.9983 374.787 62.9952 374.79C87.9921 374.794 137.015 374.558 162.622 374.554C188.23 374.551 188.937 374.787 189.772 374.908C191.536 375.164 193.465 375.265 197.132 375.622C204.302 376.32 210.127 375.979 219.454 376.336C227.598 376.648 242.687 376.458 250.811 376.576C261.58 376.732 267.241 377.886 275.083 378.479C286.849 379.368 296.302 378.129 299.626 377.415C302.885 376.715 306.301 376.701 313.985 375.986C319.999 375.428 330.39 375.744 336.086 375.626C342.497 375.493 344.396 375.029 346.299 374.558C347.959 374.147 347.503 363.688 347.267 349.89C346.074 339.098 345.838 335.042 345.481 327.018C345.36 319.701 345.36 305.795 345.36 291.468" stroke="black" stroke-width="2" stroke-linecap="round"/>
<path d="M23.4537 287.471C28.6386 287.471 39.1351 287.87 41.6521 288.174C45.0209 288.582 50.1808 289.282 53.8235 289.883C55.6448 290.183 61.631 290.489 69.9726 290.589C74.9368 290.648 81.9479 291.093 90.4948 291.192C93.665 291.229 94.4604 291.491 104.631 291.594C114.801 291.696 134.322 291.696 148.062 292.294C161.803 292.892 168.879 291.787 173.473 292.403C179.635 293.229 182.88 293.411 188.473 293.712C193.064 293.96 200.768 293.812 205.473 293.712C213.821 293.536 218.122 295.002 223.473 294C227.553 293.236 233.044 293.501 236.473 293C239.506 292.557 238.853 293.103 242.973 292.403C250.895 291.056 258.339 291.805 261.973 291.5C263.6 291.364 270.559 291.4 273.973 291.5C277.001 291.588 277.699 290.489 289.973 291.093C300.642 291.618 320.023 289.886 330.48 289.786C341.535 289.487 343.147 289.282 344.656 289.581C345.169 289.88 345.169 290.477 345.169 291.093" stroke="black" stroke-width="2" stroke-linecap="round"/>
<path d="M53.8881 351.416C53.8881 352.376 53.6481 353.224 53.1681 353.96C52.6881 354.68 51.9921 355.248 51.0801 355.664C50.1681 356.064 49.0881 356.264 47.8401 356.264C46.6401 356.264 45.5441 356.088 44.5521 355.736C43.5761 355.368 42.7361 354.848 42.0321 354.176L43.2801 352.76C43.8881 353.336 44.5601 353.776 45.2961 354.08C46.0481 354.384 46.9041 354.536 47.8641 354.536C48.9521 354.536 49.8641 354.272 50.6001 353.744C51.3361 353.216 51.7041 352.456 51.7041 351.464C51.7041 350.904 51.6001 350.44 51.3921 350.072C51.1841 349.704 50.8161 349.376 50.2881 349.088C49.7761 348.8 49.0481 348.52 48.1041 348.248C46.3121 347.72 44.9761 347.104 44.0961 346.4C43.2161 345.68 42.7761 344.704 42.7761 343.472C42.7761 342.656 43.0001 341.92 43.4481 341.264C43.8961 340.608 44.5281 340.104 45.3441 339.752C46.1601 339.384 47.0881 339.2 48.1281 339.2C49.2161 339.2 50.1841 339.36 51.0321 339.68C51.8961 340 52.6881 340.472 53.4081 341.096L52.1601 342.44C51.0241 341.448 49.7041 340.952 48.2001 340.952C47.2401 340.952 46.4481 341.16 45.8241 341.576C45.2001 341.992 44.8881 342.6 44.8881 343.4C44.8881 343.88 45.0161 344.288 45.2721 344.624C45.5281 344.96 45.9521 345.272 46.5441 345.56C47.1361 345.848 47.9681 346.144 49.0401 346.448C50.5921 346.896 51.7841 347.48 52.6161 348.2C53.4641 348.92 53.8881 349.992 53.8881 351.416ZM62.6147 343.088C64.3587 343.088 65.6947 343.68 66.6227 344.864C67.5667 346.032 68.0387 347.632 68.0387 349.664C68.0387 351.648 67.5587 353.248 66.5987 354.464C65.6547 355.664 64.3187 356.264 62.5907 356.264C60.8467 356.264 59.5027 355.68 58.5587 354.512C57.6147 353.328 57.1427 351.72 57.1427 349.688C57.1427 347.688 57.6147 346.088 58.5587 344.888C59.5187 343.688 60.8707 343.088 62.6147 343.088ZM62.6147 344.744C61.5107 344.744 60.6867 345.152 60.1427 345.968C59.5987 346.784 59.3267 348.024 59.3267 349.688C59.3267 351.352 59.5907 352.592 60.1187 353.408C60.6627 354.208 61.4867 354.608 62.5907 354.608C63.6947 354.608 64.5107 354.208 65.0387 353.408C65.5827 352.592 65.8547 351.344 65.8547 349.664C65.8547 348 65.5827 346.768 65.0387 345.968C64.5107 345.152 63.7027 344.744 62.6147 344.744ZM77.9174 354.536C79.0214 354.536 80.1174 354.168 81.2054 353.432L82.1654 354.752C81.6374 355.216 80.9814 355.584 80.1974 355.856C79.4134 356.128 78.6534 356.264 77.9174 356.264C76.0454 356.264 74.5814 355.68 73.5254 354.512C72.4854 353.328 71.9654 351.736 71.9654 349.736C71.9654 348.472 72.1974 347.336 72.6614 346.328C73.1414 345.32 73.8294 344.528 74.7254 343.952C75.6214 343.376 76.6854 343.088 77.9174 343.088C79.5494 343.088 80.9574 343.584 82.1414 344.576L81.1574 345.896C80.0534 345.16 78.9654 344.792 77.8934 344.792C76.7574 344.792 75.8454 345.216 75.1574 346.064C74.4854 346.896 74.1494 348.12 74.1494 349.736C74.1494 351.352 74.4854 352.56 75.1574 353.36C75.8454 354.144 76.7654 354.536 77.9174 354.536ZM91.372 337.448C91.82 337.448 92.18 337.584 92.452 337.856C92.724 338.112 92.86 338.448 92.86 338.864C92.86 339.28 92.724 339.624 92.452 339.896C92.18 340.152 91.82 340.28 91.372 340.28C90.94 340.28 90.588 340.152 90.316 339.896C90.06 339.624 89.932 339.28 89.932 338.864C89.932 338.448 90.06 338.112 90.316 337.856C90.588 337.584 90.94 337.448 91.372 337.448ZM92.98 354.392H96.532V356H87.076V354.392H90.964V344.96H87.196V343.352H92.98V354.392ZM110.035 353.24C110.035 353.736 110.115 354.104 110.275 354.344C110.435 354.568 110.699 354.736 111.067 354.848L110.563 356.288C109.331 356.128 108.563 355.528 108.259 354.488C107.811 355.064 107.243 355.504 106.555 355.808C105.883 356.112 105.131 356.264 104.299 356.264C103.035 356.264 102.035 355.912 101.299 355.208C100.579 354.504 100.219 353.56 100.219 352.376C100.219 351.08 100.723 350.08 101.731 349.376C102.755 348.672 104.219 348.32 106.123 348.32H107.995V347.288C107.995 346.392 107.739 345.752 107.227 345.368C106.715 344.968 105.971 344.768 104.995 344.768C104.035 344.768 102.939 344.984 101.707 345.416L101.155 343.88C102.643 343.352 104.027 343.088 105.307 343.088C106.843 343.088 108.011 343.448 108.811 344.168C109.627 344.888 110.035 345.888 110.035 347.168V353.24ZM104.803 354.752C105.427 354.752 106.019 354.592 106.579 354.272C107.155 353.952 107.627 353.512 107.995 352.952V349.712H106.171C104.827 349.712 103.859 349.936 103.267 350.384C102.675 350.832 102.379 351.488 102.379 352.352C102.379 353.952 103.187 354.752 104.803 354.752ZM120.297 352.88C120.297 354.016 120.993 354.584 122.385 354.584C123.041 354.584 123.745 354.44 124.497 354.152L125.025 355.616C124.225 356.048 123.225 356.264 122.025 356.264C120.889 356.264 119.977 355.952 119.289 355.328C118.617 354.704 118.281 353.856 118.281 352.784V339.872H114.393V338.264H120.297V352.88ZM155.414 356H153.398L152.894 347.36C152.798 345.84 152.75 343.848 152.75 341.384L149.966 353.024H147.878L144.902 341.384C144.934 341.96 144.95 342.728 144.95 343.688C144.95 345.16 144.918 346.384 144.854 347.36L144.422 356H142.454L143.39 339.464H146.294L148.982 350.792L151.55 339.464H154.478L155.414 356ZM160.133 350.384C160.181 351.776 160.541 352.824 161.213 353.528C161.901 354.232 162.765 354.584 163.805 354.584C164.429 354.584 164.997 354.496 165.509 354.32C166.037 354.128 166.597 353.84 167.189 353.456L168.125 354.8C167.533 355.264 166.853 355.624 166.085 355.88C165.333 356.136 164.573 356.264 163.805 356.264C161.981 356.264 160.557 355.672 159.533 354.488C158.525 353.288 158.021 351.688 158.021 349.688C158.021 348.424 158.245 347.296 158.693 346.304C159.141 345.296 159.781 344.512 160.613 343.952C161.445 343.376 162.413 343.088 163.517 343.088C165.117 343.088 166.373 343.648 167.285 344.768C168.213 345.872 168.677 347.384 168.677 349.304C168.677 349.672 168.661 350.032 168.629 350.384H160.133ZM163.541 344.744C162.565 344.744 161.773 345.096 161.165 345.8C160.557 346.488 160.213 347.504 160.133 348.848H166.709C166.693 347.52 166.405 346.504 165.845 345.8C165.285 345.096 164.517 344.744 163.541 344.744ZM182.516 338.264V356H180.74L180.548 354.344C180.084 354.984 179.548 355.464 178.94 355.784C178.332 356.104 177.676 356.264 176.972 356.264C175.372 356.264 174.164 355.68 173.348 354.512C172.548 353.344 172.148 351.736 172.148 349.688C172.148 348.424 172.348 347.296 172.748 346.304C173.148 345.296 173.716 344.512 174.452 343.952C175.204 343.376 176.084 343.088 177.092 343.088C178.484 343.088 179.62 343.592 180.5 344.6V338.024L182.516 338.264ZM177.62 344.72C176.564 344.72 175.748 345.136 175.172 345.968C174.612 346.8 174.332 348.04 174.332 349.688C174.332 351.32 174.588 352.56 175.1 353.408C175.628 354.24 176.388 354.656 177.38 354.656C178.58 354.656 179.62 353.984 180.5 352.64V346.352C180.148 345.824 179.724 345.424 179.228 345.152C178.732 344.864 178.196 344.72 177.62 344.72ZM192.106 337.448C192.554 337.448 192.914 337.584 193.186 337.856C193.458 338.112 193.594 338.448 193.594 338.864C193.594 339.28 193.458 339.624 193.186 339.896C192.914 340.152 192.554 340.28 192.106 340.28C191.674 340.28 191.322 340.152 191.05 339.896C190.794 339.624 190.666 339.28 190.666 338.864C190.666 338.448 190.794 338.112 191.05 337.856C191.322 337.584 191.674 337.448 192.106 337.448ZM193.714 354.392H197.266V356H187.81V354.392H191.698V344.96H187.93V343.352H193.714V354.392ZM210.769 353.24C210.769 353.736 210.849 354.104 211.009 354.344C211.169 354.568 211.433 354.736 211.801 354.848L211.297 356.288C210.065 356.128 209.297 355.528 208.993 354.488C208.545 355.064 207.977 355.504 207.289 355.808C206.617 356.112 205.865 356.264 205.033 356.264C203.769 356.264 202.769 355.912 202.033 355.208C201.313 354.504 200.953 353.56 200.953 352.376C200.953 351.08 201.457 350.08 202.465 349.376C203.489 348.672 204.953 348.32 206.857 348.32H208.729V347.288C208.729 346.392 208.473 345.752 207.961 345.368C207.449 344.968 206.705 344.768 205.729 344.768C204.769 344.768 203.673 344.984 202.441 345.416L201.889 343.88C203.377 343.352 204.761 343.088 206.041 343.088C207.577 343.088 208.745 343.448 209.545 344.168C210.361 344.888 210.769 345.888 210.769 347.168V353.24ZM205.537 354.752C206.161 354.752 206.753 354.592 207.313 354.272C207.889 353.952 208.361 353.512 208.729 352.952V349.712H206.905C205.561 349.712 204.593 349.936 204.001 350.384C203.409 350.832 203.113 351.488 203.113 352.352C203.113 353.952 203.921 354.752 205.537 354.752ZM241.446 344.552C241.446 346.392 240.878 347.736 239.742 348.584C238.606 349.432 237.046 349.856 235.062 349.856H232.926V356H230.862V339.464H235.062C237.094 339.464 238.662 339.888 239.766 340.736C240.886 341.584 241.446 342.856 241.446 344.552ZM239.214 344.576C239.214 343.376 238.862 342.504 238.158 341.96C237.47 341.4 236.526 341.12 235.326 341.12H232.926V348.2H235.254C236.502 348.2 237.47 347.928 238.158 347.384C238.862 346.84 239.214 345.904 239.214 344.576ZM249.693 343.088C251.437 343.088 252.773 343.68 253.701 344.864C254.645 346.032 255.117 347.632 255.117 349.664C255.117 351.648 254.637 353.248 253.677 354.464C252.733 355.664 251.397 356.264 249.669 356.264C247.925 356.264 246.581 355.68 245.637 354.512C244.693 353.328 244.221 351.72 244.221 349.688C244.221 347.688 244.693 346.088 245.637 344.888C246.597 343.688 247.949 343.088 249.693 343.088ZM249.693 344.744C248.589 344.744 247.765 345.152 247.221 345.968C246.677 346.784 246.405 348.024 246.405 349.688C246.405 351.352 246.669 352.592 247.197 353.408C247.741 354.208 248.565 354.608 249.669 354.608C250.773 354.608 251.589 354.208 252.117 353.408C252.661 352.592 252.933 351.344 252.933 349.664C252.933 348 252.661 346.768 252.117 345.968C251.589 345.152 250.781 344.744 249.693 344.744ZM263.579 354.608C264.539 354.608 265.299 354.424 265.859 354.056C266.419 353.688 266.699 353.2 266.699 352.592C266.699 352.176 266.627 351.84 266.483 351.584C266.339 351.312 266.051 351.072 265.619 350.864C265.187 350.64 264.531 350.416 263.651 350.192C262.179 349.824 261.091 349.384 260.387 348.872C259.683 348.344 259.331 347.568 259.331 346.544C259.331 345.488 259.771 344.648 260.651 344.024C261.531 343.4 262.691 343.088 264.131 343.088C265.891 343.088 267.427 343.552 268.739 344.48L267.827 345.872C267.299 345.504 266.747 345.224 266.171 345.032C265.595 344.824 264.931 344.72 264.179 344.72C262.355 344.72 261.443 345.272 261.443 346.376C261.443 346.76 261.539 347.072 261.731 347.312C261.939 347.552 262.267 347.768 262.715 347.96C263.179 348.136 263.867 348.352 264.779 348.608C266.155 348.976 267.179 349.448 267.851 350.024C268.539 350.584 268.883 351.408 268.883 352.496C268.883 353.76 268.371 354.704 267.347 355.328C266.323 355.952 265.067 356.264 263.579 356.264C261.595 356.264 259.947 355.696 258.635 354.56L259.763 353.24C260.275 353.656 260.859 353.992 261.515 354.248C262.171 354.488 262.859 354.608 263.579 354.608ZM283.706 355.352C283.274 355.64 282.746 355.864 282.122 356.024C281.514 356.184 280.906 356.264 280.298 356.264C278.97 356.264 277.93 355.92 277.178 355.232C276.426 354.528 276.05 353.608 276.05 352.472V344.936H273.146V343.352H276.05V340.496L278.066 340.256V343.352H282.458L282.194 344.936H278.066V352.448C278.066 353.168 278.258 353.704 278.642 354.056C279.026 354.408 279.642 354.584 280.49 354.584C281.354 354.584 282.162 354.384 282.914 353.984L283.706 355.352Z" fill="#838983"/>
<path d="M49.5921 310.2C50.6161 310.2 51.4961 310.336 52.2321 310.608C52.9681 310.864 53.6881 311.264 54.3921 311.808L53.2161 313.176C52.2401 312.36 51.0801 311.952 49.7361 311.952C48.2481 311.952 47.0321 312.496 46.0881 313.584C45.1601 314.656 44.6961 316.368 44.6961 318.72C44.6961 321.056 45.1521 322.768 46.0641 323.856C46.9761 324.944 48.1921 325.488 49.7121 325.488C50.5441 325.488 51.2561 325.368 51.8481 325.128C52.4401 324.888 53.0081 324.552 53.5521 324.12L54.6321 325.464C53.4001 326.664 51.7521 327.264 49.6881 327.264C48.3281 327.264 47.1041 326.936 46.0161 326.28C44.9281 325.608 44.0721 324.632 43.4481 323.352C42.8241 322.072 42.5121 320.528 42.5121 318.72C42.5121 316.928 42.8241 315.392 43.4481 314.112C44.0881 312.816 44.9441 311.84 46.0161 311.184C47.1041 310.528 48.2961 310.2 49.5921 310.2ZM59.2547 322.776L57.9347 327H55.8707L61.2707 310.464H63.9107L69.2867 327H67.1267L65.8067 322.776H59.2547ZM65.2547 321.048L62.5427 312.24L59.8067 321.048H65.2547ZM82.6694 322.416C82.6694 323.376 82.4294 324.224 81.9494 324.96C81.4694 325.68 80.7734 326.248 79.8614 326.664C78.9494 327.064 77.8694 327.264 76.6214 327.264C75.4214 327.264 74.3254 327.088 73.3334 326.736C72.3574 326.368 71.5174 325.848 70.8134 325.176L72.0614 323.76C72.6694 324.336 73.3414 324.776 74.0774 325.08C74.8294 325.384 75.6854 325.536 76.6454 325.536C77.7334 325.536 78.6454 325.272 79.3814 324.744C80.1174 324.216 80.4854 323.456 80.4854 322.464C80.4854 321.904 80.3814 321.44 80.1734 321.072C79.9654 320.704 79.5974 320.376 79.0694 320.088C78.5574 319.8 77.8294 319.52 76.8854 319.248C75.0934 318.72 73.7574 318.104 72.8774 317.4C71.9974 316.68 71.5574 315.704 71.5574 314.472C71.5574 313.656 71.7814 312.92 72.2294 312.264C72.6774 311.608 73.3094 311.104 74.1254 310.752C74.9414 310.384 75.8694 310.2 76.9094 310.2C77.9974 310.2 78.9654 310.36 79.8134 310.68C80.6774 311 81.4694 311.472 82.1894 312.096L80.9414 313.44C79.8054 312.448 78.4854 311.952 76.9814 311.952C76.0214 311.952 75.2294 312.16 74.6054 312.576C73.9814 312.992 73.6694 313.6 73.6694 314.4C73.6694 314.88 73.7974 315.288 74.0534 315.624C74.3094 315.96 74.7334 316.272 75.3254 316.56C75.9174 316.848 76.7494 317.144 77.8214 317.448C79.3734 317.896 80.5654 318.48 81.3974 319.2C82.2454 319.92 82.6694 320.992 82.6694 322.416ZM88.036 322.776L86.716 327H84.652L90.052 310.464H92.692L98.068 327H95.908L94.588 322.776H88.036ZM94.036 321.048L91.324 312.24L88.588 321.048H94.036ZM126.225 318.648C126.225 321.784 125.505 323.96 124.065 325.176C122.625 326.392 120.849 327 118.737 327H114.945V310.464H118.473C120.793 310.464 122.665 311.048 124.089 312.216C125.513 313.384 126.225 315.528 126.225 318.648ZM123.993 318.648C123.993 316.856 123.745 315.488 123.249 314.544C122.769 313.584 122.169 312.952 121.449 312.648C120.729 312.328 119.905 312.168 118.977 312.168H117.033V325.32H119.001C120.425 325.32 121.609 324.832 122.553 323.856C123.513 322.864 123.993 321.128 123.993 318.648ZM140.616 318.744C140.616 321.32 140.088 323.384 139.032 324.936C137.992 326.488 136.496 327.264 134.544 327.264C132.576 327.264 131.072 326.504 130.032 324.984C128.992 323.464 128.472 321.392 128.472 318.768C128.472 317.088 128.704 315.6 129.168 314.304C129.632 313.008 130.32 312 131.232 311.28C132.144 310.56 133.248 310.2 134.544 310.2C136.496 310.2 137.992 310.976 139.032 312.528C140.088 314.064 140.616 316.136 140.616 318.744ZM138.456 318.744C138.456 316.488 138.144 314.792 137.52 313.656C136.896 312.52 135.904 311.952 134.544 311.952C133.184 311.952 132.192 312.528 131.568 313.68C130.944 314.816 130.632 316.512 130.632 318.768C130.632 321.008 130.944 322.696 131.568 323.832C132.208 324.952 133.2 325.512 134.544 325.512C135.904 325.512 136.896 324.952 137.52 323.832C138.144 322.696 138.456 321 138.456 318.744ZM164.717 310.2C165.741 310.2 166.621 310.336 167.357 310.608C168.093 310.864 168.813 311.264 169.517 311.808L168.341 313.176C167.365 312.36 166.205 311.952 164.861 311.952C163.373 311.952 162.157 312.496 161.213 313.584C160.285 314.656 159.821 316.368 159.821 318.72C159.821 321.056 160.277 322.768 161.189 323.856C162.101 324.944 163.317 325.488 164.837 325.488C165.669 325.488 166.381 325.368 166.973 325.128C167.565 324.888 168.133 324.552 168.677 324.12L169.757 325.464C168.525 326.664 166.877 327.264 164.813 327.264C163.453 327.264 162.229 326.936 161.141 326.28C160.053 325.608 159.197 324.632 158.573 323.352C157.949 322.072 157.637 320.528 157.637 318.72C157.637 316.928 157.949 315.392 158.573 314.112C159.213 312.816 160.069 311.84 161.141 311.184C162.229 310.528 163.421 310.2 164.717 310.2ZM174.38 322.776L173.06 327H170.996L176.396 310.464H179.036L184.412 327H182.252L180.932 322.776H174.38ZM180.38 321.048L177.668 312.24L174.932 321.048H180.38ZM190.306 317.976H196.786V319.656H190.306V327H188.218V310.464H197.962L197.722 312.192H190.306V317.976ZM204.385 317.76H210.529V319.464H204.385V325.32H211.921V327H202.321V310.464H211.705L211.465 312.192H204.385V317.76ZM226.336 325.2L226.096 327H215.416V325.32L224.128 312.264H216.28V310.464H226.36V312.192L217.696 325.2H226.336ZM240.006 312.144H236.334V325.344H240.006V327H230.55V325.344H234.222V312.144H230.55V310.464H240.006V312.144ZM256.149 327H254.133L253.629 318.36C253.533 316.84 253.485 314.848 253.485 312.384L250.701 324.024H248.613L245.637 312.384C245.669 312.96 245.685 313.728 245.685 314.688C245.685 316.16 245.653 317.384 245.589 318.36L245.157 327H243.189L244.125 310.464H247.029L249.717 321.792L252.285 310.464H255.213L256.149 327Z" fill="black"/>
</svg>
