<svg width="368" height="395" viewBox="0 0 368 395" fill="none" xmlns="http://www.w3.org/2000/svg">
<path d="M2.65049 97.0001C2.39961 88.3711 1.00101 80.8152 1.00075 75.2787C1.00067 73.5001 0.963552 72.3923 1.47292 71.5001C1.98228 70.6078 2.83417 69.5072 3.47278 69.0001C6.39213 67.7303 9.04269 65.6671 18.0949 65.4905C24.5456 65.3647 36.3442 65.5644 42.7498 65.2351C50.166 64.8538 52.7059 63.5967 65.447 63.4582C76.6683 63.3362 96.9897 63.5878 107.667 63.584C118.345 63.5802 119.349 63.3285 148.284 63.3323C177.219 63.3362 231.117 63.4658 258.973 63.3323C286.828 63.1989 283.473 63.3323 285.973 63.3323C288.952 63.3323 296.578 63.108 306.473 62.5001C314.851 61.9853 328.771 62.5002 336.973 62.5001C346.706 62.5001 363.89 62.36 365.791 68.5001C367.798 74.9823 365.72 74.3154 365.791 82.0001C365.916 95.7157 365.646 103.686 365.791 107.5C365.916 110.795 365.102 118.371 365.791 123C366.167 125.528 365.621 132.791 365.791 152.5C365.909 166.151 365.654 183.524 365.791 196.176C365.928 208.827 365.791 214.365 365.791 221.5C365.791 229 365.164 239.121 365.791 250C366.418 260.879 366.178 270.589 365.791 280C365.403 289.411 366.167 297.858 365.791 304.5C365.414 311.142 364.973 317.5 365.791 324C367.424 336.976 365.791 342.926 365.791 345.5V357.5C365.791 369.5 366.334 375.6 364.973 381.5C363.473 388 364.899 386.54 359.473 388.5C353.272 390.74 346.687 390.647 337.872 391.439C333.546 391.828 326.505 391.062 298.908 391.439C271.311 391.817 222.624 393.162 195.331 392.903C168.038 392.644 165.002 393.284 155.381 392.903C145.76 392.522 131.404 393.418 122.828 392.903C114.252 392.388 110.869 393.087 107.538 392.903C100.711 392.526 94.2213 392.903 79.9179 393.913C73.506 394.366 66.1077 392.903 60.1891 392.903C54.8967 392.903 52.9257 393.037 43.6469 392.903C34.3681 392.77 18.0607 392.266 9.90706 382.291C1.7534 372.316 1.7534 353.442 2.01188 342.578C2.27037 331.715 2.77213 328.947 3.02301 313.691C3.27389 298.434 3.27389 271.507 3.53238 256.876C3.79086 242.245 4.29263 239.98 4.54351 231.847C4.79439 223.714 4.79439 210.124 4.53591 201.384C4.27742 192.645 3.77566 188.87 3.39553 186.464C3.01541 184.058 2.76453 183.051 2.63909 170.102C2.51364 157.153 2.74269 132.989 2.3844 120.525C2.00428 107.301 2.844 103.656 2.65049 97.0001Z" stroke="black" stroke-width="2" stroke-linecap="round"/>
<path d="M124.775 60.3438C124.775 59.3265 124.775 54.9875 125.284 48.8257C125.481 46.4326 126.81 45.716 130.64 45.3229C134.47 44.9298 141.083 44.9298 144.871 45.057C148.659 45.1842 149.422 45.4385 162.532 45.5695C175.641 45.7005 201.371 43.7024 214.473 46.5001C227.575 49.2977 227.278 56.8911 227.278 62.6559" stroke="black" stroke-width="2" stroke-linecap="round"/>
<path d="M171.017 43.3884C169.737 42.109 166.161 36.4984 163.318 31.327C161.73 28.4393 158.701 26.1864 156.254 24.1286C153.533 21.8402 150.485 18.7415 145.861 13.7396C142.285 10.0326 139.68 7.17327 138.655 5.63573C138.139 4.86118 137.63 4.09819 137.106 3.31207" stroke="black" stroke-width="2" stroke-linecap="round"/>
<path d="M171.787 42.6178C174.847 36.7528 182.038 23.9052 184.882 20.1481C187.447 16.7594 188.989 12.3139 191.687 9.48931C192.843 7.95176 193.876 6.65699 194.646 5.25047C194.908 4.3526 194.908 3.08095 196.45 1.00006" stroke="black" stroke-width="2" stroke-linecap="round"/>
<path d="M152.473 54.0001H199.485" stroke="black" stroke-width="2" stroke-linecap="round"/>
<path d="M22.5431 286.469C22.5431 287.412 22.5431 288.355 22.5431 299.682C22.5431 311.009 22.5431 332.692 22.6609 344.215C22.8056 358.365 23.7287 362.631 24.325 369.648C24.597 372.848 29.4279 373.358 32.7668 374.194C33.6992 374.427 34.8987 374.315 35.9771 374.433C37.0556 374.551 37.9983 374.787 62.9952 374.79C87.9921 374.794 137.015 374.558 162.622 374.554C188.23 374.551 188.937 374.787 189.772 374.908C191.536 375.164 193.465 375.265 197.132 375.622C204.302 376.32 210.127 375.979 219.454 376.336C227.598 376.648 242.687 376.458 250.811 376.576C261.58 376.732 267.241 377.886 275.083 378.479C286.849 379.368 296.302 378.129 299.626 377.415C302.885 376.715 306.301 376.701 313.985 375.986C319.999 375.428 330.39 375.744 336.086 375.626C342.497 375.493 344.396 375.029 346.299 374.558C347.959 374.147 347.503 363.688 347.267 349.89C346.074 339.098 345.838 335.042 345.481 327.018C345.36 319.701 345.36 305.795 345.36 291.468" stroke="black" stroke-width="2" stroke-linecap="round"/>
<path d="M23.4537 287.471C28.6386 287.471 39.1351 287.87 41.6521 288.174C45.0209 288.582 50.1808 289.282 53.8235 289.883C55.6448 290.183 61.631 290.489 69.9726 290.589C74.9368 290.648 81.9479 291.093 90.4948 291.192C93.665 291.229 94.4604 291.491 104.631 291.594C114.801 291.696 134.322 291.696 148.062 292.294C161.803 292.892 168.879 291.787 173.473 292.403C179.635 293.229 182.88 293.411 188.473 293.712C193.064 293.96 200.768 293.812 205.473 293.712C213.821 293.536 218.122 295.002 223.473 294C227.553 293.236 233.044 293.501 236.473 293C239.506 292.557 238.853 293.103 242.973 292.403C250.895 291.056 258.339 291.805 261.973 291.5C263.6 291.364 270.559 291.4 273.973 291.5C277.001 291.588 277.699 290.489 289.973 291.093C300.642 291.618 320.023 289.886 330.48 289.786C341.535 289.487 343.147 289.282 344.656 289.581C345.169 289.88 345.169 290.477 345.169 291.093" stroke="black" stroke-width="2" stroke-linecap="round"/>
<path d="M44.8641 351.776L43.5441 356H41.4801L46.8801 339.464H49.5201L54.8961 356H52.7361L51.4161 351.776H44.8641ZM50.8641 350.048L48.1521 341.24L45.4161 350.048H50.8641ZM67.3907 338.264V356H65.6147L65.4227 354.344C64.9587 354.984 64.4227 355.464 63.8147 355.784C63.2067 356.104 62.5507 356.264 61.8467 356.264C60.2467 356.264 59.0387 355.68 58.2227 354.512C57.4227 353.344 57.0227 351.736 57.0227 349.688C57.0227 348.424 57.2227 347.296 57.6227 346.304C58.0227 345.296 58.5907 344.512 59.3267 343.952C60.0787 343.376 60.9587 343.088 61.9667 343.088C63.3587 343.088 64.4947 343.592 65.3747 344.6V338.024L67.3907 338.264ZM62.4947 344.72C61.4387 344.72 60.6227 345.136 60.0467 345.968C59.4867 346.8 59.2067 348.04 59.2067 349.688C59.2067 351.32 59.4627 352.56 59.9747 353.408C60.5027 354.24 61.2627 354.656 62.2547 354.656C63.4547 354.656 64.4947 353.984 65.3747 352.64V346.352C65.0227 345.824 64.5987 345.424 64.1027 345.152C63.6067 344.864 63.0707 344.72 62.4947 344.72ZM78.1334 356H75.8054L71.2214 343.352H73.3814L77.0294 354.176L80.6294 343.352H82.7414L78.1334 356ZM88.18 350.384C88.228 351.776 88.588 352.824 89.26 353.528C89.948 354.232 90.812 354.584 91.852 354.584C92.476 354.584 93.044 354.496 93.556 354.32C94.084 354.128 94.644 353.84 95.236 353.456L96.172 354.8C95.58 355.264 94.9 355.624 94.132 355.88C93.38 356.136 92.62 356.264 91.852 356.264C90.028 356.264 88.604 355.672 87.58 354.488C86.572 353.288 86.068 351.688 86.068 349.688C86.068 348.424 86.292 347.296 86.74 346.304C87.188 345.296 87.828 344.512 88.66 343.952C89.492 343.376 90.46 343.088 91.564 343.088C93.164 343.088 94.42 343.648 95.332 344.768C96.26 345.872 96.724 347.384 96.724 349.304C96.724 349.672 96.708 350.032 96.676 350.384H88.18ZM91.588 344.744C90.612 344.744 89.82 345.096 89.212 345.8C88.604 346.488 88.26 347.504 88.18 348.848H94.756C94.74 347.52 94.452 346.504 93.892 345.8C93.332 345.096 92.564 344.744 91.588 344.744ZM109.507 343.088C110.019 343.088 110.611 343.176 111.283 343.352L110.995 347.648H109.363V344.936H109.243C107.291 344.936 105.907 346.328 105.091 349.112V354.44H107.659V356H101.083V354.44H103.075V344.912H101.083V343.352H104.587L104.971 346.352C105.483 345.264 106.091 344.448 106.795 343.904C107.515 343.36 108.419 343.088 109.507 343.088ZM125.409 355.352C124.977 355.64 124.449 355.864 123.825 356.024C123.217 356.184 122.609 356.264 122.001 356.264C120.673 356.264 119.633 355.92 118.881 355.232C118.129 354.528 117.753 353.608 117.753 352.472V344.936H114.849V343.352H117.753V340.496L119.769 340.256V343.352H124.161L123.897 344.936H119.769V352.448C119.769 353.168 119.961 353.704 120.345 354.056C120.729 354.408 121.345 354.584 122.193 354.584C123.057 354.584 123.865 354.384 124.617 353.984L125.409 355.352ZM134.544 337.448C134.992 337.448 135.352 337.584 135.624 337.856C135.896 338.112 136.032 338.448 136.032 338.864C136.032 339.28 135.896 339.624 135.624 339.896C135.352 340.152 134.992 340.28 134.544 340.28C134.112 340.28 133.76 340.152 133.488 339.896C133.232 339.624 133.104 339.28 133.104 338.864C133.104 338.448 133.232 338.112 133.488 337.856C133.76 337.584 134.112 337.448 134.544 337.448ZM136.152 354.392H139.704V356H130.248V354.392H134.136V344.96H130.368V343.352H136.152V354.392ZM148.454 354.608C149.414 354.608 150.174 354.424 150.734 354.056C151.294 353.688 151.574 353.2 151.574 352.592C151.574 352.176 151.502 351.84 151.358 351.584C151.214 351.312 150.926 351.072 150.494 350.864C150.062 350.64 149.406 350.416 148.526 350.192C147.054 349.824 145.966 349.384 145.262 348.872C144.558 348.344 144.206 347.568 144.206 346.544C144.206 345.488 144.646 344.648 145.526 344.024C146.406 343.4 147.566 343.088 149.006 343.088C150.766 343.088 152.302 343.552 153.614 344.48L152.702 345.872C152.174 345.504 151.622 345.224 151.046 345.032C150.47 344.824 149.806 344.72 149.054 344.72C147.23 344.72 146.318 345.272 146.318 346.376C146.318 346.76 146.414 347.072 146.606 347.312C146.814 347.552 147.142 347.768 147.59 347.96C148.054 348.136 148.742 348.352 149.654 348.608C151.03 348.976 152.054 349.448 152.726 350.024C153.414 350.584 153.758 351.408 153.758 352.496C153.758 353.76 153.246 354.704 152.222 355.328C151.198 355.952 149.942 356.264 148.454 356.264C146.47 356.264 144.822 355.696 143.51 354.56L144.638 353.24C145.15 353.656 145.734 353.992 146.39 354.248C147.046 354.488 147.734 354.608 148.454 354.608ZM160.133 350.384C160.181 351.776 160.541 352.824 161.213 353.528C161.901 354.232 162.765 354.584 163.805 354.584C164.429 354.584 164.997 354.496 165.509 354.32C166.037 354.128 166.597 353.84 167.189 353.456L168.125 354.8C167.533 355.264 166.853 355.624 166.085 355.88C165.333 356.136 164.573 356.264 163.805 356.264C161.981 356.264 160.557 355.672 159.533 354.488C158.525 353.288 158.021 351.688 158.021 349.688C158.021 348.424 158.245 347.296 158.693 346.304C159.141 345.296 159.781 344.512 160.613 343.952C161.445 343.376 162.413 343.088 163.517 343.088C165.117 343.088 166.373 343.648 167.285 344.768C168.213 345.872 168.677 347.384 168.677 349.304C168.677 349.672 168.661 350.032 168.629 350.384H160.133ZM163.541 344.744C162.565 344.744 161.773 345.096 161.165 345.8C160.557 346.488 160.213 347.504 160.133 348.848H166.709C166.693 347.52 166.405 346.504 165.845 345.8C165.285 345.096 164.517 344.744 163.541 344.744ZM181.244 343.088C181.964 343.088 182.548 343.344 182.996 343.856C183.46 344.352 183.692 345.264 183.692 346.592V356H181.844V346.928C181.844 346.048 181.788 345.456 181.676 345.152C181.564 344.832 181.292 344.672 180.86 344.672C180.044 344.672 179.308 345.176 178.652 346.184V356H176.78V346.928C176.78 346.048 176.724 345.456 176.612 345.152C176.5 344.832 176.228 344.672 175.796 344.672C174.98 344.672 174.244 345.176 173.588 346.184V356H171.74V343.352H173.3L173.444 344.84C173.828 344.28 174.228 343.848 174.644 343.544C175.076 343.24 175.588 343.088 176.18 343.088C177.364 343.088 178.124 343.648 178.46 344.768C178.844 344.224 179.252 343.808 179.684 343.52C180.116 343.232 180.636 343.088 181.244 343.088ZM188.914 350.384C188.962 351.776 189.322 352.824 189.994 353.528C190.682 354.232 191.546 354.584 192.586 354.584C193.21 354.584 193.778 354.496 194.29 354.32C194.818 354.128 195.378 353.84 195.97 353.456L196.906 354.8C196.314 355.264 195.634 355.624 194.866 355.88C194.114 356.136 193.354 356.264 192.586 356.264C190.762 356.264 189.338 355.672 188.314 354.488C187.306 353.288 186.802 351.688 186.802 349.688C186.802 348.424 187.026 347.296 187.474 346.304C187.922 345.296 188.562 344.512 189.394 343.952C190.226 343.376 191.194 343.088 192.298 343.088C193.898 343.088 195.154 343.648 196.066 344.768C196.994 345.872 197.458 347.384 197.458 349.304C197.458 349.672 197.442 350.032 197.41 350.384H188.914ZM192.322 344.744C191.346 344.744 190.554 345.096 189.946 345.8C189.338 346.488 188.994 347.504 188.914 348.848H195.49C195.474 347.52 195.186 346.504 194.626 345.8C194.066 345.096 193.298 344.744 192.322 344.744ZM201.697 343.352H203.425L203.593 345.128C204.089 344.488 204.713 343.992 205.465 343.64C206.233 343.272 207.001 343.088 207.769 343.088C210.137 343.088 211.321 344.336 211.321 346.832V356H209.305V348.32C209.305 347.376 209.249 346.656 209.137 346.16C209.041 345.664 208.841 345.296 208.537 345.056C208.233 344.816 207.769 344.696 207.145 344.696C206.457 344.696 205.809 344.904 205.201 345.32C204.593 345.736 204.097 346.232 203.713 346.808V356H201.697V343.352ZM226.144 355.352C225.712 355.64 225.184 355.864 224.56 356.024C223.952 356.184 223.344 356.264 222.736 356.264C221.408 356.264 220.368 355.92 219.616 355.232C218.864 354.528 218.488 353.608 218.488 352.472V344.936H215.584V343.352H218.488V340.496L220.504 340.256V343.352H224.896L224.632 344.936H220.504V352.448C220.504 353.168 220.696 353.704 221.08 354.056C221.464 354.408 222.08 354.584 222.928 354.584C223.792 354.584 224.6 354.384 225.352 353.984L226.144 355.352ZM247.869 346.976H254.349V348.656H247.869V356H245.781V339.464H255.525L255.285 341.192H247.869V346.976ZM264.203 352.88C264.203 354.016 264.899 354.584 266.291 354.584C266.947 354.584 267.651 354.44 268.403 354.152L268.931 355.616C268.131 356.048 267.131 356.264 265.931 356.264C264.795 356.264 263.883 355.952 263.195 355.328C262.523 354.704 262.187 353.856 262.187 352.784V339.872H258.299V338.264H264.203V352.88ZM279.746 356.072C279.25 357.528 278.57 358.688 277.706 359.552C276.842 360.416 275.634 360.928 274.082 361.088L273.794 359.48C274.642 359.336 275.314 359.112 275.81 358.808C276.322 358.52 276.722 358.152 277.01 357.704C277.298 357.272 277.562 356.704 277.802 356H277.13L272.738 343.352H274.874L278.498 354.464L282.074 343.352H284.162L279.746 356.072ZM289.649 350.384C289.697 351.776 290.057 352.824 290.729 353.528C291.417 354.232 292.281 354.584 293.321 354.584C293.945 354.584 294.513 354.496 295.025 354.32C295.553 354.128 296.113 353.84 296.705 353.456L297.641 354.8C297.049 355.264 296.369 355.624 295.601 355.88C294.849 356.136 294.089 356.264 293.321 356.264C291.497 356.264 290.073 355.672 289.049 354.488C288.041 353.288 287.537 351.688 287.537 349.688C287.537 348.424 287.761 347.296 288.209 346.304C288.657 345.296 289.297 344.512 290.129 343.952C290.961 343.376 291.929 343.088 293.033 343.088C294.633 343.088 295.889 343.648 296.801 344.768C297.729 345.872 298.193 347.384 298.193 349.304C298.193 349.672 298.177 350.032 298.145 350.384H289.649ZM293.057 344.744C292.081 344.744 291.289 345.096 290.681 345.8C290.073 346.488 289.729 347.504 289.649 348.848H296.225C296.209 347.52 295.921 346.504 295.361 345.8C294.801 345.096 294.033 344.744 293.057 344.744ZM310.975 343.088C311.487 343.088 312.079 343.176 312.751 343.352L312.463 347.648H310.831V344.936H310.711C308.759 344.936 307.375 346.328 306.559 349.112V354.44H309.127V356H302.551V354.44H304.543V344.912H302.551V343.352H306.055L306.439 346.352C306.951 345.264 307.559 344.448 308.263 343.904C308.983 343.36 309.887 343.088 310.975 343.088Z" fill="#838983"/>
<path d="M46.4001 317.976H52.8801V319.656H46.4001V327H44.3121V310.464H54.0561L53.8161 312.192H46.4001V317.976ZM68.0627 321.648C68.0627 322.752 67.8307 323.736 67.3667 324.6C66.9187 325.448 66.2787 326.104 65.4467 326.568C64.6307 327.032 63.6707 327.264 62.5667 327.264C61.4467 327.264 60.4787 327.032 59.6627 326.568C58.8467 326.088 58.2147 325.424 57.7667 324.576C57.3347 323.728 57.1187 322.752 57.1187 321.648V310.464H59.2067V321.72C59.2067 322.968 59.4947 323.904 60.0707 324.528C60.6467 325.152 61.4787 325.464 62.5667 325.464C63.6547 325.464 64.4867 325.152 65.0627 324.528C65.6547 323.904 65.9507 322.968 65.9507 321.72V310.464H68.0627V321.648ZM74.8694 317.76H81.0134V319.464H74.8694V325.32H82.4054V327H72.8054V310.464H82.1894L81.9494 312.192H74.8694V317.76ZM97.06 315.12C97.06 316.304 96.692 317.288 95.956 318.072C95.22 318.84 94.244 319.376 93.028 319.68L97.948 327H95.452L90.916 319.92H88.684V327H86.62V310.464H90.844C92.892 310.464 94.436 310.856 95.476 311.64C96.532 312.424 97.06 313.584 97.06 315.12ZM94.852 315.12C94.852 314.064 94.548 313.304 93.94 312.84C93.332 312.376 92.38 312.144 91.084 312.144H88.684V318.288H91.108C92.34 318.288 93.268 318.04 93.892 317.544C94.532 317.032 94.852 316.224 94.852 315.12ZM106.771 327H104.683V312.264H99.5226V310.464H111.979L111.763 312.264H106.771V327ZM118.041 317.76H124.185V319.464H118.041V325.32H125.577V327H115.977V310.464H125.361L125.121 312.192H118.041V317.76Z" fill="black"/>
</svg>
