<svg width="368" height="395" viewBox="0 0 368 395" fill="none" xmlns="http://www.w3.org/2000/svg">
<path d="M2.65037 97C2.39949 88.371 1.00089 80.8152 1.00063 75.2786C1.00054 73.5 0.96343 72.3923 1.4728 71.5C1.98216 70.6077 2.83405 69.5071 3.47266 69C6.39201 67.7302 9.04257 65.6671 18.0948 65.4905C24.5455 65.3646 36.3441 65.5643 42.7497 65.235C50.1659 64.8537 52.7058 63.5967 65.4469 63.4581C76.6681 63.3361 96.9896 63.5878 107.667 63.5839C118.345 63.5801 119.348 63.3285 148.284 63.3323C177.219 63.3361 231.117 63.4657 258.973 63.3323C286.828 63.1988 283.473 63.3323 285.973 63.3323C288.952 63.3323 296.578 63.1079 306.473 62.5C314.85 61.9852 328.771 62.5001 336.973 62.5001C346.706 62.5001 363.889 62.3599 365.791 68.5C367.798 74.9822 365.72 74.3153 365.791 82C365.916 95.7156 365.645 103.686 365.791 107.5C365.916 110.794 365.102 118.371 365.791 123C366.167 125.528 365.62 132.791 365.791 152.5C365.908 166.151 365.654 183.524 365.791 196.176C365.927 208.827 365.791 214.365 365.791 221.5C365.791 229 365.163 239.121 365.791 250C366.418 260.879 366.178 270.589 365.791 280C365.403 289.411 366.167 297.858 365.791 304.5C365.414 311.142 364.973 317.5 365.791 324C367.424 336.975 365.791 342.926 365.791 345.5V357.5C365.791 369.5 366.334 375.6 364.973 381.5C363.473 388 364.899 386.54 359.473 388.5C353.272 390.74 346.687 390.647 337.872 391.439C333.546 391.828 326.505 391.062 298.908 391.439C271.311 391.817 222.624 393.162 195.331 392.903C168.038 392.644 165.001 393.284 155.38 392.903C145.76 392.522 131.404 393.418 122.828 392.903C114.252 392.388 110.869 393.087 107.538 392.903C100.711 392.525 94.2211 392.903 79.9178 393.913C73.5059 394.366 66.1076 392.903 60.189 392.903C54.8966 392.903 52.9256 393.036 43.6468 392.903C34.3679 392.77 18.0606 392.266 9.90694 382.291C1.75327 372.316 1.75327 353.442 2.01176 342.578C2.27024 331.715 2.77201 328.947 3.02289 313.69C3.27377 298.434 3.27377 271.507 3.53226 256.876C3.79074 242.245 4.2925 239.98 4.54339 231.847C4.79427 223.714 4.79427 210.124 4.53578 201.384C4.2773 192.645 3.77554 188.87 3.39541 186.464C3.01529 184.058 2.7644 183.051 2.63896 170.102C2.51352 157.153 2.74257 132.989 2.38428 120.524C2.00416 107.301 2.84388 103.656 2.65037 97Z" stroke="black" stroke-width="2" stroke-linecap="round"/>
<path d="M124.775 60.3437C124.775 59.3264 124.775 54.9874 125.284 48.8257C125.481 46.4325 126.81 45.7159 130.64 45.3228C134.47 44.9298 141.083 44.9298 144.871 45.0569C148.659 45.1841 149.422 45.4384 162.531 45.5695C175.641 45.7005 201.371 43.7024 214.473 46.5C227.575 49.2976 227.278 56.891 227.278 62.6558" stroke="black" stroke-width="2" stroke-linecap="round"/>
<path d="M171.017 43.3883C169.737 42.109 166.161 36.4983 163.317 31.3269C161.729 28.4392 158.701 26.1863 156.254 24.1286C153.533 21.8401 150.485 18.7414 145.861 13.7396C142.285 10.0325 139.68 7.17321 138.655 5.63567C138.139 4.86112 137.63 4.09812 137.106 3.31201" stroke="black" stroke-width="2" stroke-linecap="round"/>
<path d="M171.787 42.6177C174.847 36.7527 182.038 23.9052 184.882 20.148C187.447 16.7593 188.989 12.3139 191.687 9.48925C192.843 7.9517 193.876 6.65693 194.646 5.2504C194.908 4.35254 194.908 3.08089 196.45 1" stroke="black" stroke-width="2" stroke-linecap="round"/>
<path d="M152.473 54H199.485" stroke="black" stroke-width="2" stroke-linecap="round"/>
<path d="M22.543 286.469C22.543 287.412 22.543 288.354 22.543 299.682C22.543 311.009 22.543 332.692 22.6608 344.215C22.8055 358.365 23.7285 362.631 24.3249 369.648C24.5969 372.848 29.4278 373.358 32.7667 374.194C33.6991 374.427 34.8986 374.315 35.977 374.433C37.0554 374.551 37.9982 374.787 62.9951 374.79C87.9919 374.794 137.014 374.558 162.622 374.554C188.229 374.551 188.936 374.787 189.772 374.908C191.536 375.164 193.464 375.265 197.132 375.622C204.302 376.32 210.127 375.979 219.454 376.336C227.598 376.648 242.687 376.458 250.811 376.576C261.58 376.732 267.241 377.886 275.083 378.479C286.848 379.368 296.302 378.129 299.626 377.415C302.885 376.715 306.3 376.701 313.985 375.986C319.999 375.427 330.39 375.744 336.086 375.626C342.497 375.493 344.396 375.029 346.299 374.558C347.958 374.147 347.502 363.688 347.267 349.89C346.074 339.098 345.838 335.042 345.481 327.018C345.36 319.701 345.36 305.795 345.36 291.468" stroke="black" stroke-width="2" stroke-linecap="round"/>
<path d="M23.4536 287.471C28.6385 287.471 39.135 287.87 41.6519 288.174C45.0207 288.582 50.1807 289.282 53.8234 289.883C55.6447 290.183 61.6309 290.489 69.9725 290.589C74.9367 290.648 81.9478 291.093 90.4947 291.192C93.6649 291.229 94.4603 291.491 104.631 291.594C114.801 291.696 134.322 291.696 148.062 292.294C161.803 292.891 168.879 291.787 173.473 292.403C179.635 293.229 182.88 293.411 188.473 293.712C193.063 293.96 200.768 293.812 205.473 293.712C213.821 293.536 218.122 295.002 223.473 294C227.553 293.236 233.044 293.501 236.473 293C239.506 292.557 238.853 293.103 242.973 292.403C250.895 291.056 258.339 291.805 261.973 291.5C263.6 291.363 270.559 291.4 273.973 291.5C277.001 291.588 277.699 290.489 289.973 291.093C300.642 291.617 320.023 289.886 330.48 289.786C341.535 289.487 343.147 289.282 344.656 289.581C345.169 289.88 345.169 290.477 345.169 291.093" stroke="black" stroke-width="2" stroke-linecap="round"/>
<path d="M53.96 351.296C53.96 352.96 53.36 354.16 52.16 354.896C50.976 355.632 49.512 356 47.768 356H43.304V339.464H47.384C49.064 339.464 50.456 339.792 51.56 340.448C52.68 341.088 53.24 342.152 53.24 343.64C53.24 344.632 52.944 345.432 52.352 346.04C51.76 346.632 51.024 347.032 50.144 347.24C52.688 347.672 53.96 349.024 53.96 351.296ZM51.104 343.76C51.104 342.848 50.824 342.192 50.264 341.792C49.704 341.376 48.904 341.168 47.864 341.168H45.392V346.496H48.056C50.088 346.496 51.104 345.584 51.104 343.76ZM51.752 351.368C51.752 350.2 51.432 349.384 50.792 348.92C50.168 348.456 49.304 348.224 48.2 348.224H45.392V354.272H48.128C49.136 354.272 49.992 354.064 50.696 353.648C51.4 353.232 51.752 352.472 51.752 351.368ZM66.3346 343.088C66.8466 343.088 67.4386 343.176 68.1106 343.352L67.8226 347.648H66.1906V344.936H66.0706C64.1186 344.936 62.7346 346.328 61.9186 349.112V354.44H64.4866V356H57.9106V354.44H59.9026V344.912H57.9106V343.352H61.4146L61.7986 346.352C62.3106 345.264 62.9186 344.448 63.6226 343.904C64.3426 343.36 65.2466 343.088 66.3346 343.088ZM81.2533 353.24C81.2533 353.736 81.3333 354.104 81.4933 354.344C81.6533 354.568 81.9173 354.736 82.2853 354.848L81.7812 356.288C80.5493 356.128 79.7813 355.528 79.4773 354.488C79.0293 355.064 78.4613 355.504 77.7733 355.808C77.1013 356.112 76.3493 356.264 75.5173 356.264C74.2533 356.264 73.2533 355.912 72.5173 355.208C71.7973 354.504 71.4373 353.56 71.4373 352.376C71.4373 351.08 71.9413 350.08 72.9492 349.376C73.9733 348.672 75.4373 348.32 77.3413 348.32H79.2133V347.288C79.2133 346.392 78.9573 345.752 78.4453 345.368C77.9333 344.968 77.1893 344.768 76.2133 344.768C75.2533 344.768 74.1573 344.984 72.9253 345.416L72.3733 343.88C73.8613 343.352 75.2453 343.088 76.5253 343.088C78.0613 343.088 79.2293 343.448 80.0293 344.168C80.8453 344.888 81.2533 345.888 81.2533 347.168V353.24ZM76.0213 354.752C76.6453 354.752 77.2373 354.592 77.7973 354.272C78.3733 353.952 78.8453 353.512 79.2133 352.952V349.712H77.3893C76.0453 349.712 75.0773 349.936 74.4853 350.384C73.8933 350.832 73.5973 351.488 73.5973 352.352C73.5973 353.952 74.4053 354.752 76.0213 354.752ZM86.5719 343.352H88.2999L88.4679 345.128C88.9639 344.488 89.5879 343.992 90.3399 343.64C91.1079 343.272 91.8759 343.088 92.6439 343.088C95.0119 343.088 96.1959 344.336 96.1959 346.832V356H94.1799V348.32C94.1799 347.376 94.1239 346.656 94.0119 346.16C93.9159 345.664 93.7159 345.296 93.4119 345.056C93.1079 344.816 92.6439 344.696 92.0199 344.696C91.3319 344.696 90.6839 344.904 90.0759 345.32C89.4679 345.736 88.9719 346.232 88.5879 346.808V356H86.5719V343.352ZM110.562 338.264V356H108.787L108.595 354.344C108.131 354.984 107.595 355.464 106.987 355.784C106.379 356.104 105.723 356.264 105.019 356.264C103.419 356.264 102.211 355.68 101.395 354.512C100.595 353.344 100.195 351.736 100.195 349.688C100.195 348.424 100.395 347.296 100.795 346.304C101.195 345.296 101.763 344.512 102.499 343.952C103.251 343.376 104.131 343.088 105.139 343.088C106.531 343.088 107.667 343.592 108.547 344.6V338.024L110.562 338.264ZM105.667 344.72C104.611 344.72 103.795 345.136 103.219 345.968C102.659 346.8 102.379 348.04 102.379 349.688C102.379 351.32 102.635 352.56 103.147 353.408C103.675 354.24 104.435 354.656 105.427 354.656C106.627 354.656 107.667 353.984 108.547 352.64V346.352C108.195 345.824 107.771 345.424 107.275 345.152C106.779 344.864 106.243 344.72 105.667 344.72ZM139.272 341.144H135.6V354.344H139.272V356H129.816V354.344H133.488V341.144H129.816V339.464H139.272V341.144ZM153.734 338.264V356H151.958L151.766 354.344C151.302 354.984 150.766 355.464 150.158 355.784C149.55 356.104 148.894 356.264 148.19 356.264C146.59 356.264 145.382 355.68 144.566 354.512C143.766 353.344 143.366 351.736 143.366 349.688C143.366 348.424 143.566 347.296 143.966 346.304C144.366 345.296 144.934 344.512 145.67 343.952C146.422 343.376 147.302 343.088 148.31 343.088C149.702 343.088 150.838 343.592 151.718 344.6V338.024L153.734 338.264ZM148.838 344.72C147.782 344.72 146.966 345.136 146.39 345.968C145.83 346.8 145.55 348.04 145.55 349.688C145.55 351.32 145.806 352.56 146.318 353.408C146.846 354.24 147.606 354.656 148.598 354.656C149.798 354.656 150.838 353.984 151.718 352.64V346.352C151.366 345.824 150.942 345.424 150.446 345.152C149.95 344.864 149.414 344.72 148.838 344.72ZM160.133 350.384C160.181 351.776 160.541 352.824 161.213 353.528C161.901 354.232 162.765 354.584 163.805 354.584C164.429 354.584 164.997 354.496 165.509 354.32C166.037 354.128 166.597 353.84 167.189 353.456L168.125 354.8C167.533 355.264 166.853 355.624 166.085 355.88C165.333 356.136 164.573 356.264 163.805 356.264C161.981 356.264 160.557 355.672 159.533 354.488C158.525 353.288 158.021 351.688 158.021 349.688C158.021 348.424 158.245 347.296 158.693 346.304C159.141 345.296 159.781 344.512 160.613 343.952C161.445 343.376 162.413 343.088 163.517 343.088C165.117 343.088 166.373 343.648 167.285 344.768C168.213 345.872 168.677 347.384 168.677 349.304C168.677 349.672 168.661 350.032 168.629 350.384H160.133ZM163.541 344.744C162.565 344.744 161.773 345.096 161.165 345.8C160.557 346.488 160.213 347.504 160.133 348.848H166.709C166.693 347.52 166.405 346.504 165.845 345.8C165.285 345.096 164.517 344.744 163.541 344.744ZM172.916 343.352H174.644L174.812 345.128C175.308 344.488 175.932 343.992 176.684 343.64C177.452 343.272 178.22 343.088 178.988 343.088C181.356 343.088 182.54 344.336 182.54 346.832V356H180.524V348.32C180.524 347.376 180.468 346.656 180.356 346.16C180.26 345.664 180.06 345.296 179.756 345.056C179.452 344.816 178.988 344.696 178.364 344.696C177.676 344.696 177.028 344.904 176.42 345.32C175.812 345.736 175.316 346.232 174.932 346.808V356H172.916V343.352ZM197.362 355.352C196.93 355.64 196.402 355.864 195.778 356.024C195.17 356.184 194.562 356.264 193.954 356.264C192.626 356.264 191.586 355.92 190.834 355.232C190.082 354.528 189.706 353.608 189.706 352.472V344.936H186.802V343.352H189.706V340.496L191.722 340.256V343.352H196.114L195.85 344.936H191.722V352.448C191.722 353.168 191.914 353.704 192.298 354.056C192.682 354.408 193.298 354.584 194.146 354.584C195.01 354.584 195.818 354.384 196.57 353.984L197.362 355.352ZM206.497 337.448C206.945 337.448 207.305 337.584 207.577 337.856C207.849 338.112 207.985 338.448 207.985 338.864C207.985 339.28 207.849 339.624 207.577 339.896C207.305 340.152 206.945 340.28 206.497 340.28C206.065 340.28 205.713 340.152 205.441 339.896C205.185 339.624 205.057 339.28 205.057 338.864C205.057 338.448 205.185 338.112 205.441 337.856C205.713 337.584 206.065 337.448 206.497 337.448ZM208.105 354.392H211.657V356H202.201V354.392H206.089V344.96H202.321V343.352H208.105V354.392ZM226.144 355.352C225.712 355.64 225.184 355.864 224.56 356.024C223.952 356.184 223.344 356.264 222.736 356.264C221.408 356.264 220.368 355.92 219.616 355.232C218.864 354.528 218.488 353.608 218.488 352.472V344.936H215.584V343.352H218.488V340.496L220.504 340.256V343.352H224.896L224.632 344.936H220.504V352.448C220.504 353.168 220.696 353.704 221.08 354.056C221.464 354.408 222.08 354.584 222.928 354.584C223.792 354.584 224.6 354.384 225.352 353.984L226.144 355.352ZM236.574 356.072C236.078 357.528 235.398 358.688 234.534 359.552C233.67 360.416 232.462 360.928 230.91 361.088L230.622 359.48C231.47 359.336 232.142 359.112 232.638 358.808C233.15 358.52 233.55 358.152 233.838 357.704C234.126 357.272 234.39 356.704 234.63 356H233.958L229.566 343.352H231.702L235.326 354.464L238.902 343.352H240.99L236.574 356.072Z" fill="#838983"/>
<path d="M48.536 327.264C46.52 327.264 44.936 326.544 43.784 325.104C42.648 323.648 42.08 321.52 42.08 318.72C42.08 316.896 42.4 315.344 43.04 314.064C43.68 312.784 44.528 311.824 45.584 311.184C46.64 310.528 47.784 310.2 49.016 310.2C50.056 310.2 50.928 310.344 51.632 310.632C52.336 310.92 53.032 311.384 53.72 312.024L52.472 313.32C51.96 312.856 51.424 312.512 50.864 312.288C50.32 312.064 49.704 311.952 49.016 311.952C47.672 311.952 46.552 312.488 45.656 313.56C44.76 314.632 44.312 316.352 44.312 318.72C44.312 321.072 44.672 322.792 45.392 323.88C46.128 324.968 47.232 325.512 48.704 325.512C49.872 325.512 50.92 325.248 51.848 324.72V319.704H48.608L48.368 317.952H53.936V325.824C53.104 326.288 52.264 326.648 51.416 326.904C50.584 327.144 49.624 327.264 48.536 327.264ZM58.6546 310.464H60.7186V325.152H68.2786L68.0146 327H58.6546V310.464ZM83.0533 318.744C83.0533 321.32 82.5253 323.384 81.4693 324.936C80.4293 326.488 78.9333 327.264 76.9813 327.264C75.0133 327.264 73.5093 326.504 72.4693 324.984C71.4293 323.464 70.9093 321.392 70.9093 318.768C70.9093 317.088 71.1413 315.6 71.6053 314.304C72.0693 313.008 72.7573 312 73.6693 311.28C74.5813 310.56 75.6853 310.2 76.9813 310.2C78.9333 310.2 80.4293 310.976 81.4693 312.528C82.5253 314.064 83.0533 316.136 83.0533 318.744ZM80.8933 318.744C80.8933 316.488 80.5813 314.792 79.9573 313.656C79.3333 312.52 78.3413 311.952 76.9813 311.952C75.6213 311.952 74.6293 312.528 74.0053 313.68C73.3813 314.816 73.0693 316.512 73.0693 318.768C73.0693 321.008 73.3813 322.696 74.0053 323.832C74.6453 324.952 75.6373 325.512 76.9813 325.512C78.3413 325.512 79.3333 324.952 79.9573 323.832C80.5813 322.696 80.8933 321 80.8933 318.744ZM97.0599 315.12C97.0599 316.304 96.6919 317.288 95.9559 318.072C95.2199 318.84 94.2439 319.376 93.0279 319.68L97.9479 327H95.4519L90.9159 319.92H88.6839V327H86.6199V310.464H90.8439C92.8919 310.464 94.4359 310.856 95.4759 311.64C96.5319 312.424 97.0599 313.584 97.0599 315.12ZM94.8519 315.12C94.8519 314.064 94.5479 313.304 93.9399 312.84C93.3319 312.376 92.3799 312.144 91.0839 312.144H88.6839V318.288H91.1079C92.3399 318.288 93.2679 318.04 93.8919 317.544C94.5319 317.032 94.8519 316.224 94.8519 315.12ZM102.427 322.776L101.107 327H99.0425L104.443 310.464H107.083L112.459 327H110.299L108.979 322.776H102.427ZM108.427 321.048L105.715 312.24L102.979 321.048H108.427Z" fill="black"/>
</svg>
