<svg width="368" height="395" viewBox="0 0 368 395" fill="none" xmlns="http://www.w3.org/2000/svg">
<path d="M2.65049 97.0001C2.39961 88.3711 1.00101 80.8152 1.00075 75.2787C1.00067 73.5001 0.963552 72.3923 1.47292 71.5001C1.98228 70.6078 2.83417 69.5072 3.47278 69.0001C6.39213 67.7303 9.04269 65.6671 18.0949 65.4905C24.5456 65.3647 36.3442 65.5644 42.7498 65.2351C50.166 64.8538 52.7059 63.5967 65.447 63.4582C76.6683 63.3362 96.9897 63.5878 107.667 63.584C118.345 63.5802 119.349 63.3285 148.284 63.3323C177.219 63.3362 231.117 63.4658 258.973 63.3323C286.828 63.1989 283.473 63.3323 285.973 63.3323C288.952 63.3323 296.578 63.108 306.473 62.5001C314.851 61.9853 328.771 62.5002 336.973 62.5001C346.706 62.5001 363.89 62.36 365.791 68.5001C367.798 74.9823 365.72 74.3154 365.791 82.0001C365.916 95.7157 365.646 103.686 365.791 107.5C365.916 110.795 365.102 118.371 365.791 123C366.167 125.528 365.621 132.791 365.791 152.5C365.909 166.151 365.654 183.524 365.791 196.176C365.928 208.827 365.791 214.365 365.791 221.5C365.791 229 365.164 239.121 365.791 250C366.418 260.879 366.178 270.589 365.791 280C365.403 289.411 366.167 297.858 365.791 304.5C365.414 311.142 364.973 317.5 365.791 324C367.424 336.976 365.791 342.926 365.791 345.5V357.5C365.791 369.5 366.334 375.6 364.973 381.5C363.473 388 364.899 386.54 359.473 388.5C353.272 390.74 346.687 390.647 337.872 391.439C333.546 391.828 326.505 391.062 298.908 391.439C271.311 391.817 222.624 393.162 195.331 392.903C168.038 392.644 165.002 393.284 155.381 392.903C145.76 392.522 131.404 393.418 122.828 392.903C114.252 392.388 110.869 393.087 107.538 392.903C100.711 392.526 94.2213 392.903 79.9179 393.913C73.506 394.366 66.1077 392.903 60.1891 392.903C54.8967 392.903 52.9257 393.037 43.6469 392.903C34.3681 392.77 18.0607 392.266 9.90706 382.291C1.7534 372.316 1.7534 353.442 2.01188 342.578C2.27037 331.715 2.77213 328.947 3.02301 313.691C3.27389 298.434 3.27389 271.507 3.53238 256.876C3.79086 242.245 4.29263 239.98 4.54351 231.847C4.79439 223.714 4.79439 210.124 4.53591 201.384C4.27742 192.645 3.77566 188.87 3.39553 186.464C3.01541 184.058 2.76453 183.051 2.63909 170.102C2.51364 157.153 2.74269 132.989 2.3844 120.525C2.00428 107.301 2.844 103.656 2.65049 97.0001Z" stroke="black" stroke-width="2" stroke-linecap="round"/>
<path d="M124.775 60.3438C124.775 59.3265 124.775 54.9875 125.284 48.8257C125.481 46.4326 126.81 45.716 130.64 45.3229C134.47 44.9298 141.083 44.9298 144.871 45.057C148.659 45.1842 149.422 45.4385 162.532 45.5695C175.641 45.7005 201.371 43.7024 214.473 46.5001C227.575 49.2977 227.278 56.8911 227.278 62.6559" stroke="black" stroke-width="2" stroke-linecap="round"/>
<path d="M171.017 43.3884C169.737 42.109 166.161 36.4984 163.318 31.327C161.73 28.4393 158.701 26.1864 156.254 24.1286C153.533 21.8402 150.485 18.7415 145.861 13.7396C142.285 10.0326 139.68 7.17327 138.655 5.63573C138.139 4.86118 137.63 4.09819 137.106 3.31207" stroke="black" stroke-width="2" stroke-linecap="round"/>
<path d="M171.787 42.6178C174.847 36.7528 182.038 23.9052 184.882 20.1481C187.447 16.7594 188.989 12.3139 191.687 9.48931C192.843 7.95176 193.876 6.65699 194.646 5.25047C194.908 4.3526 194.908 3.08095 196.45 1.00006" stroke="black" stroke-width="2" stroke-linecap="round"/>
<path d="M152.473 54.0001H199.485" stroke="black" stroke-width="2" stroke-linecap="round"/>
<path d="M22.5431 286.469C22.5431 287.412 22.5431 288.355 22.5431 299.682C22.5431 311.009 22.5431 332.692 22.6609 344.215C22.8056 358.365 23.7287 362.631 24.325 369.648C24.597 372.848 29.4279 373.358 32.7668 374.194C33.6992 374.427 34.8987 374.315 35.9771 374.433C37.0556 374.551 37.9983 374.787 62.9952 374.79C87.9921 374.794 137.015 374.558 162.622 374.554C188.23 374.551 188.937 374.787 189.772 374.908C191.536 375.164 193.465 375.265 197.132 375.622C204.302 376.32 210.127 375.979 219.454 376.336C227.598 376.648 242.687 376.458 250.811 376.576C261.58 376.732 267.241 377.886 275.083 378.479C286.849 379.368 296.302 378.129 299.626 377.415C302.885 376.715 306.301 376.701 313.985 375.986C319.999 375.428 330.39 375.744 336.086 375.626C342.497 375.493 344.396 375.029 346.299 374.558C347.959 374.147 347.503 363.688 347.267 349.89C346.074 339.098 345.838 335.042 345.481 327.018C345.36 319.701 345.36 305.795 345.36 291.468" stroke="black" stroke-width="2" stroke-linecap="round"/>
<path d="M23.4537 287.471C28.6386 287.471 39.1351 287.87 41.6521 288.174C45.0209 288.582 50.1808 289.282 53.8235 289.883C55.6448 290.183 61.631 290.489 69.9726 290.589C74.9368 290.648 81.9479 291.093 90.4948 291.192C93.665 291.229 94.4604 291.491 104.631 291.594C114.801 291.696 134.322 291.696 148.062 292.294C161.803 292.892 168.879 291.787 173.473 292.403C179.635 293.229 182.88 293.411 188.473 293.712C193.064 293.96 200.768 293.812 205.473 293.712C213.821 293.536 218.122 295.002 223.473 294C227.553 293.236 233.044 293.501 236.473 293C239.506 292.557 238.853 293.103 242.973 292.403C250.895 291.056 258.339 291.805 261.973 291.5C263.6 291.364 270.559 291.4 273.973 291.5C277.001 291.588 277.699 290.489 289.973 291.093C300.642 291.618 320.023 289.886 330.48 289.786C341.535 289.487 343.147 289.282 344.656 289.581C345.169 289.88 345.169 290.477 345.169 291.093" stroke="black" stroke-width="2" stroke-linecap="round"/>
<path d="M46.0881 346.76H52.2321V348.464H46.0881V354.32H53.6241V356H44.0241V339.464H53.4081L53.1681 341.192H46.0881V346.76ZM66.1187 343.088C66.8387 343.088 67.4227 343.344 67.8707 343.856C68.3347 344.352 68.5667 345.264 68.5667 346.592V356H66.7187V346.928C66.7187 346.048 66.6627 345.456 66.5507 345.152C66.4387 344.832 66.1667 344.672 65.7347 344.672C64.9187 344.672 64.1827 345.176 63.5267 346.184V356H61.6547V346.928C61.6547 346.048 61.5987 345.456 61.4867 345.152C61.3747 344.832 61.1027 344.672 60.6707 344.672C59.8547 344.672 59.1187 345.176 58.4627 346.184V356H56.6147V343.352H58.1747L58.3187 344.84C58.7027 344.28 59.1027 343.848 59.5187 343.544C59.9507 343.24 60.4627 343.088 61.0547 343.088C62.2387 343.088 62.9987 343.648 63.3347 344.768C63.7187 344.224 64.1267 343.808 64.5587 343.52C64.9907 343.232 65.5107 343.088 66.1187 343.088ZM81.2534 353.24C81.2534 353.736 81.3334 354.104 81.4934 354.344C81.6534 354.568 81.9174 354.736 82.2854 354.848L81.7814 356.288C80.5494 356.128 79.7814 355.528 79.4774 354.488C79.0294 355.064 78.4614 355.504 77.7734 355.808C77.1014 356.112 76.3494 356.264 75.5174 356.264C74.2534 356.264 73.2534 355.912 72.5174 355.208C71.7974 354.504 71.4374 353.56 71.4374 352.376C71.4374 351.08 71.9414 350.08 72.9494 349.376C73.9734 348.672 75.4374 348.32 77.3414 348.32H79.2134V347.288C79.2134 346.392 78.9574 345.752 78.4454 345.368C77.9334 344.968 77.1894 344.768 76.2134 344.768C75.2534 344.768 74.1574 344.984 72.9254 345.416L72.3734 343.88C73.8614 343.352 75.2454 343.088 76.5254 343.088C78.0614 343.088 79.2294 343.448 80.0294 344.168C80.8454 344.888 81.2534 345.888 81.2534 347.168V353.24ZM76.0214 354.752C76.6454 354.752 77.2374 354.592 77.7974 354.272C78.3734 353.952 78.8454 353.512 79.2134 352.952V349.712H77.3894C76.0454 349.712 75.0774 349.936 74.4854 350.384C73.8934 350.832 73.5974 351.488 73.5974 352.352C73.5974 353.952 74.4054 354.752 76.0214 354.752ZM91.372 337.448C91.82 337.448 92.18 337.584 92.452 337.856C92.724 338.112 92.86 338.448 92.86 338.864C92.86 339.28 92.724 339.624 92.452 339.896C92.18 340.152 91.82 340.28 91.372 340.28C90.94 340.28 90.588 340.152 90.316 339.896C90.06 339.624 89.932 339.28 89.932 338.864C89.932 338.448 90.06 338.112 90.316 337.856C90.588 337.584 90.94 337.448 91.372 337.448ZM92.98 354.392H96.532V356H87.076V354.392H90.964V344.96H87.196V343.352H92.98V354.392ZM105.907 352.88C105.907 354.016 106.603 354.584 107.995 354.584C108.651 354.584 109.355 354.44 110.107 354.152L110.635 355.616C109.835 356.048 108.835 356.264 107.635 356.264C106.499 356.264 105.587 355.952 104.899 355.328C104.227 354.704 103.891 353.856 103.891 352.784V339.872H100.003V338.264H105.907V352.88ZM140.616 347.648C140.616 350.784 139.896 352.96 138.456 354.176C137.016 355.392 135.24 356 133.128 356H129.336V339.464H132.864C135.184 339.464 137.056 340.048 138.48 341.216C139.904 342.384 140.616 344.528 140.616 347.648ZM138.384 347.648C138.384 345.856 138.136 344.488 137.64 343.544C137.16 342.584 136.56 341.952 135.84 341.648C135.12 341.328 134.296 341.168 133.368 341.168H131.424V354.32H133.392C134.816 354.32 136 353.832 136.944 352.856C137.904 351.864 138.384 350.128 138.384 347.648ZM145.742 350.384C145.79 351.776 146.15 352.824 146.822 353.528C147.51 354.232 148.374 354.584 149.414 354.584C150.038 354.584 150.606 354.496 151.118 354.32C151.646 354.128 152.206 353.84 152.798 353.456L153.734 354.8C153.142 355.264 152.462 355.624 151.694 355.88C150.942 356.136 150.182 356.264 149.414 356.264C147.59 356.264 146.166 355.672 145.142 354.488C144.134 353.288 143.63 351.688 143.63 349.688C143.63 348.424 143.854 347.296 144.302 346.304C144.75 345.296 145.39 344.512 146.222 343.952C147.054 343.376 148.022 343.088 149.126 343.088C150.726 343.088 151.982 343.648 152.894 344.768C153.822 345.872 154.286 347.384 154.286 349.304C154.286 349.672 154.27 350.032 154.238 350.384H145.742ZM149.15 344.744C148.174 344.744 147.382 345.096 146.774 345.8C146.166 346.488 145.822 347.504 145.742 348.848H152.318C152.302 347.52 152.014 346.504 151.454 345.8C150.894 345.096 150.126 344.744 149.15 344.744ZM162.845 354.608C163.805 354.608 164.565 354.424 165.125 354.056C165.685 353.688 165.965 353.2 165.965 352.592C165.965 352.176 165.893 351.84 165.749 351.584C165.605 351.312 165.317 351.072 164.885 350.864C164.453 350.64 163.797 350.416 162.917 350.192C161.445 349.824 160.357 349.384 159.653 348.872C158.949 348.344 158.597 347.568 158.597 346.544C158.597 345.488 159.037 344.648 159.917 344.024C160.797 343.4 161.957 343.088 163.397 343.088C165.157 343.088 166.693 343.552 168.005 344.48L167.093 345.872C166.565 345.504 166.013 345.224 165.437 345.032C164.861 344.824 164.197 344.72 163.445 344.72C161.621 344.72 160.709 345.272 160.709 346.376C160.709 346.76 160.805 347.072 160.997 347.312C161.205 347.552 161.533 347.768 161.981 347.96C162.445 348.136 163.133 348.352 164.045 348.608C165.421 348.976 166.445 349.448 167.117 350.024C167.805 350.584 168.149 351.408 168.149 352.496C168.149 353.76 167.637 354.704 166.613 355.328C165.589 355.952 164.333 356.264 162.845 356.264C160.861 356.264 159.213 355.696 157.901 354.56L159.029 353.24C159.541 353.656 160.125 353.992 160.781 354.248C161.437 354.488 162.125 354.608 162.845 354.608ZM177.716 337.448C178.164 337.448 178.524 337.584 178.796 337.856C179.068 338.112 179.204 338.448 179.204 338.864C179.204 339.28 179.068 339.624 178.796 339.896C178.524 340.152 178.164 340.28 177.716 340.28C177.284 340.28 176.932 340.152 176.66 339.896C176.404 339.624 176.276 339.28 176.276 338.864C176.276 338.448 176.404 338.112 176.66 337.856C176.932 337.584 177.284 337.448 177.716 337.448ZM179.324 354.392H182.876V356H173.42V354.392H177.308V344.96H173.54V343.352H179.324V354.392ZM198.202 343.928C197.722 344.088 197.202 344.192 196.642 344.24C196.082 344.272 195.37 344.288 194.506 344.288C195.978 344.96 196.714 346.024 196.714 347.48C196.714 348.76 196.29 349.8 195.442 350.6C194.594 351.384 193.434 351.776 191.962 351.776C191.21 351.776 190.578 351.688 190.066 351.512C189.874 351.656 189.714 351.84 189.586 352.064C189.474 352.288 189.418 352.512 189.418 352.736C189.418 353.456 189.978 353.816 191.098 353.816H193.378C194.21 353.816 194.962 353.968 195.634 354.272C196.322 354.56 196.858 354.968 197.242 355.496C197.642 356.024 197.842 356.608 197.842 357.248C197.842 358.48 197.314 359.424 196.258 360.08C195.218 360.752 193.738 361.088 191.818 361.088C189.866 361.088 188.49 360.784 187.69 360.176C186.89 359.568 186.49 358.6 186.49 357.272H188.314C188.314 357.8 188.41 358.216 188.602 358.52C188.81 358.84 189.162 359.072 189.658 359.216C190.17 359.376 190.89 359.456 191.818 359.456C193.178 359.456 194.178 359.28 194.818 358.928C195.474 358.576 195.802 358.056 195.802 357.368C195.802 356.792 195.538 356.344 195.01 356.024C194.482 355.72 193.802 355.568 192.97 355.568H190.714C189.674 355.568 188.882 355.344 188.338 354.896C187.794 354.432 187.522 353.856 187.522 353.168C187.522 352.768 187.642 352.376 187.882 351.992C188.122 351.592 188.466 351.248 188.914 350.96C188.194 350.592 187.658 350.128 187.306 349.568C186.97 348.992 186.802 348.296 186.802 347.48C186.802 346.632 187.01 345.88 187.426 345.224C187.858 344.552 188.45 344.032 189.202 343.664C189.97 343.28 190.85 343.088 191.842 343.088C193.282 343.088 194.378 343.008 195.13 342.848C195.882 342.688 196.706 342.416 197.602 342.032L198.202 343.928ZM191.818 344.576C190.842 344.576 190.106 344.84 189.61 345.368C189.114 345.88 188.866 346.584 188.866 347.48C188.866 348.376 189.114 349.096 189.61 349.64C190.122 350.168 190.874 350.432 191.866 350.432C192.762 350.432 193.442 350.176 193.906 349.664C194.386 349.136 194.626 348.4 194.626 347.456C194.626 345.536 193.69 344.576 191.818 344.576ZM201.697 343.352H203.425L203.593 345.128C204.089 344.488 204.713 343.992 205.465 343.64C206.233 343.272 207.001 343.088 207.769 343.088C210.137 343.088 211.321 344.336 211.321 346.832V356H209.305V348.32C209.305 347.376 209.249 346.656 209.137 346.16C209.041 345.664 208.841 345.296 208.537 345.056C208.233 344.816 207.769 344.696 207.145 344.696C206.457 344.696 205.809 344.904 205.201 345.32C204.593 345.736 204.097 346.232 203.713 346.808V356H201.697V343.352Z" fill="#838983"/>
<path d="M54.2721 318.744C54.2721 321.32 53.7441 323.384 52.6881 324.936C51.6481 326.488 50.1521 327.264 48.2001 327.264C46.2321 327.264 44.7281 326.504 43.6881 324.984C42.6481 323.464 42.1281 321.392 42.1281 318.768C42.1281 317.088 42.3601 315.6 42.8241 314.304C43.2881 313.008 43.9761 312 44.8881 311.28C45.8001 310.56 46.9041 310.2 48.2001 310.2C50.1521 310.2 51.6481 310.976 52.6881 312.528C53.7441 314.064 54.2721 316.136 54.2721 318.744ZM52.1121 318.744C52.1121 316.488 51.8001 314.792 51.1761 313.656C50.5521 312.52 49.5601 311.952 48.2001 311.952C46.8401 311.952 45.8481 312.528 45.2241 313.68C44.6001 314.816 44.2881 316.512 44.2881 318.768C44.2881 321.008 44.6001 322.696 45.2241 323.832C45.8641 324.952 46.8561 325.512 48.2001 325.512C49.5601 325.512 50.5521 324.952 51.1761 323.832C51.8001 322.696 52.1121 321 52.1121 318.744ZM69.0707 327H67.0547L66.5507 318.36C66.4547 316.84 66.4067 314.848 66.4067 312.384L63.6227 324.024H61.5347L58.5587 312.384C58.5907 312.96 58.6067 313.728 58.6067 314.688C58.6067 316.16 58.5747 317.384 58.5107 318.36L58.0787 327H56.1107L57.0467 310.464H59.9507L62.6387 321.792L65.2067 310.464H68.1347L69.0707 327ZM73.6454 322.776L72.3254 327H70.2614L75.6614 310.464H78.3014L83.6774 327H81.5174L80.1974 322.776H73.6454ZM79.6454 321.048L76.9334 312.24L74.1974 321.048H79.6454ZM97.852 327H95.836L95.332 318.36C95.236 316.84 95.188 314.848 95.188 312.384L92.404 324.024H90.316L87.34 312.384C87.372 312.96 87.388 313.728 87.388 314.688C87.388 316.16 87.356 317.384 87.292 318.36L86.86 327H84.892L85.828 310.464H88.732L91.42 321.792L93.988 310.464H96.916L97.852 327ZM111.835 318.744C111.835 321.32 111.307 323.384 110.251 324.936C109.211 326.488 107.715 327.264 105.763 327.264C103.795 327.264 102.291 326.504 101.251 324.984C100.211 323.464 99.6906 321.392 99.6906 318.768C99.6906 317.088 99.9226 315.6 100.387 314.304C100.851 313.008 101.539 312 102.451 311.28C103.363 310.56 104.467 310.2 105.763 310.2C107.715 310.2 109.211 310.976 110.251 312.528C111.307 314.064 111.835 316.136 111.835 318.744ZM109.675 318.744C109.675 316.488 109.363 314.792 108.739 313.656C108.115 312.52 107.123 311.952 105.763 311.952C104.403 311.952 103.411 312.528 102.787 313.68C102.163 314.816 101.851 316.512 101.851 318.768C101.851 321.008 102.163 322.696 102.787 323.832C103.427 324.952 104.419 325.512 105.763 325.512C107.123 325.512 108.115 324.952 108.739 323.832C109.363 322.696 109.675 321 109.675 318.744ZM125.841 315.12C125.841 316.304 125.473 317.288 124.737 318.072C124.001 318.84 123.025 319.376 121.809 319.68L126.729 327H124.233L119.697 319.92H117.465V327H115.401V310.464H119.625C121.673 310.464 123.217 310.856 124.257 311.64C125.313 312.424 125.841 313.584 125.841 315.12ZM123.633 315.12C123.633 314.064 123.329 313.304 122.721 312.84C122.113 312.376 121.161 312.144 119.865 312.144H117.465V318.288H119.889C121.121 318.288 122.049 318.04 122.673 317.544C123.313 317.032 123.633 316.224 123.633 315.12ZM139.272 312.144H135.6V325.344H139.272V327H129.816V325.344H133.488V312.144H129.816V310.464H139.272V312.144ZM169.013 322.416C169.013 323.376 168.773 324.224 168.293 324.96C167.813 325.68 167.117 326.248 166.205 326.664C165.293 327.064 164.213 327.264 162.965 327.264C161.765 327.264 160.669 327.088 159.677 326.736C158.701 326.368 157.861 325.848 157.157 325.176L158.405 323.76C159.013 324.336 159.685 324.776 160.421 325.08C161.173 325.384 162.029 325.536 162.989 325.536C164.077 325.536 164.989 325.272 165.725 324.744C166.461 324.216 166.829 323.456 166.829 322.464C166.829 321.904 166.725 321.44 166.517 321.072C166.309 320.704 165.941 320.376 165.413 320.088C164.901 319.8 164.173 319.52 163.229 319.248C161.437 318.72 160.101 318.104 159.221 317.4C158.341 316.68 157.901 315.704 157.901 314.472C157.901 313.656 158.125 312.92 158.573 312.264C159.021 311.608 159.653 311.104 160.469 310.752C161.285 310.384 162.213 310.2 163.253 310.2C164.341 310.2 165.309 310.36 166.157 310.68C167.021 311 167.813 311.472 168.533 312.096L167.285 313.44C166.149 312.448 164.829 311.952 163.325 311.952C162.365 311.952 161.573 312.16 160.949 312.576C160.325 312.992 160.013 313.6 160.013 314.4C160.013 314.88 160.141 315.288 160.397 315.624C160.653 315.96 161.077 316.272 161.669 316.56C162.261 316.848 163.093 317.144 164.165 317.448C165.717 317.896 166.909 318.48 167.741 319.2C168.589 319.92 169.013 320.992 169.013 322.416ZM183.884 315.552C183.884 317.392 183.316 318.736 182.18 319.584C181.044 320.432 179.484 320.856 177.5 320.856H175.364V327H173.3V310.464H177.5C179.532 310.464 181.1 310.888 182.204 311.736C183.324 312.584 183.884 313.856 183.884 315.552ZM181.652 315.576C181.652 314.376 181.3 313.504 180.596 312.96C179.908 312.4 178.964 312.12 177.764 312.12H175.364V319.2H177.692C178.94 319.2 179.908 318.928 180.596 318.384C181.3 317.84 181.652 316.904 181.652 315.576ZM188.77 322.776L187.45 327H185.386L190.786 310.464H193.426L198.802 327H196.642L195.322 322.776H188.77ZM194.77 321.048L192.058 312.24L189.322 321.048H194.77Z" fill="black"/>
</svg>
