<svg width="368" height="395" viewBox="0 0 368 395" fill="none" xmlns="http://www.w3.org/2000/svg">
<path d="M2.65037 97C2.39949 88.371 1.00089 80.8152 1.00063 75.2786C1.00054 73.5 0.96343 72.3923 1.4728 71.5C1.98216 70.6077 2.83405 69.5071 3.47266 69C6.39201 67.7302 9.04257 65.6671 18.0948 65.4905C24.5455 65.3646 36.3441 65.5643 42.7497 65.235C50.1659 64.8537 52.7058 63.5967 65.4469 63.4581C76.6681 63.3361 96.9896 63.5878 107.667 63.5839C118.345 63.5801 119.348 63.3285 148.284 63.3323C177.219 63.3361 231.117 63.4657 258.973 63.3323C286.828 63.1988 283.473 63.3323 285.973 63.3323C288.952 63.3323 296.578 63.1079 306.473 62.5C314.85 61.9852 328.771 62.5001 336.973 62.5001C346.706 62.5001 363.889 62.3599 365.791 68.5C367.798 74.9822 365.72 74.3153 365.791 82C365.916 95.7156 365.645 103.686 365.791 107.5C365.916 110.794 365.102 118.371 365.791 123C366.167 125.528 365.62 132.791 365.791 152.5C365.908 166.151 365.654 183.524 365.791 196.176C365.927 208.827 365.791 214.365 365.791 221.5C365.791 229 365.163 239.121 365.791 250C366.418 260.879 366.178 270.589 365.791 280C365.403 289.411 366.167 297.858 365.791 304.5C365.414 311.142 364.973 317.5 365.791 324C367.424 336.975 365.791 342.926 365.791 345.5V357.5C365.791 369.5 366.334 375.6 364.973 381.5C363.473 388 364.899 386.54 359.473 388.5C353.272 390.74 346.687 390.647 337.872 391.439C333.546 391.828 326.505 391.062 298.908 391.439C271.311 391.817 222.624 393.162 195.331 392.903C168.038 392.644 165.001 393.284 155.38 392.903C145.76 392.522 131.404 393.418 122.828 392.903C114.252 392.388 110.869 393.087 107.538 392.903C100.711 392.525 94.2211 392.903 79.9178 393.913C73.5059 394.366 66.1076 392.903 60.189 392.903C54.8966 392.903 52.9256 393.036 43.6468 392.903C34.3679 392.77 18.0606 392.266 9.90694 382.291C1.75327 372.316 1.75327 353.442 2.01176 342.578C2.27024 331.715 2.77201 328.947 3.02289 313.69C3.27377 298.434 3.27377 271.507 3.53226 256.876C3.79074 242.245 4.2925 239.98 4.54339 231.847C4.79427 223.714 4.79427 210.124 4.53578 201.384C4.2773 192.645 3.77554 188.87 3.39541 186.464C3.01529 184.058 2.7644 183.051 2.63896 170.102C2.51352 157.153 2.74257 132.989 2.38428 120.524C2.00416 107.301 2.84388 103.656 2.65037 97Z" stroke="black" stroke-width="2" stroke-linecap="round"/>
<path d="M124.775 60.3437C124.775 59.3264 124.775 54.9874 125.284 48.8257C125.481 46.4325 126.81 45.7159 130.64 45.3228C134.47 44.9298 141.083 44.9298 144.871 45.0569C148.659 45.1841 149.422 45.4384 162.531 45.5695C175.641 45.7005 201.371 43.7024 214.473 46.5C227.575 49.2976 227.278 56.891 227.278 62.6558" stroke="black" stroke-width="2" stroke-linecap="round"/>
<path d="M171.017 43.3883C169.737 42.109 166.161 36.4983 163.317 31.3269C161.729 28.4392 158.701 26.1863 156.254 24.1286C153.533 21.8401 150.485 18.7414 145.861 13.7396C142.285 10.0325 139.68 7.17321 138.655 5.63567C138.139 4.86112 137.63 4.09812 137.106 3.31201" stroke="black" stroke-width="2" stroke-linecap="round"/>
<path d="M171.787 42.6177C174.847 36.7527 182.038 23.9052 184.882 20.148C187.447 16.7593 188.989 12.3139 191.687 9.48925C192.843 7.9517 193.876 6.65693 194.646 5.2504C194.908 4.35254 194.908 3.08089 196.45 1" stroke="black" stroke-width="2" stroke-linecap="round"/>
<path d="M152.473 54H199.485" stroke="black" stroke-width="2" stroke-linecap="round"/>
<path d="M22.543 286.469C22.543 287.412 22.543 288.354 22.543 299.682C22.543 311.009 22.543 332.692 22.6608 344.215C22.8055 358.365 23.7285 362.631 24.3249 369.648C24.5969 372.848 29.4278 373.358 32.7667 374.194C33.6991 374.427 34.8986 374.315 35.977 374.433C37.0554 374.551 37.9982 374.787 62.9951 374.79C87.9919 374.794 137.014 374.558 162.622 374.554C188.229 374.551 188.936 374.787 189.772 374.908C191.536 375.164 193.464 375.265 197.132 375.622C204.302 376.32 210.127 375.979 219.454 376.336C227.598 376.648 242.687 376.458 250.811 376.576C261.58 376.732 267.241 377.886 275.083 378.479C286.848 379.368 296.302 378.129 299.626 377.415C302.885 376.715 306.3 376.701 313.985 375.986C319.999 375.427 330.39 375.744 336.086 375.626C342.497 375.493 344.396 375.029 346.299 374.558C347.958 374.147 347.502 363.688 347.267 349.89C346.074 339.098 345.838 335.042 345.481 327.018C345.36 319.701 345.36 305.795 345.36 291.468" stroke="black" stroke-width="2" stroke-linecap="round"/>
<path d="M23.4536 287.471C28.6385 287.471 39.135 287.87 41.6519 288.174C45.0207 288.582 50.1807 289.282 53.8234 289.883C55.6447 290.183 61.6309 290.489 69.9725 290.589C74.9367 290.648 81.9478 291.093 90.4947 291.192C93.6649 291.229 94.4603 291.491 104.631 291.594C114.801 291.696 134.322 291.696 148.062 292.294C161.803 292.891 168.879 291.787 173.473 292.403C179.635 293.229 182.88 293.411 188.473 293.712C193.063 293.96 200.768 293.812 205.473 293.712C213.821 293.536 218.122 295.002 223.473 294C227.553 293.236 233.044 293.501 236.473 293C239.506 292.557 238.853 293.103 242.973 292.403C250.895 291.056 258.339 291.805 261.973 291.5C263.6 291.363 270.559 291.4 273.973 291.5C277.001 291.588 277.699 290.489 289.973 291.093C300.642 291.617 320.023 289.886 330.48 289.786C341.535 289.487 343.147 289.282 344.656 289.581C345.169 289.88 345.169 290.477 345.169 291.093" stroke="black" stroke-width="2" stroke-linecap="round"/>
<path d="M53.888 351.416C53.888 352.376 53.648 353.224 53.168 353.96C52.688 354.68 51.992 355.248 51.08 355.664C50.168 356.064 49.088 356.264 47.84 356.264C46.64 356.264 45.544 356.088 44.552 355.736C43.576 355.368 42.736 354.848 42.032 354.176L43.28 352.76C43.888 353.336 44.56 353.776 45.296 354.08C46.048 354.384 46.904 354.536 47.864 354.536C48.952 354.536 49.864 354.272 50.6 353.744C51.336 353.216 51.704 352.456 51.704 351.464C51.704 350.904 51.6 350.44 51.392 350.072C51.184 349.704 50.816 349.376 50.288 349.088C49.776 348.8 49.048 348.52 48.104 348.248C46.312 347.72 44.976 347.104 44.096 346.4C43.216 345.68 42.776 344.704 42.776 343.472C42.776 342.656 43 341.92 43.448 341.264C43.896 340.608 44.528 340.104 45.344 339.752C46.16 339.384 47.088 339.2 48.128 339.2C49.216 339.2 50.184 339.36 51.032 339.68C51.896 340 52.688 340.472 53.408 341.096L52.16 342.44C51.024 341.448 49.704 340.952 48.2 340.952C47.24 340.952 46.448 341.16 45.824 341.576C45.2 341.992 44.888 342.6 44.888 343.4C44.888 343.88 45.016 344.288 45.272 344.624C45.528 344.96 45.952 345.272 46.544 345.56C47.136 345.848 47.968 346.144 49.04 346.448C50.592 346.896 51.784 347.48 52.616 348.2C53.464 348.92 53.888 349.992 53.888 351.416ZM62.6146 343.088C64.3586 343.088 65.6946 343.68 66.6226 344.864C67.5666 346.032 68.0386 347.632 68.0386 349.664C68.0386 351.648 67.5586 353.248 66.5986 354.464C65.6546 355.664 64.3186 356.264 62.5906 356.264C60.8466 356.264 59.5026 355.68 58.5586 354.512C57.6146 353.328 57.1426 351.72 57.1426 349.688C57.1426 347.688 57.6146 346.088 58.5586 344.888C59.5186 343.688 60.8706 343.088 62.6146 343.088ZM62.6146 344.744C61.5106 344.744 60.6866 345.152 60.1426 345.968C59.5986 346.784 59.3266 348.024 59.3266 349.688C59.3266 351.352 59.5906 352.592 60.1186 353.408C60.6626 354.208 61.4866 354.608 62.5906 354.608C63.6946 354.608 64.5106 354.208 65.0386 353.408C65.5826 352.592 65.8546 351.344 65.8546 349.664C65.8546 348 65.5826 346.768 65.0386 345.968C64.5106 345.152 63.7026 344.744 62.6146 344.744ZM77.9173 354.536C79.0213 354.536 80.1173 354.168 81.2053 353.432L82.1653 354.752C81.6373 355.216 80.9813 355.584 80.1973 355.856C79.4133 356.128 78.6533 356.264 77.9173 356.264C76.0453 356.264 74.5813 355.68 73.5253 354.512C72.4853 353.328 71.9653 351.736 71.9653 349.736C71.9653 348.472 72.1973 347.336 72.6613 346.328C73.1413 345.32 73.8293 344.528 74.7253 343.952C75.6213 343.376 76.6853 343.088 77.9173 343.088C79.5493 343.088 80.9573 343.584 82.1413 344.576L81.1573 345.896C80.0533 345.16 78.9653 344.792 77.8933 344.792C76.7573 344.792 75.8453 345.216 75.1573 346.064C74.4853 346.896 74.1493 348.12 74.1493 349.736C74.1493 351.352 74.4853 352.56 75.1573 353.36C75.8453 354.144 76.7653 354.536 77.9173 354.536ZM91.3719 337.448C91.8199 337.448 92.1799 337.584 92.4519 337.856C92.7239 338.112 92.8599 338.448 92.8599 338.864C92.8599 339.28 92.7239 339.624 92.4519 339.896C92.1799 340.152 91.8199 340.28 91.3719 340.28C90.9399 340.28 90.5879 340.152 90.3159 339.896C90.0599 339.624 89.9319 339.28 89.9319 338.864C89.9319 338.448 90.0599 338.112 90.3159 337.856C90.5879 337.584 90.9399 337.448 91.3719 337.448ZM92.9799 354.392H96.5319V356H87.0759V354.392H90.9639V344.96H87.1959V343.352H92.9799V354.392ZM110.035 353.24C110.035 353.736 110.115 354.104 110.275 354.344C110.435 354.568 110.699 354.736 111.067 354.848L110.562 356.288C109.331 356.128 108.563 355.528 108.259 354.488C107.811 355.064 107.243 355.504 106.555 355.808C105.883 356.112 105.131 356.264 104.299 356.264C103.035 356.264 102.035 355.912 101.299 355.208C100.579 354.504 100.219 353.56 100.219 352.376C100.219 351.08 100.723 350.08 101.73 349.376C102.755 348.672 104.219 348.32 106.123 348.32H107.995V347.288C107.995 346.392 107.739 345.752 107.227 345.368C106.715 344.968 105.971 344.768 104.995 344.768C104.035 344.768 102.939 344.984 101.707 345.416L101.155 343.88C102.643 343.352 104.027 343.088 105.307 343.088C106.843 343.088 108.011 343.448 108.811 344.168C109.627 344.888 110.035 345.888 110.035 347.168V353.24ZM104.803 354.752C105.427 354.752 106.019 354.592 106.579 354.272C107.155 353.952 107.627 353.512 107.995 352.952V349.712H106.171C104.827 349.712 103.859 349.936 103.267 350.384C102.675 350.832 102.379 351.488 102.379 352.352C102.379 353.952 103.187 354.752 104.803 354.752ZM120.297 352.88C120.297 354.016 120.993 354.584 122.385 354.584C123.041 354.584 123.745 354.44 124.497 354.152L125.025 355.616C124.225 356.048 123.225 356.264 122.025 356.264C120.889 356.264 119.977 355.952 119.289 355.328C118.617 354.704 118.281 353.856 118.281 352.784V339.872H114.393V338.264H120.297V352.88ZM155.414 356H153.398L152.894 347.36C152.798 345.84 152.75 343.848 152.75 341.384L149.966 353.024H147.878L144.902 341.384C144.934 341.96 144.95 342.728 144.95 343.688C144.95 345.16 144.918 346.384 144.854 347.36L144.422 356H142.454L143.39 339.464H146.294L148.982 350.792L151.55 339.464H154.478L155.414 356ZM160.133 350.384C160.181 351.776 160.541 352.824 161.213 353.528C161.901 354.232 162.765 354.584 163.805 354.584C164.429 354.584 164.997 354.496 165.509 354.32C166.037 354.128 166.597 353.84 167.189 353.456L168.125 354.8C167.533 355.264 166.853 355.624 166.085 355.88C165.333 356.136 164.573 356.264 163.805 356.264C161.981 356.264 160.557 355.672 159.533 354.488C158.525 353.288 158.021 351.688 158.021 349.688C158.021 348.424 158.245 347.296 158.693 346.304C159.141 345.296 159.781 344.512 160.613 343.952C161.445 343.376 162.413 343.088 163.517 343.088C165.117 343.088 166.373 343.648 167.285 344.768C168.213 345.872 168.677 347.384 168.677 349.304C168.677 349.672 168.661 350.032 168.629 350.384H160.133ZM163.541 344.744C162.565 344.744 161.773 345.096 161.165 345.8C160.557 346.488 160.213 347.504 160.133 348.848H166.709C166.693 347.52 166.405 346.504 165.845 345.8C165.285 345.096 164.517 344.744 163.541 344.744ZM182.516 338.264V356H180.74L180.548 354.344C180.084 354.984 179.548 355.464 178.94 355.784C178.332 356.104 177.676 356.264 176.972 356.264C175.372 356.264 174.164 355.68 173.348 354.512C172.548 353.344 172.148 351.736 172.148 349.688C172.148 348.424 172.348 347.296 172.748 346.304C173.148 345.296 173.716 344.512 174.452 343.952C175.204 343.376 176.084 343.088 177.092 343.088C178.484 343.088 179.62 343.592 180.5 344.6V338.024L182.516 338.264ZM177.62 344.72C176.564 344.72 175.748 345.136 175.172 345.968C174.612 346.8 174.332 348.04 174.332 349.688C174.332 351.32 174.588 352.56 175.1 353.408C175.628 354.24 176.388 354.656 177.38 354.656C178.58 354.656 179.62 353.984 180.5 352.64V346.352C180.148 345.824 179.724 345.424 179.228 345.152C178.732 344.864 178.196 344.72 177.62 344.72ZM192.106 337.448C192.554 337.448 192.914 337.584 193.186 337.856C193.458 338.112 193.594 338.448 193.594 338.864C193.594 339.28 193.458 339.624 193.186 339.896C192.914 340.152 192.554 340.28 192.106 340.28C191.674 340.28 191.322 340.152 191.05 339.896C190.794 339.624 190.666 339.28 190.666 338.864C190.666 338.448 190.794 338.112 191.05 337.856C191.322 337.584 191.674 337.448 192.106 337.448ZM193.714 354.392H197.266V356H187.81V354.392H191.698V344.96H187.93V343.352H193.714V354.392ZM210.769 353.24C210.769 353.736 210.849 354.104 211.009 354.344C211.169 354.568 211.433 354.736 211.801 354.848L211.297 356.288C210.065 356.128 209.297 355.528 208.993 354.488C208.545 355.064 207.977 355.504 207.289 355.808C206.617 356.112 205.865 356.264 205.033 356.264C203.769 356.264 202.769 355.912 202.033 355.208C201.313 354.504 200.953 353.56 200.953 352.376C200.953 351.08 201.457 350.08 202.465 349.376C203.489 348.672 204.953 348.32 206.857 348.32H208.729V347.288C208.729 346.392 208.473 345.752 207.961 345.368C207.449 344.968 206.705 344.768 205.729 344.768C204.769 344.768 203.673 344.984 202.441 345.416L201.889 343.88C203.377 343.352 204.761 343.088 206.041 343.088C207.577 343.088 208.745 343.448 209.545 344.168C210.361 344.888 210.769 345.888 210.769 347.168V353.24ZM205.537 354.752C206.161 354.752 206.753 354.592 207.313 354.272C207.889 353.952 208.361 353.512 208.729 352.952V349.712H206.905C205.561 349.712 204.593 349.936 204.001 350.384C203.409 350.832 203.113 351.488 203.113 352.352C203.113 353.952 203.921 354.752 205.537 354.752ZM241.446 344.552C241.446 346.392 240.878 347.736 239.742 348.584C238.606 349.432 237.046 349.856 235.062 349.856H232.926V356H230.862V339.464H235.062C237.094 339.464 238.662 339.888 239.766 340.736C240.886 341.584 241.446 342.856 241.446 344.552ZM239.214 344.576C239.214 343.376 238.862 342.504 238.158 341.96C237.47 341.4 236.526 341.12 235.326 341.12H232.926V348.2H235.254C236.502 348.2 237.47 347.928 238.158 347.384C238.862 346.84 239.214 345.904 239.214 344.576ZM249.693 343.088C251.437 343.088 252.773 343.68 253.701 344.864C254.645 346.032 255.117 347.632 255.117 349.664C255.117 351.648 254.637 353.248 253.677 354.464C252.733 355.664 251.397 356.264 249.669 356.264C247.925 356.264 246.581 355.68 245.637 354.512C244.693 353.328 244.221 351.72 244.221 349.688C244.221 347.688 244.693 346.088 245.637 344.888C246.597 343.688 247.949 343.088 249.693 343.088ZM249.693 344.744C248.589 344.744 247.765 345.152 247.221 345.968C246.677 346.784 246.405 348.024 246.405 349.688C246.405 351.352 246.669 352.592 247.197 353.408C247.741 354.208 248.565 354.608 249.669 354.608C250.773 354.608 251.589 354.208 252.117 353.408C252.661 352.592 252.933 351.344 252.933 349.664C252.933 348 252.661 346.768 252.117 345.968C251.589 345.152 250.781 344.744 249.693 344.744ZM263.579 354.608C264.539 354.608 265.299 354.424 265.859 354.056C266.419 353.688 266.699 353.2 266.699 352.592C266.699 352.176 266.627 351.84 266.483 351.584C266.339 351.312 266.051 351.072 265.619 350.864C265.187 350.64 264.531 350.416 263.651 350.192C262.179 349.824 261.091 349.384 260.387 348.872C259.683 348.344 259.331 347.568 259.331 346.544C259.331 345.488 259.771 344.648 260.651 344.024C261.531 343.4 262.691 343.088 264.131 343.088C265.891 343.088 267.427 343.552 268.739 344.48L267.827 345.872C267.299 345.504 266.747 345.224 266.171 345.032C265.595 344.824 264.931 344.72 264.179 344.72C262.355 344.72 261.443 345.272 261.443 346.376C261.443 346.76 261.539 347.072 261.731 347.312C261.939 347.552 262.267 347.768 262.715 347.96C263.179 348.136 263.867 348.352 264.779 348.608C266.155 348.976 267.179 349.448 267.851 350.024C268.539 350.584 268.883 351.408 268.883 352.496C268.883 353.76 268.371 354.704 267.347 355.328C266.323 355.952 265.067 356.264 263.579 356.264C261.595 356.264 259.947 355.696 258.635 354.56L259.763 353.24C260.275 353.656 260.859 353.992 261.515 354.248C262.171 354.488 262.859 354.608 263.579 354.608ZM283.706 355.352C283.274 355.64 282.746 355.864 282.122 356.024C281.514 356.184 280.906 356.264 280.298 356.264C278.97 356.264 277.93 355.92 277.178 355.232C276.426 354.528 276.05 353.608 276.05 352.472V344.936H273.146V343.352H276.05V340.496L278.066 340.256V343.352H282.458L282.194 344.936H278.066V352.448C278.066 353.168 278.258 353.704 278.642 354.056C279.026 354.408 279.642 354.584 280.49 354.584C281.354 354.584 282.162 354.384 282.914 353.984L283.706 355.352Z" fill="#838983"/>
<path d="M54.368 315.552C54.368 317.392 53.8 318.736 52.664 319.584C51.528 320.432 49.968 320.856 47.984 320.856H45.848V327H43.784V310.464H47.984C50.016 310.464 51.584 310.888 52.688 311.736C53.808 312.584 54.368 313.856 54.368 315.552ZM52.136 315.576C52.136 314.376 51.784 313.504 51.08 312.96C50.392 312.4 49.448 312.12 48.248 312.12H45.848V319.2H48.176C49.424 319.2 50.392 318.928 51.08 318.384C51.784 317.84 52.136 316.904 52.136 315.576ZM68.2786 315.12C68.2786 316.304 67.9106 317.288 67.1746 318.072C66.4386 318.84 65.4626 319.376 64.2466 319.68L69.1666 327H66.6706L62.1346 319.92H59.9026V327H57.8386V310.464H62.0626C64.1106 310.464 65.6546 310.856 66.6946 311.64C67.7506 312.424 68.2786 313.584 68.2786 315.12ZM66.0706 315.12C66.0706 314.064 65.7666 313.304 65.1586 312.84C64.5506 312.376 63.5986 312.144 62.3026 312.144H59.9026V318.288H62.3266C63.5586 318.288 64.4866 318.04 65.1106 317.544C65.7506 317.032 66.0706 316.224 66.0706 315.12ZM83.0533 318.744C83.0533 321.32 82.5253 323.384 81.4693 324.936C80.4293 326.488 78.9333 327.264 76.9813 327.264C75.0133 327.264 73.5093 326.504 72.4693 324.984C71.4293 323.464 70.9093 321.392 70.9093 318.768C70.9093 317.088 71.1413 315.6 71.6053 314.304C72.0693 313.008 72.7573 312 73.6693 311.28C74.5813 310.56 75.6853 310.2 76.9813 310.2C78.9333 310.2 80.4293 310.976 81.4693 312.528C82.5253 314.064 83.0533 316.136 83.0533 318.744ZM80.8933 318.744C80.8933 316.488 80.5813 314.792 79.9573 313.656C79.3333 312.52 78.3413 311.952 76.9813 311.952C75.6213 311.952 74.6293 312.528 74.0053 313.68C73.3813 314.816 73.0693 316.512 73.0693 318.768C73.0693 321.008 73.3813 322.696 74.0053 323.832C74.6453 324.952 75.6373 325.512 76.9813 325.512C78.3413 325.512 79.3333 324.952 79.9573 323.832C80.5813 322.696 80.8933 321 80.8933 318.744ZM89.5719 317.976H96.0519V319.656H89.5719V327H87.4839V310.464H97.2279L96.9879 312.192H89.5719V317.976ZM103.627 325.152C103.627 324.56 103.827 324.064 104.227 323.664C104.643 323.248 105.147 323.04 105.739 323.04C106.347 323.04 106.851 323.248 107.251 323.664C107.651 324.064 107.851 324.56 107.851 325.152C107.851 325.76 107.651 326.264 107.251 326.664C106.851 327.064 106.347 327.264 105.739 327.264C105.147 327.264 104.643 327.064 104.227 326.664C103.827 326.248 103.627 325.744 103.627 325.152ZM140.232 315.12C140.232 316.304 139.864 317.288 139.128 318.072C138.392 318.84 137.416 319.376 136.2 319.68L141.12 327H138.624L134.088 319.92H131.856V327H129.792V310.464H134.016C136.064 310.464 137.608 310.856 138.648 311.64C139.704 312.424 140.232 313.584 140.232 315.12ZM138.024 315.12C138.024 314.064 137.72 313.304 137.112 312.84C136.504 312.376 135.552 312.144 134.256 312.144H131.856V318.288H134.28C135.512 318.288 136.44 318.04 137.064 317.544C137.704 317.032 138.024 316.224 138.024 315.12ZM155.006 318.744C155.006 321.32 154.478 323.384 153.422 324.936C152.382 326.488 150.886 327.264 148.934 327.264C146.966 327.264 145.462 326.504 144.422 324.984C143.382 323.464 142.862 321.392 142.862 318.768C142.862 317.088 143.094 315.6 143.558 314.304C144.022 313.008 144.71 312 145.622 311.28C146.534 310.56 147.638 310.2 148.934 310.2C150.886 310.2 152.382 310.976 153.422 312.528C154.478 314.064 155.006 316.136 155.006 318.744ZM152.846 318.744C152.846 316.488 152.534 314.792 151.91 313.656C151.286 312.52 150.294 311.952 148.934 311.952C147.574 311.952 146.582 312.528 145.958 313.68C145.334 314.816 145.022 316.512 145.022 318.768C145.022 321.008 145.334 322.696 145.958 323.832C146.598 324.952 147.59 325.512 148.934 325.512C150.294 325.512 151.286 324.952 151.91 323.832C152.534 322.696 152.846 321 152.846 318.744ZM168.773 325.2L168.533 327H157.853V325.32L166.565 312.264H158.717V310.464H168.797V312.192L160.133 325.2H168.773ZM175.604 317.76H181.748V319.464H175.604V325.32H183.14V327H173.54V310.464H182.924L182.684 312.192H175.604V317.76ZM188.554 312.48C188.554 312.592 188.602 313.288 188.698 314.568C188.794 315.848 188.842 317.232 188.842 318.72V327H186.898V310.464H189.73L195.658 325.056L195.61 324.192C195.45 322.224 195.37 320.408 195.37 318.744V310.464H197.314V327H194.386L188.554 312.48ZM211.225 312.144H207.553V325.344H211.225V327H201.769V325.344H205.441V312.144H201.769V310.464H211.225V312.144Z" fill="black"/>
</svg>
