<svg width="368" height="395" viewBox="0 0 368 395" fill="none" xmlns="http://www.w3.org/2000/svg">
<path d="M2.65037 97C2.39949 88.371 1.00089 80.8152 1.00063 75.2786C1.00054 73.5 0.96343 72.3923 1.4728 71.5C1.98216 70.6077 2.83405 69.5071 3.47266 69C6.39201 67.7302 9.04257 65.6671 18.0948 65.4905C24.5455 65.3646 36.3441 65.5643 42.7497 65.235C50.1659 64.8537 52.7058 63.5967 65.4469 63.4581C76.6681 63.3361 96.9896 63.5878 107.667 63.5839C118.345 63.5801 119.348 63.3285 148.284 63.3323C177.219 63.3361 231.117 63.4657 258.973 63.3323C286.828 63.1988 283.473 63.3323 285.973 63.3323C288.952 63.3323 296.578 63.1079 306.473 62.5C314.85 61.9852 328.771 62.5001 336.973 62.5001C346.706 62.5001 363.889 62.3599 365.791 68.5C367.798 74.9822 365.72 74.3153 365.791 82C365.916 95.7156 365.645 103.686 365.791 107.5C365.916 110.794 365.102 118.371 365.791 123C366.167 125.528 365.62 132.791 365.791 152.5C365.908 166.151 365.654 183.524 365.791 196.176C365.927 208.827 365.791 214.365 365.791 221.5C365.791 229 365.163 239.121 365.791 250C366.418 260.879 366.178 270.589 365.791 280C365.403 289.411 366.167 297.858 365.791 304.5C365.414 311.142 364.973 317.5 365.791 324C367.424 336.975 365.791 342.926 365.791 345.5V357.5C365.791 369.5 366.334 375.6 364.973 381.5C363.473 388 364.899 386.54 359.473 388.5C353.272 390.74 346.687 390.647 337.872 391.439C333.546 391.828 326.505 391.062 298.908 391.439C271.311 391.817 222.624 393.162 195.331 392.903C168.038 392.644 165.001 393.284 155.38 392.903C145.76 392.522 131.404 393.418 122.828 392.903C114.252 392.388 110.869 393.087 107.538 392.903C100.711 392.525 94.2211 392.903 79.9178 393.913C73.5059 394.366 66.1076 392.903 60.189 392.903C54.8966 392.903 52.9256 393.036 43.6468 392.903C34.3679 392.77 18.0606 392.266 9.90694 382.291C1.75327 372.316 1.75327 353.442 2.01176 342.578C2.27024 331.715 2.77201 328.947 3.02289 313.69C3.27377 298.434 3.27377 271.507 3.53226 256.876C3.79074 242.245 4.2925 239.98 4.54339 231.847C4.79427 223.714 4.79427 210.124 4.53578 201.384C4.2773 192.645 3.77554 188.87 3.39541 186.464C3.01529 184.058 2.7644 183.051 2.63896 170.102C2.51352 157.153 2.74257 132.989 2.38428 120.524C2.00416 107.301 2.84388 103.656 2.65037 97Z" stroke="black" stroke-width="2" stroke-linecap="round"/>
<path d="M124.775 60.3437C124.775 59.3264 124.775 54.9874 125.284 48.8257C125.481 46.4325 126.81 45.7159 130.64 45.3228C134.47 44.9298 141.083 44.9298 144.871 45.0569C148.659 45.1841 149.422 45.4384 162.531 45.5695C175.641 45.7005 201.371 43.7024 214.473 46.5C227.575 49.2976 227.278 56.891 227.278 62.6558" stroke="black" stroke-width="2" stroke-linecap="round"/>
<path d="M171.017 43.3883C169.737 42.109 166.161 36.4983 163.317 31.3269C161.729 28.4392 158.701 26.1863 156.254 24.1286C153.533 21.8401 150.485 18.7414 145.861 13.7396C142.285 10.0325 139.68 7.17321 138.655 5.63567C138.139 4.86112 137.63 4.09812 137.106 3.31201" stroke="black" stroke-width="2" stroke-linecap="round"/>
<path d="M171.787 42.6177C174.847 36.7527 182.038 23.9052 184.882 20.148C187.447 16.7593 188.989 12.3139 191.687 9.48925C192.843 7.9517 193.876 6.65693 194.646 5.2504C194.908 4.35254 194.908 3.08089 196.45 1" stroke="black" stroke-width="2" stroke-linecap="round"/>
<path d="M152.473 54H199.485" stroke="black" stroke-width="2" stroke-linecap="round"/>
<path d="M22.543 286.469C22.543 287.412 22.543 288.354 22.543 299.682C22.543 311.009 22.543 332.692 22.6608 344.215C22.8055 358.365 23.7285 362.631 24.3249 369.648C24.5969 372.848 29.4278 373.358 32.7667 374.194C33.6991 374.427 34.8986 374.315 35.977 374.433C37.0554 374.551 37.9982 374.787 62.9951 374.79C87.9919 374.794 137.014 374.558 162.622 374.554C188.229 374.551 188.936 374.787 189.772 374.908C191.536 375.164 193.464 375.265 197.132 375.622C204.302 376.32 210.127 375.979 219.454 376.336C227.598 376.648 242.687 376.458 250.811 376.576C261.58 376.732 267.241 377.886 275.083 378.479C286.848 379.368 296.302 378.129 299.626 377.415C302.885 376.715 306.3 376.701 313.985 375.986C319.999 375.427 330.39 375.744 336.086 375.626C342.497 375.493 344.396 375.029 346.299 374.558C347.958 374.147 347.502 363.688 347.267 349.89C346.074 339.098 345.838 335.042 345.481 327.018C345.36 319.701 345.36 305.795 345.36 291.468" stroke="black" stroke-width="2" stroke-linecap="round"/>
<path d="M23.4536 287.471C28.6385 287.471 39.135 287.87 41.6519 288.174C45.0207 288.582 50.1807 289.282 53.8234 289.883C55.6447 290.183 61.6309 290.489 69.9725 290.589C74.9367 290.648 81.9478 291.093 90.4947 291.192C93.6649 291.229 94.4603 291.491 104.631 291.594C114.801 291.696 134.322 291.696 148.062 292.294C161.803 292.891 168.879 291.787 173.473 292.403C179.635 293.229 182.88 293.411 188.473 293.712C193.063 293.96 200.768 293.812 205.473 293.712C213.821 293.536 218.122 295.002 223.473 294C227.553 293.236 233.044 293.501 236.473 293C239.506 292.557 238.853 293.103 242.973 292.403C250.895 291.056 258.339 291.805 261.973 291.5C263.6 291.363 270.559 291.4 273.973 291.5C277.001 291.588 277.699 290.489 289.973 291.093C300.642 291.617 320.023 289.886 330.48 289.786C341.535 289.487 343.147 289.282 344.656 289.581C345.169 289.88 345.169 290.477 345.169 291.093" stroke="black" stroke-width="2" stroke-linecap="round"/>
<path d="M54.368 344.552C54.368 346.392 53.8 347.736 52.664 348.584C51.528 349.432 49.968 349.856 47.984 349.856H45.848V356H43.784V339.464H47.984C50.016 339.464 51.584 339.888 52.688 340.736C53.808 341.584 54.368 342.856 54.368 344.552ZM52.136 344.576C52.136 343.376 51.784 342.504 51.08 341.96C50.392 341.4 49.448 341.12 48.248 341.12H45.848V348.2H48.176C49.424 348.2 50.392 347.928 51.08 347.384C51.784 346.84 52.136 345.904 52.136 344.576ZM66.8626 353.24C66.8626 353.736 66.9426 354.104 67.1026 354.344C67.2626 354.568 67.5266 354.736 67.8946 354.848L67.3906 356.288C66.1586 356.128 65.3906 355.528 65.0866 354.488C64.6386 355.064 64.0706 355.504 63.3826 355.808C62.7106 356.112 61.9586 356.264 61.1266 356.264C59.8626 356.264 58.8626 355.912 58.1266 355.208C57.4066 354.504 57.0466 353.56 57.0466 352.376C57.0466 351.08 57.5506 350.08 58.5586 349.376C59.5826 348.672 61.0466 348.32 62.9506 348.32H64.8226V347.288C64.8226 346.392 64.5666 345.752 64.0546 345.368C63.5426 344.968 62.7986 344.768 61.8226 344.768C60.8626 344.768 59.7666 344.984 58.5346 345.416L57.9826 343.88C59.4706 343.352 60.8546 343.088 62.1346 343.088C63.6706 343.088 64.8386 343.448 65.6386 344.168C66.4546 344.888 66.8626 345.888 66.8626 347.168V353.24ZM61.6306 354.752C62.2546 354.752 62.8466 354.592 63.4066 354.272C63.9826 353.952 64.4546 353.512 64.8226 352.952V349.712H62.9986C61.6546 349.712 60.6866 349.936 60.0946 350.384C59.5026 350.832 59.2066 351.488 59.2066 352.352C59.2066 353.952 60.0146 354.752 61.6306 354.752ZM77.9173 354.536C79.0213 354.536 80.1173 354.168 81.2053 353.432L82.1653 354.752C81.6373 355.216 80.9813 355.584 80.1973 355.856C79.4133 356.128 78.6533 356.264 77.9173 356.264C76.0453 356.264 74.5813 355.68 73.5253 354.512C72.4853 353.328 71.9653 351.736 71.9653 349.736C71.9653 348.472 72.1973 347.336 72.6613 346.328C73.1413 345.32 73.8293 344.528 74.7253 343.952C75.6213 343.376 76.6853 343.088 77.9173 343.088C79.5493 343.088 80.9573 343.584 82.1413 344.576L81.1573 345.896C80.0533 345.16 78.9653 344.792 77.8933 344.792C76.7573 344.792 75.8453 345.216 75.1573 346.064C74.4853 346.896 74.1493 348.12 74.1493 349.736C74.1493 351.352 74.4853 352.56 75.1573 353.36C75.8453 354.144 76.7653 354.536 77.9173 354.536ZM88.7319 356H86.7159V338.264L88.7319 338.024V356ZM91.4919 349.064L97.8279 356H95.1639L88.9479 349.088L94.5639 343.352H97.1559L91.4919 349.064ZM110.035 353.24C110.035 353.736 110.115 354.104 110.275 354.344C110.435 354.568 110.699 354.736 111.067 354.848L110.562 356.288C109.331 356.128 108.563 355.528 108.259 354.488C107.811 355.064 107.243 355.504 106.555 355.808C105.883 356.112 105.131 356.264 104.299 356.264C103.035 356.264 102.035 355.912 101.299 355.208C100.579 354.504 100.219 353.56 100.219 352.376C100.219 351.08 100.723 350.08 101.73 349.376C102.755 348.672 104.219 348.32 106.123 348.32H107.995V347.288C107.995 346.392 107.739 345.752 107.227 345.368C106.715 344.968 105.971 344.768 104.995 344.768C104.035 344.768 102.939 344.984 101.707 345.416L101.155 343.88C102.643 343.352 104.027 343.088 105.307 343.088C106.843 343.088 108.011 343.448 108.811 344.168C109.627 344.888 110.035 345.888 110.035 347.168V353.24ZM104.803 354.752C105.427 354.752 106.019 354.592 106.579 354.272C107.155 353.952 107.627 353.512 107.995 352.952V349.712H106.171C104.827 349.712 103.859 349.936 103.267 350.384C102.675 350.832 102.379 351.488 102.379 352.352C102.379 353.952 103.187 354.752 104.803 354.752ZM126.249 343.928C125.769 344.088 125.249 344.192 124.689 344.24C124.129 344.272 123.417 344.288 122.553 344.288C124.025 344.96 124.761 346.024 124.761 347.48C124.761 348.76 124.337 349.8 123.489 350.6C122.641 351.384 121.481 351.776 120.009 351.776C119.257 351.776 118.625 351.688 118.113 351.512C117.921 351.656 117.761 351.84 117.633 352.064C117.521 352.288 117.465 352.512 117.465 352.736C117.465 353.456 118.025 353.816 119.145 353.816H121.425C122.257 353.816 123.009 353.968 123.681 354.272C124.369 354.56 124.905 354.968 125.289 355.496C125.689 356.024 125.889 356.608 125.889 357.248C125.889 358.48 125.361 359.424 124.305 360.08C123.265 360.752 121.785 361.088 119.865 361.088C117.913 361.088 116.537 360.784 115.737 360.176C114.937 359.568 114.537 358.6 114.537 357.272H116.361C116.361 357.8 116.457 358.216 116.649 358.52C116.857 358.84 117.209 359.072 117.705 359.216C118.217 359.376 118.937 359.456 119.865 359.456C121.225 359.456 122.225 359.28 122.865 358.928C123.521 358.576 123.849 358.056 123.849 357.368C123.849 356.792 123.585 356.344 123.057 356.024C122.529 355.72 121.849 355.568 121.017 355.568H118.761C117.721 355.568 116.929 355.344 116.385 354.896C115.841 354.432 115.569 353.856 115.569 353.168C115.569 352.768 115.689 352.376 115.929 351.992C116.169 351.592 116.513 351.248 116.961 350.96C116.241 350.592 115.705 350.128 115.353 349.568C115.017 348.992 114.849 348.296 114.849 347.48C114.849 346.632 115.057 345.88 115.473 345.224C115.905 344.552 116.497 344.032 117.249 343.664C118.017 343.28 118.897 343.088 119.889 343.088C121.329 343.088 122.425 343.008 123.177 342.848C123.929 342.688 124.753 342.416 125.649 342.032L126.249 343.928ZM119.865 344.576C118.889 344.576 118.153 344.84 117.657 345.368C117.161 345.88 116.913 346.584 116.913 347.48C116.913 348.376 117.161 349.096 117.657 349.64C118.169 350.168 118.921 350.432 119.913 350.432C120.809 350.432 121.489 350.176 121.953 349.664C122.433 349.136 122.673 348.4 122.673 347.456C122.673 345.536 121.737 344.576 119.865 344.576ZM134.544 337.448C134.992 337.448 135.352 337.584 135.624 337.856C135.896 338.112 136.032 338.448 136.032 338.864C136.032 339.28 135.896 339.624 135.624 339.896C135.352 340.152 134.992 340.28 134.544 340.28C134.112 340.28 133.76 340.152 133.488 339.896C133.232 339.624 133.104 339.28 133.104 338.864C133.104 338.448 133.232 338.112 133.488 337.856C133.76 337.584 134.112 337.448 134.544 337.448ZM136.152 354.392H139.704V356H130.248V354.392H134.136V344.96H130.368V343.352H136.152V354.392ZM144.134 343.352H145.862L146.03 345.128C146.526 344.488 147.15 343.992 147.902 343.64C148.67 343.272 149.438 343.088 150.206 343.088C152.574 343.088 153.758 344.336 153.758 346.832V356H151.742V348.32C151.742 347.376 151.686 346.656 151.574 346.16C151.478 345.664 151.278 345.296 150.974 345.056C150.67 344.816 150.206 344.696 149.582 344.696C148.894 344.696 148.246 344.904 147.638 345.32C147.03 345.736 146.534 346.232 146.15 346.808V356H144.134V343.352ZM169.421 343.928C168.941 344.088 168.421 344.192 167.861 344.24C167.301 344.272 166.589 344.288 165.725 344.288C167.197 344.96 167.933 346.024 167.933 347.48C167.933 348.76 167.509 349.8 166.661 350.6C165.813 351.384 164.653 351.776 163.181 351.776C162.429 351.776 161.797 351.688 161.285 351.512C161.093 351.656 160.933 351.84 160.805 352.064C160.693 352.288 160.637 352.512 160.637 352.736C160.637 353.456 161.197 353.816 162.317 353.816H164.597C165.429 353.816 166.181 353.968 166.853 354.272C167.541 354.56 168.077 354.968 168.461 355.496C168.861 356.024 169.061 356.608 169.061 357.248C169.061 358.48 168.533 359.424 167.477 360.08C166.437 360.752 164.957 361.088 163.037 361.088C161.085 361.088 159.709 360.784 158.909 360.176C158.109 359.568 157.709 358.6 157.709 357.272H159.533C159.533 357.8 159.629 358.216 159.821 358.52C160.029 358.84 160.381 359.072 160.877 359.216C161.389 359.376 162.109 359.456 163.037 359.456C164.397 359.456 165.397 359.28 166.037 358.928C166.693 358.576 167.021 358.056 167.021 357.368C167.021 356.792 166.757 356.344 166.229 356.024C165.701 355.72 165.021 355.568 164.189 355.568H161.933C160.893 355.568 160.101 355.344 159.557 354.896C159.013 354.432 158.741 353.856 158.741 353.168C158.741 352.768 158.861 352.376 159.101 351.992C159.341 351.592 159.685 351.248 160.133 350.96C159.413 350.592 158.877 350.128 158.525 349.568C158.189 348.992 158.021 348.296 158.021 347.48C158.021 346.632 158.229 345.88 158.645 345.224C159.077 344.552 159.669 344.032 160.421 343.664C161.189 343.28 162.069 343.088 163.061 343.088C164.501 343.088 165.597 343.008 166.349 342.848C167.101 342.688 167.925 342.416 168.821 342.032L169.421 343.928ZM163.037 344.576C162.061 344.576 161.325 344.84 160.829 345.368C160.333 345.88 160.085 346.584 160.085 347.48C160.085 348.376 160.333 349.096 160.829 349.64C161.341 350.168 162.093 350.432 163.085 350.432C163.981 350.432 164.661 350.176 165.125 349.664C165.605 349.136 165.845 348.4 165.845 347.456C165.845 345.536 164.909 344.576 163.037 344.576ZM198.178 347.648C198.178 350.784 197.458 352.96 196.018 354.176C194.578 355.392 192.802 356 190.69 356H186.898V339.464H190.426C192.746 339.464 194.618 340.048 196.042 341.216C197.466 342.384 198.178 344.528 198.178 347.648ZM195.946 347.648C195.946 345.856 195.698 344.488 195.202 343.544C194.722 342.584 194.122 341.952 193.402 341.648C192.682 341.328 191.858 341.168 190.93 341.168H188.986V354.32H190.954C192.378 354.32 193.562 353.832 194.506 352.856C195.466 351.864 195.946 350.128 195.946 347.648ZM203.305 350.384C203.353 351.776 203.713 352.824 204.385 353.528C205.073 354.232 205.937 354.584 206.977 354.584C207.601 354.584 208.169 354.496 208.681 354.32C209.209 354.128 209.769 353.84 210.361 353.456L211.297 354.8C210.705 355.264 210.025 355.624 209.257 355.88C208.505 356.136 207.745 356.264 206.977 356.264C205.153 356.264 203.729 355.672 202.705 354.488C201.697 353.288 201.193 351.688 201.193 349.688C201.193 348.424 201.417 347.296 201.865 346.304C202.313 345.296 202.953 344.512 203.785 343.952C204.617 343.376 205.585 343.088 206.689 343.088C208.289 343.088 209.545 343.648 210.457 344.768C211.385 345.872 211.849 347.384 211.849 349.304C211.849 349.672 211.833 350.032 211.801 350.384H203.305ZM206.713 344.744C205.737 344.744 204.945 345.096 204.337 345.8C203.729 346.488 203.385 347.504 203.305 348.848H209.881C209.865 347.52 209.577 346.504 209.017 345.8C208.457 345.096 207.689 344.744 206.713 344.744ZM220.408 354.608C221.368 354.608 222.128 354.424 222.688 354.056C223.248 353.688 223.528 353.2 223.528 352.592C223.528 352.176 223.456 351.84 223.312 351.584C223.168 351.312 222.88 351.072 222.448 350.864C222.016 350.64 221.36 350.416 220.48 350.192C219.008 349.824 217.92 349.384 217.215 348.872C216.512 348.344 216.16 347.568 216.16 346.544C216.16 345.488 216.6 344.648 217.48 344.024C218.36 343.4 219.52 343.088 220.96 343.088C222.72 343.088 224.256 343.552 225.568 344.48L224.656 345.872C224.128 345.504 223.576 345.224 223 345.032C222.424 344.824 221.76 344.72 221.008 344.72C219.184 344.72 218.272 345.272 218.272 346.376C218.272 346.76 218.368 347.072 218.56 347.312C218.768 347.552 219.096 347.768 219.544 347.96C220.008 348.136 220.696 348.352 221.608 348.608C222.984 348.976 224.008 349.448 224.68 350.024C225.368 350.584 225.712 351.408 225.712 352.496C225.712 353.76 225.2 354.704 224.176 355.328C223.152 355.952 221.896 356.264 220.408 356.264C218.424 356.264 216.776 355.696 215.464 354.56L216.592 353.24C217.104 353.656 217.688 353.992 218.344 354.248C219 354.488 219.688 354.608 220.408 354.608ZM235.278 337.448C235.726 337.448 236.086 337.584 236.358 337.856C236.63 338.112 236.766 338.448 236.766 338.864C236.766 339.28 236.63 339.624 236.358 339.896C236.086 340.152 235.726 340.28 235.278 340.28C234.846 340.28 234.494 340.152 234.222 339.896C233.966 339.624 233.838 339.28 233.838 338.864C233.838 338.448 233.966 338.112 234.222 337.856C234.494 337.584 234.846 337.448 235.278 337.448ZM236.886 354.392H240.438V356H230.982V354.392H234.87V344.96H231.102V343.352H236.886V354.392ZM255.765 343.928C255.285 344.088 254.765 344.192 254.205 344.24C253.645 344.272 252.933 344.288 252.069 344.288C253.541 344.96 254.277 346.024 254.277 347.48C254.277 348.76 253.853 349.8 253.005 350.6C252.157 351.384 250.997 351.776 249.525 351.776C248.773 351.776 248.141 351.688 247.629 351.512C247.437 351.656 247.277 351.84 247.149 352.064C247.037 352.288 246.981 352.512 246.981 352.736C246.981 353.456 247.541 353.816 248.661 353.816H250.941C251.773 353.816 252.525 353.968 253.197 354.272C253.885 354.56 254.421 354.968 254.805 355.496C255.205 356.024 255.405 356.608 255.405 357.248C255.405 358.48 254.877 359.424 253.821 360.08C252.781 360.752 251.301 361.088 249.381 361.088C247.429 361.088 246.053 360.784 245.253 360.176C244.453 359.568 244.053 358.6 244.053 357.272H245.877C245.877 357.8 245.973 358.216 246.165 358.52C246.373 358.84 246.725 359.072 247.221 359.216C247.733 359.376 248.453 359.456 249.381 359.456C250.741 359.456 251.741 359.28 252.381 358.928C253.037 358.576 253.365 358.056 253.365 357.368C253.365 356.792 253.101 356.344 252.573 356.024C252.045 355.72 251.365 355.568 250.533 355.568H248.277C247.237 355.568 246.445 355.344 245.901 354.896C245.357 354.432 245.085 353.856 245.085 353.168C245.085 352.768 245.205 352.376 245.445 351.992C245.685 351.592 246.029 351.248 246.477 350.96C245.757 350.592 245.221 350.128 244.869 349.568C244.533 348.992 244.365 348.296 244.365 347.48C244.365 346.632 244.573 345.88 244.989 345.224C245.421 344.552 246.013 344.032 246.765 343.664C247.533 343.28 248.413 343.088 249.405 343.088C250.845 343.088 251.941 343.008 252.693 342.848C253.445 342.688 254.269 342.416 255.165 342.032L255.765 343.928ZM249.381 344.576C248.405 344.576 247.669 344.84 247.173 345.368C246.677 345.88 246.429 346.584 246.429 347.48C246.429 348.376 246.677 349.096 247.173 349.64C247.685 350.168 248.437 350.432 249.429 350.432C250.325 350.432 251.005 350.176 251.469 349.664C251.949 349.136 252.189 348.4 252.189 347.456C252.189 345.536 251.253 344.576 249.381 344.576ZM259.259 343.352H260.987L261.155 345.128C261.651 344.488 262.275 343.992 263.027 343.64C263.795 343.272 264.563 343.088 265.331 343.088C267.699 343.088 268.883 344.336 268.883 346.832V356H266.867V348.32C266.867 347.376 266.811 346.656 266.699 346.16C266.603 345.664 266.403 345.296 266.099 345.056C265.795 344.816 265.331 344.696 264.707 344.696C264.019 344.696 263.371 344.904 262.763 345.32C262.155 345.736 261.659 346.232 261.275 346.808V356H259.259V343.352Z" fill="#838983"/>
<path d="M54.368 315.552C54.368 317.392 53.8 318.736 52.664 319.584C51.528 320.432 49.968 320.856 47.984 320.856H45.848V327H43.784V310.464H47.984C50.016 310.464 51.584 310.888 52.688 311.736C53.808 312.584 54.368 313.856 54.368 315.552ZM52.136 315.576C52.136 314.376 51.784 313.504 51.08 312.96C50.392 312.4 49.448 312.12 48.248 312.12H45.848V319.2H48.176C49.424 319.2 50.392 318.928 51.08 318.384C51.784 317.84 52.136 316.904 52.136 315.576ZM59.2546 322.776L57.9346 327H55.8706L61.2706 310.464H63.9106L69.2866 327H67.1266L65.8066 322.776H59.2546ZM65.2546 321.048L62.5426 312.24L59.8066 321.048H65.2546ZM78.3733 310.2C79.3973 310.2 80.2773 310.336 81.0133 310.608C81.7493 310.864 82.4693 311.264 83.1733 311.808L81.9973 313.176C81.0213 312.36 79.8613 311.952 78.5173 311.952C77.0293 311.952 75.8133 312.496 74.8693 313.584C73.9413 314.656 73.4773 316.368 73.4773 318.72C73.4773 321.056 73.9333 322.768 74.8453 323.856C75.7573 324.944 76.9733 325.488 78.4933 325.488C79.3253 325.488 80.0373 325.368 80.6293 325.128C81.2213 324.888 81.7893 324.552 82.3333 324.12L83.4133 325.464C82.1813 326.664 80.5333 327.264 78.4693 327.264C77.1093 327.264 75.8853 326.936 74.7973 326.28C73.7093 325.608 72.8533 324.632 72.2293 323.352C71.6053 322.072 71.2933 320.528 71.2933 318.72C71.2933 316.928 71.6053 315.392 72.2293 314.112C72.8693 312.816 73.7253 311.84 74.7973 311.184C75.8853 310.528 77.0773 310.2 78.3733 310.2ZM89.2599 317.76H95.4039V319.464H89.2599V325.32H96.7959V327H87.1959V310.464H96.5799L96.3399 312.192H89.2599V317.76ZM106.675 318.696H110.179V320.376H106.675V323.952H104.803V320.376H101.347V318.696H104.803V315.12H106.675V318.696Z" fill="black"/>
</svg>
