<svg width="368" height="395" viewBox="0 0 368 395" fill="none" xmlns="http://www.w3.org/2000/svg">
<path d="M2.65037 97C2.39949 88.371 1.00089 80.8152 1.00063 75.2786C1.00054 73.5 0.96343 72.3923 1.4728 71.5C1.98216 70.6077 2.83405 69.5071 3.47266 69C6.39201 67.7302 9.04257 65.6671 18.0948 65.4905C24.5455 65.3646 36.3441 65.5643 42.7497 65.235C50.1659 64.8537 52.7058 63.5967 65.4469 63.4581C76.6681 63.3361 96.9896 63.5878 107.667 63.5839C118.345 63.5801 119.348 63.3285 148.284 63.3323C177.219 63.3361 231.117 63.4657 258.973 63.3323C286.828 63.1988 283.473 63.3323 285.973 63.3323C288.952 63.3323 296.578 63.1079 306.473 62.5C314.85 61.9852 328.771 62.5001 336.973 62.5001C346.706 62.5001 363.889 62.3599 365.791 68.5C367.798 74.9822 365.72 74.3153 365.791 82C365.916 95.7156 365.645 103.686 365.791 107.5C365.916 110.794 365.102 118.371 365.791 123C366.167 125.528 365.62 132.791 365.791 152.5C365.908 166.151 365.654 183.524 365.791 196.176C365.927 208.827 365.791 214.365 365.791 221.5C365.791 229 365.163 239.121 365.791 250C366.418 260.879 366.178 270.589 365.791 280C365.403 289.411 366.167 297.858 365.791 304.5C365.414 311.142 364.973 317.5 365.791 324C367.424 336.975 365.791 342.926 365.791 345.5V357.5C365.791 369.5 366.334 375.6 364.973 381.5C363.473 388 364.899 386.54 359.473 388.5C353.272 390.74 346.687 390.647 337.872 391.439C333.546 391.828 326.505 391.062 298.908 391.439C271.311 391.817 222.624 393.162 195.331 392.903C168.038 392.644 165.001 393.284 155.38 392.903C145.76 392.522 131.404 393.418 122.828 392.903C114.252 392.388 110.869 393.087 107.538 392.903C100.711 392.525 94.2211 392.903 79.9178 393.913C73.5059 394.366 66.1076 392.903 60.189 392.903C54.8966 392.903 52.9256 393.036 43.6468 392.903C34.3679 392.77 18.0606 392.266 9.90694 382.291C1.75327 372.316 1.75327 353.442 2.01176 342.578C2.27024 331.715 2.77201 328.947 3.02289 313.69C3.27377 298.434 3.27377 271.507 3.53226 256.876C3.79074 242.245 4.2925 239.98 4.54339 231.847C4.79427 223.714 4.79427 210.124 4.53578 201.384C4.2773 192.645 3.77554 188.87 3.39541 186.464C3.01529 184.058 2.7644 183.051 2.63896 170.102C2.51352 157.153 2.74257 132.989 2.38428 120.524C2.00416 107.301 2.84388 103.656 2.65037 97Z" stroke="black" stroke-width="2" stroke-linecap="round"/>
<path d="M124.775 60.3437C124.775 59.3264 124.775 54.9874 125.284 48.8257C125.481 46.4325 126.81 45.7159 130.64 45.3228C134.47 44.9298 141.083 44.9298 144.871 45.0569C148.659 45.1841 149.422 45.4384 162.531 45.5695C175.641 45.7005 201.371 43.7024 214.473 46.5C227.575 49.2976 227.278 56.891 227.278 62.6558" stroke="black" stroke-width="2" stroke-linecap="round"/>
<path d="M171.017 43.3883C169.737 42.109 166.161 36.4983 163.317 31.3269C161.729 28.4392 158.701 26.1863 156.254 24.1286C153.533 21.8401 150.485 18.7414 145.861 13.7396C142.285 10.0325 139.68 7.17321 138.655 5.63567C138.139 4.86112 137.63 4.09812 137.106 3.31201" stroke="black" stroke-width="2" stroke-linecap="round"/>
<path d="M171.787 42.6177C174.847 36.7527 182.038 23.9052 184.882 20.148C187.447 16.7593 188.989 12.3139 191.687 9.48925C192.843 7.9517 193.876 6.65693 194.646 5.2504C194.908 4.35254 194.908 3.08089 196.45 1" stroke="black" stroke-width="2" stroke-linecap="round"/>
<path d="M152.473 54H199.485" stroke="black" stroke-width="2" stroke-linecap="round"/>
<path d="M22.543 286.469C22.543 287.412 22.543 288.354 22.543 299.682C22.543 311.009 22.543 332.692 22.6608 344.215C22.8055 358.365 23.7285 362.631 24.3249 369.648C24.5969 372.848 29.4278 373.358 32.7667 374.194C33.6991 374.427 34.8986 374.315 35.977 374.433C37.0554 374.551 37.9982 374.787 62.9951 374.79C87.9919 374.794 137.014 374.558 162.622 374.554C188.229 374.551 188.936 374.787 189.772 374.908C191.536 375.164 193.464 375.265 197.132 375.622C204.302 376.32 210.127 375.979 219.454 376.336C227.598 376.648 242.687 376.458 250.811 376.576C261.58 376.732 267.241 377.886 275.083 378.479C286.848 379.368 296.302 378.129 299.626 377.415C302.885 376.715 306.3 376.701 313.985 375.986C319.999 375.427 330.39 375.744 336.086 375.626C342.497 375.493 344.396 375.029 346.299 374.558C347.958 374.147 347.502 363.688 347.267 349.89C346.074 339.098 345.838 335.042 345.481 327.018C345.36 319.701 345.36 305.795 345.36 291.468" stroke="black" stroke-width="2" stroke-linecap="round"/>
<path d="M23.4536 287.471C28.6385 287.471 39.135 287.87 41.6519 288.174C45.0207 288.582 50.1807 289.282 53.8234 289.883C55.6447 290.183 61.6309 290.489 69.9725 290.589C74.9367 290.648 81.9478 291.093 90.4947 291.192C93.6649 291.229 94.4603 291.491 104.631 291.594C114.801 291.696 134.322 291.696 148.062 292.294C161.803 292.891 168.879 291.787 173.473 292.403C179.635 293.229 182.88 293.411 188.473 293.712C193.063 293.96 200.768 293.812 205.473 293.712C213.821 293.536 218.122 295.002 223.473 294C227.553 293.236 233.044 293.501 236.473 293C239.506 292.557 238.853 293.103 242.973 292.403C250.895 291.056 258.339 291.805 261.973 291.5C263.6 291.363 270.559 291.4 273.973 291.5C277.001 291.588 277.699 290.489 289.973 291.093C300.642 291.617 320.023 289.886 330.48 289.786C341.535 289.487 343.147 289.282 344.656 289.581C345.169 289.88 345.169 290.477 345.169 291.093" stroke="black" stroke-width="2" stroke-linecap="round"/>
<path d="M53.96 351.296C53.96 352.96 53.36 354.16 52.16 354.896C50.976 355.632 49.512 356 47.768 356H43.304V339.464H47.384C49.064 339.464 50.456 339.792 51.56 340.448C52.68 341.088 53.24 342.152 53.24 343.64C53.24 344.632 52.944 345.432 52.352 346.04C51.76 346.632 51.024 347.032 50.144 347.24C52.688 347.672 53.96 349.024 53.96 351.296ZM51.104 343.76C51.104 342.848 50.824 342.192 50.264 341.792C49.704 341.376 48.904 341.168 47.864 341.168H45.392V346.496H48.056C50.088 346.496 51.104 345.584 51.104 343.76ZM51.752 351.368C51.752 350.2 51.432 349.384 50.792 348.92C50.168 348.456 49.304 348.224 48.2 348.224H45.392V354.272H48.128C49.136 354.272 49.992 354.064 50.696 353.648C51.4 353.232 51.752 352.472 51.752 351.368ZM66.3346 343.088C66.8466 343.088 67.4386 343.176 68.1106 343.352L67.8226 347.648H66.1906V344.936H66.0706C64.1186 344.936 62.7346 346.328 61.9186 349.112V354.44H64.4866V356H57.9106V354.44H59.9026V344.912H57.9106V343.352H61.4146L61.7986 346.352C62.3106 345.264 62.9186 344.448 63.6226 343.904C64.3426 343.36 65.2466 343.088 66.3346 343.088ZM81.2533 353.24C81.2533 353.736 81.3333 354.104 81.4933 354.344C81.6533 354.568 81.9173 354.736 82.2853 354.848L81.7812 356.288C80.5493 356.128 79.7813 355.528 79.4773 354.488C79.0293 355.064 78.4613 355.504 77.7733 355.808C77.1013 356.112 76.3493 356.264 75.5173 356.264C74.2533 356.264 73.2533 355.912 72.5173 355.208C71.7973 354.504 71.4373 353.56 71.4373 352.376C71.4373 351.08 71.9413 350.08 72.9492 349.376C73.9733 348.672 75.4373 348.32 77.3413 348.32H79.2133V347.288C79.2133 346.392 78.9573 345.752 78.4453 345.368C77.9333 344.968 77.1893 344.768 76.2133 344.768C75.2533 344.768 74.1573 344.984 72.9253 345.416L72.3733 343.88C73.8613 343.352 75.2453 343.088 76.5253 343.088C78.0613 343.088 79.2293 343.448 80.0293 344.168C80.8453 344.888 81.2533 345.888 81.2533 347.168V353.24ZM76.0213 354.752C76.6453 354.752 77.2373 354.592 77.7973 354.272C78.3733 353.952 78.8453 353.512 79.2133 352.952V349.712H77.3893C76.0453 349.712 75.0773 349.936 74.4853 350.384C73.8933 350.832 73.5973 351.488 73.5973 352.352C73.5973 353.952 74.4053 354.752 76.0213 354.752ZM86.5719 343.352H88.2999L88.4679 345.128C88.9639 344.488 89.5879 343.992 90.3399 343.64C91.1079 343.272 91.8759 343.088 92.6439 343.088C95.0119 343.088 96.1959 344.336 96.1959 346.832V356H94.1799V348.32C94.1799 347.376 94.1239 346.656 94.0119 346.16C93.9159 345.664 93.7159 345.296 93.4119 345.056C93.1079 344.816 92.6439 344.696 92.0199 344.696C91.3319 344.696 90.6839 344.904 90.0759 345.32C89.4679 345.736 88.9719 346.232 88.5879 346.808V356H86.5719V343.352ZM110.562 338.264V356H108.787L108.595 354.344C108.131 354.984 107.595 355.464 106.987 355.784C106.379 356.104 105.723 356.264 105.019 356.264C103.419 356.264 102.211 355.68 101.395 354.512C100.595 353.344 100.195 351.736 100.195 349.688C100.195 348.424 100.395 347.296 100.795 346.304C101.195 345.296 101.763 344.512 102.499 343.952C103.251 343.376 104.131 343.088 105.139 343.088C106.531 343.088 107.667 343.592 108.547 344.6V338.024L110.562 338.264ZM105.667 344.72C104.611 344.72 103.795 345.136 103.219 345.968C102.659 346.8 102.379 348.04 102.379 349.688C102.379 351.32 102.635 352.56 103.147 353.408C103.675 354.24 104.435 354.656 105.427 354.656C106.627 354.656 107.667 353.984 108.547 352.64V346.352C108.195 345.824 107.771 345.424 107.275 345.152C106.779 344.864 106.243 344.72 105.667 344.72ZM134.04 339.224C134.824 339.224 135.528 339.352 136.152 339.608C136.792 339.864 137.424 340.336 138.048 341.024L136.848 342.128C136.416 341.648 135.976 341.296 135.528 341.072C135.096 340.848 134.592 340.736 134.016 340.736C133.184 340.736 132.552 340.96 132.12 341.408C131.688 341.856 131.472 342.448 131.472 343.184C131.472 343.664 131.6 344.12 131.856 344.552C132.128 344.968 132.488 345.304 132.936 345.56C133.4 345.8 133.904 345.92 134.448 345.92H141.12V347.528H138.96V354.056C138.48 354.648 137.84 355.168 137.04 355.616C136.24 356.048 135.224 356.264 133.992 356.264C132.808 356.264 131.808 356.032 130.992 355.568C130.192 355.104 129.6 354.496 129.216 353.744C128.832 352.992 128.64 352.184 128.64 351.32C128.64 350.088 128.96 349.08 129.6 348.296C130.256 347.496 131.184 346.968 132.384 346.712V346.64C131.376 346.4 130.64 345.968 130.176 345.344C129.728 344.72 129.504 344 129.504 343.184C129.504 342.48 129.688 341.824 130.056 341.216C130.424 340.608 130.952 340.128 131.64 339.776C132.328 339.408 133.128 339.224 134.04 339.224ZM134.136 347.528C133.352 347.528 132.696 347.712 132.168 348.08C131.64 348.448 131.248 348.92 130.992 349.496C130.736 350.056 130.608 350.64 130.608 351.248C130.608 352.208 130.896 353.016 131.472 353.672C132.048 354.312 132.904 354.632 134.04 354.632C134.712 354.632 135.312 354.528 135.84 354.32C136.368 354.096 136.792 353.784 137.112 353.384V347.528H134.136ZM169.493 344.552C169.493 346.392 168.925 347.736 167.789 348.584C166.653 349.432 165.093 349.856 163.109 349.856H160.973V356H158.909V339.464H163.109C165.141 339.464 166.709 339.888 167.813 340.736C168.933 341.584 169.493 342.856 169.493 344.552ZM167.261 344.576C167.261 343.376 166.909 342.504 166.205 341.96C165.517 341.4 164.573 341.12 163.373 341.12H160.973V348.2H163.301C164.549 348.2 165.517 347.928 166.205 347.384C166.909 346.84 167.261 345.904 167.261 344.576ZM181.46 343.088C181.972 343.088 182.564 343.176 183.236 343.352L182.948 347.648H181.316V344.936H181.196C179.244 344.936 177.86 346.328 177.044 349.112V354.44H179.612V356H173.036V354.44H175.028V344.912H173.036V343.352H176.54L176.924 346.352C177.436 345.264 178.044 344.448 178.748 343.904C179.468 343.36 180.372 343.088 181.46 343.088ZM192.106 337.448C192.554 337.448 192.914 337.584 193.186 337.856C193.458 338.112 193.594 338.448 193.594 338.864C193.594 339.28 193.458 339.624 193.186 339.896C192.914 340.152 192.554 340.28 192.106 340.28C191.674 340.28 191.322 340.152 191.05 339.896C190.794 339.624 190.666 339.28 190.666 338.864C190.666 338.448 190.794 338.112 191.05 337.856C191.322 337.584 191.674 337.448 192.106 337.448ZM193.714 354.392H197.266V356H187.81V354.392H191.698V344.96H187.93V343.352H193.714V354.392ZM201.697 343.352H203.425L203.593 345.128C204.089 344.488 204.713 343.992 205.465 343.64C206.233 343.272 207.001 343.088 207.769 343.088C210.137 343.088 211.321 344.336 211.321 346.832V356H209.305V348.32C209.305 347.376 209.249 346.656 209.137 346.16C209.041 345.664 208.841 345.296 208.537 345.056C208.233 344.816 207.769 344.696 207.145 344.696C206.457 344.696 205.809 344.904 205.201 345.32C204.593 345.736 204.097 346.232 203.713 346.808V356H201.697V343.352ZM226.144 355.352C225.712 355.64 225.184 355.864 224.56 356.024C223.952 356.184 223.344 356.264 222.736 356.264C221.408 356.264 220.368 355.92 219.616 355.232C218.864 354.528 218.488 353.608 218.488 352.472V344.936H215.584V343.352H218.488V340.496L220.504 340.256V343.352H224.896L224.632 344.936H220.504V352.448C220.504 353.168 220.696 353.704 221.08 354.056C221.464 354.408 222.08 354.584 222.928 354.584C223.792 354.584 224.6 354.384 225.352 353.984L226.144 355.352ZM255.741 347.648C255.741 350.784 255.021 352.96 253.581 354.176C252.141 355.392 250.365 356 248.253 356H244.461V339.464H247.989C250.309 339.464 252.181 340.048 253.605 341.216C255.029 342.384 255.741 344.528 255.741 347.648ZM253.509 347.648C253.509 345.856 253.261 344.488 252.765 343.544C252.285 342.584 251.685 341.952 250.965 341.648C250.245 341.328 249.421 341.168 248.493 341.168H246.549V354.32H248.517C249.941 354.32 251.125 353.832 252.069 352.856C253.029 351.864 253.509 350.128 253.509 347.648ZM260.867 350.384C260.915 351.776 261.275 352.824 261.947 353.528C262.635 354.232 263.499 354.584 264.539 354.584C265.163 354.584 265.731 354.496 266.243 354.32C266.771 354.128 267.331 353.84 267.923 353.456L268.859 354.8C268.267 355.264 267.587 355.624 266.819 355.88C266.067 356.136 265.307 356.264 264.539 356.264C262.715 356.264 261.291 355.672 260.267 354.488C259.259 353.288 258.755 351.688 258.755 349.688C258.755 348.424 258.979 347.296 259.427 346.304C259.875 345.296 260.515 344.512 261.347 343.952C262.179 343.376 263.147 343.088 264.251 343.088C265.851 343.088 267.107 343.648 268.019 344.768C268.947 345.872 269.411 347.384 269.411 349.304C269.411 349.672 269.395 350.032 269.363 350.384H260.867ZM264.275 344.744C263.299 344.744 262.507 345.096 261.899 345.8C261.291 346.488 260.947 347.504 260.867 348.848H267.443C267.427 347.52 267.139 346.504 266.579 345.8C266.019 345.096 265.251 344.744 264.275 344.744ZM277.97 354.608C278.93 354.608 279.69 354.424 280.25 354.056C280.81 353.688 281.09 353.2 281.09 352.592C281.09 352.176 281.018 351.84 280.874 351.584C280.73 351.312 280.442 351.072 280.01 350.864C279.578 350.64 278.922 350.416 278.042 350.192C276.57 349.824 275.482 349.384 274.778 348.872C274.074 348.344 273.722 347.568 273.722 346.544C273.722 345.488 274.162 344.648 275.042 344.024C275.922 343.4 277.082 343.088 278.522 343.088C280.282 343.088 281.818 343.552 283.13 344.48L282.218 345.872C281.69 345.504 281.138 345.224 280.562 345.032C279.986 344.824 279.322 344.72 278.57 344.72C276.746 344.72 275.834 345.272 275.834 346.376C275.834 346.76 275.93 347.072 276.122 347.312C276.33 347.552 276.658 347.768 277.106 347.96C277.57 348.136 278.258 348.352 279.17 348.608C280.546 348.976 281.57 349.448 282.242 350.024C282.93 350.584 283.274 351.408 283.274 352.496C283.274 353.76 282.762 354.704 281.738 355.328C280.714 355.952 279.458 356.264 277.97 356.264C275.986 356.264 274.338 355.696 273.026 354.56L274.154 353.24C274.666 353.656 275.25 353.992 275.906 354.248C276.562 354.488 277.25 354.608 277.97 354.608ZM292.841 337.448C293.289 337.448 293.649 337.584 293.921 337.856C294.193 338.112 294.329 338.448 294.329 338.864C294.329 339.28 294.193 339.624 293.921 339.896C293.649 340.152 293.289 340.28 292.841 340.28C292.409 340.28 292.057 340.152 291.785 339.896C291.529 339.624 291.401 339.28 291.401 338.864C291.401 338.448 291.529 338.112 291.785 337.856C292.057 337.584 292.409 337.448 292.841 337.448ZM294.449 354.392H298.001V356H288.545V354.392H292.433V344.96H288.665V343.352H294.449V354.392ZM313.327 343.928C312.847 344.088 312.327 344.192 311.767 344.24C311.207 344.272 310.495 344.288 309.631 344.288C311.103 344.96 311.839 346.024 311.839 347.48C311.839 348.76 311.415 349.8 310.567 350.6C309.719 351.384 308.559 351.776 307.087 351.776C306.335 351.776 305.703 351.688 305.191 351.512C304.999 351.656 304.839 351.84 304.711 352.064C304.599 352.288 304.543 352.512 304.543 352.736C304.543 353.456 305.103 353.816 306.223 353.816H308.503C309.335 353.816 310.087 353.968 310.759 354.272C311.447 354.56 311.983 354.968 312.367 355.496C312.767 356.024 312.967 356.608 312.967 357.248C312.967 358.48 312.439 359.424 311.383 360.08C310.343 360.752 308.863 361.088 306.943 361.088C304.991 361.088 303.615 360.784 302.815 360.176C302.015 359.568 301.615 358.6 301.615 357.272H303.439C303.439 357.8 303.535 358.216 303.727 358.52C303.935 358.84 304.287 359.072 304.783 359.216C305.295 359.376 306.015 359.456 306.943 359.456C308.303 359.456 309.303 359.28 309.943 358.928C310.599 358.576 310.927 358.056 310.927 357.368C310.927 356.792 310.663 356.344 310.135 356.024C309.607 355.72 308.927 355.568 308.095 355.568H305.839C304.799 355.568 304.007 355.344 303.463 354.896C302.919 354.432 302.647 353.856 302.647 353.168C302.647 352.768 302.767 352.376 303.007 351.992C303.247 351.592 303.591 351.248 304.039 350.96C303.319 350.592 302.783 350.128 302.431 349.568C302.095 348.992 301.927 348.296 301.927 347.48C301.927 346.632 302.135 345.88 302.551 345.224C302.983 344.552 303.575 344.032 304.327 343.664C305.095 343.28 305.975 343.088 306.967 343.088C308.407 343.088 309.503 343.008 310.255 342.848C311.007 342.688 311.831 342.416 312.727 342.032L313.327 343.928ZM306.943 344.576C305.967 344.576 305.231 344.84 304.735 345.368C304.239 345.88 303.991 346.584 303.991 347.48C303.991 348.376 304.239 349.096 304.735 349.64C305.247 350.168 305.999 350.432 306.991 350.432C307.887 350.432 308.567 350.176 309.031 349.664C309.511 349.136 309.751 348.4 309.751 347.456C309.751 345.536 308.815 344.576 306.943 344.576ZM316.822 343.352H318.55L318.718 345.128C319.214 344.488 319.838 343.992 320.59 343.64C321.358 343.272 322.126 343.088 322.894 343.088C325.262 343.088 326.446 344.336 326.446 346.832V356H324.43V348.32C324.43 347.376 324.374 346.656 324.262 346.16C324.166 345.664 323.966 345.296 323.662 345.056C323.358 344.816 322.894 344.696 322.27 344.696C321.582 344.696 320.934 344.904 320.326 345.32C319.718 345.736 319.222 346.232 318.838 346.808V356H316.822V343.352Z" fill="#838983"/>
<path d="M53.888 315.12C53.888 316.304 53.52 317.288 52.784 318.072C52.048 318.84 51.072 319.376 49.856 319.68L54.776 327H52.28L47.744 319.92H45.512V327H43.448V310.464H47.672C49.72 310.464 51.264 310.856 52.304 311.64C53.36 312.424 53.888 313.584 53.888 315.12ZM51.68 315.12C51.68 314.064 51.376 313.304 50.768 312.84C50.16 312.376 49.208 312.144 47.912 312.144H45.512V318.288H47.936C49.168 318.288 50.096 318.04 50.72 317.544C51.36 317.032 51.68 316.224 51.68 315.12ZM68.6626 318.744C68.6626 321.32 68.1346 323.384 67.0786 324.936C66.0386 326.488 64.5426 327.264 62.5906 327.264C60.6226 327.264 59.1186 326.504 58.0786 324.984C57.0386 323.464 56.5186 321.392 56.5186 318.768C56.5186 317.088 56.7506 315.6 57.2146 314.304C57.6786 313.008 58.3666 312 59.2786 311.28C60.1906 310.56 61.2946 310.2 62.5906 310.2C64.5426 310.2 66.0386 310.976 67.0786 312.528C68.1346 314.064 68.6626 316.136 68.6626 318.744ZM66.5026 318.744C66.5026 316.488 66.1906 314.792 65.5666 313.656C64.9426 312.52 63.9506 311.952 62.5906 311.952C61.2306 311.952 60.2386 312.528 59.6146 313.68C58.9906 314.816 58.6786 316.512 58.6786 318.768C58.6786 321.008 58.9906 322.696 59.6146 323.832C60.2546 324.952 61.2466 325.512 62.5906 325.512C63.9506 325.512 64.9426 324.952 65.5666 323.832C66.1906 322.696 66.5026 321 66.5026 318.744ZM73.0453 310.464H75.1093V325.152H82.6693L82.4053 327H73.0453V310.464ZM87.4359 310.464H89.4999V325.152H97.0599L96.7959 327H87.4359V310.464ZM102.211 312.48C102.211 312.592 102.259 313.288 102.355 314.568C102.451 315.848 102.499 317.232 102.499 318.72V327H100.555V310.464H103.387L109.315 325.056L109.267 324.192C109.107 322.224 109.027 320.408 109.027 318.744V310.464H110.971V327H108.043L102.211 312.48ZM116.817 322.776L115.497 327H113.433L118.833 310.464H121.473L126.849 327H124.689L123.369 322.776H116.817ZM122.817 321.048L120.105 312.24L117.369 321.048H122.817Z" fill="black"/>
</svg>
